<?xml version="1.0" encoding="utf-8"?>
<!-- Generator: Adobe Illustrator 22.0.1, SVG Export Plug-In . SVG Version: 6.00 Build 0)  -->
<svg version="1.1" id="Layer_1" xmlns="http://www.w3.org/2000/svg" xmlns:xlink="http://www.w3.org/1999/xlink" x="0px" y="0px"
	 viewBox="0 0 73.9 74.8" style="enable-background:new 0 0 73.9 74.8;" xml:space="preserve">
<style type="text/css">
	.st0{display:none;}
	.st1{display:inline;}
</style>
<g class="st0">
	<g class="st1">
		<g>
			<g>
				<path d="M56.5,36.3c0-0.6-0.5-1.1-1.1-1.1h-36c-0.6,0-1.1,0.5-1.1,1.1s0.5,1.1,1.1,1.1h36C56,37.4,56.5,36.9,56.5,36.3z"/>
				<path d="M45.5,55.5H29.3c-0.6,0-1.1,0.5-1.1,1.1s0.5,1.1,1.1,1.1h16.3c0.6,0,1.1-0.5,1.1-1.1S46.1,55.5,45.5,55.5z"/>
				<path d="M29.3,64.1L29.3,64.1c-0.6,0-1.1,0.5-1.1,1.1s0.5,1.1,1.1,1.1l0,0c1.8,0,3.2-1.4,3.2-3.2s-1.4-3.2-3.2-3.2l0,0
					c-0.6,0-1.1,0.5-1.1,1.1s0.5,1.1,1.1,1.1l0,0c0.6,0,1.1,0.5,1.1,1.1C30.3,63.6,29.9,64.1,29.3,64.1z"/>
				<path d="M45.5,62L45.5,62c0.6,0,1.1-0.5,1.1-1.1s-0.5-1.1-1.1-1.1c-0.1,0-0.2,0-0.3,0c-1.7,0.1-3,1.5-3,3.2
					c0,1.8,1.4,3.2,3.2,3.2c0.6,0,1.1-0.5,1.1-1.1S46,64,45.4,64s-1.1-0.5-1.1-1.1C44.5,62.5,44.9,62,45.5,62z"/>
				<path d="M69.2,35.2H63c-2.4,0-4.3,1.9-4.3,4.3v20.3c0,1.2-1,2.2-2.2,2.2h-5.6V46.9c0.5,0.3,1.1,0.4,1.7,0.4
					c2.1,0,3.9-1.7,3.9-3.9c0-2.1-1.7-3.9-3.9-3.9c-2.1,0-3.9,1.7-3.9,3.9v22.9c0,1.2-1,2.2-2.2,2.2H28.2c-1.2,0-2.2-1-2.2-2.2V43.4
					c0-2.1-1.7-3.9-3.9-3.9c-2.1,0-3.9,1.7-3.9,3.9s1.7,3.9,3.9,3.9c0.6,0,1.2-0.1,1.7-0.4V62h-5.6c-1.2,0-2.2-1-2.2-2.2V39.5l0,0
					c0-2.4-1.9-4.3-4.3-4.3H5.2c-2.4,0-4.3,1.9-4.3,4.3c0,2.4,1.9,4.3,4.3,4.3h5.3l0,0c0.6,0,1.1-0.5,1.1-1.1s-0.5-1.1-1.1-1.1l0,0
					H5.2c-1.2,0-2.2-1-2.2-2.2s1-2.2,2.2-2.2h6.4c1.2,0,2.2,1,2.2,2.2v20.3c0,2.4,1.9,4.3,4.3,4.3h5.6v2.2c0,2.4,1.9,4.3,4.3,4.3
					h0.6c0,2.4,1.9,4.3,4.3,4.3l0,0h2.2h2.2h2.2h2.2l0,0c2.4,0,4.3-1.9,4.3-4.3l0,0h0.6c2.4,0,4.3-1.9,4.3-4.3V64h5.6
					c2.4,0,4.3-1.9,4.3-4.3V39.6c0-1.2,1-2.2,2.2-2.2h6.4c1.2,0,2.2,1,2.2,2.2s-1,2.2-2.2,2.2h-5.3c-0.6,0-1.1,0.5-1.1,1.1
					s0.5,1.1,1.1,1.1h5.3c2.4,0,4.3-1.9,4.3-4.3C73.6,37.2,71.7,35.2,69.2,35.2z M52.5,41.7c0.9,0,1.7,0.8,1.7,1.7s-0.8,1.7-1.7,1.7
					c-0.9,0-1.7-0.8-1.7-1.7C50.9,42.5,51.7,41.7,52.5,41.7z M22.2,45.1c-0.9,0-1.7-0.8-1.7-1.7s0.8-1.7,1.7-1.7s1.7,0.8,1.7,1.7
					S23.1,45.1,22.2,45.1z M43.9,70.6c0,1.2-1,2.2-2.2,2.2l0,0h-2.2h-2.1h-2.2H33l0,0c-1.2,0-2.2-1-2.2-2.2H43.9L43.9,70.6z"/>
				<path d="M50.9,27.5c7.5-7.5,7.5-19.6,0-27.1c-0.4-0.4-1.1-0.4-1.5,0s-0.4,1.1,0,1.5c6.6,6.6,6.6,17.4,0,24s-17.4,6.6-24,0
					s-6.6-17.4,0-24l0,0c0.4-0.4,0.4-1.1,0-1.5s-1.1-0.4-1.5,0l0,0c-7.5,7.5-7.5,19.6,0,27.1S43.5,35,50.9,27.5z"/>
			</g>
		</g>
	</g>
	<g class="st1">
		<g>
			<g>
				<path d="M64.2,33L64.2,33c-0.6,0-1.1-0.5-1.1-1.1l0,0c0-2.4-1.9-4.3-4.3-4.3l0,0c-0.6,0-1.1-0.5-1.1-1.1l0,0
					c0-0.6,0.5-1.1,1.1-1.1l0,0c4.2,0,7.5-3.4,7.5-7.5s-3.4-7.5-7.5-7.5h-2.2c-4.2,0-7.5,3.4-7.5,7.5l0,0c0,0.6-0.5,1.1-1.1,1.1l0,0
					h-6.5l0,0c-0.6,0-1.1-0.5-1.1-1.1l0,0c0-1.8-1.4-3.2-3.2-3.2l0,0l0,0l0,0c-1.8,0-3.2,1.4-3.2,3.2l0,0c0,0.6-0.5,1.1-1.1,1.1l0,0
					h-6.4l0,0c-0.6,0-1.1-0.5-1.1-1.1l0,0l0,0c0-4.2-3.4-7.5-7.5-7.5h-2.2c-4.2,0-7.5,3.4-7.5,7.5s3.4,7.5,7.5,7.5l0,0
					c0.6,0,1.1,0.5,1.1,1.1l0,0c0,0.6-0.5,1.1-1.1,1.1l0,0c-2.4,0-4.3,1.9-4.3,4.3l0,0c0,0.6-0.5,1.1-1.1,1.1l0,0
					c-1.8,0-3.2,1.4-3.2,3.2v12.9l0,0c0,1.8,1.4,3.2,3.2,3.2l0,0c0.6,0,1.1,0.5,1.1,1.1l0,0c0,2.4,1.9,4.3,4.3,4.3l0,0h4.3l0,0
					c0.6,0,1.1-0.5,1.1-1.1s-0.5-1.1-1.1-1.1h-4.3l0,0c-1.2,0-2.2-1-2.2-2.2l0,0c0-1.8-1.4-3.2-3.2-3.2l0,0c-0.6,0-1.1-0.5-1.1-1.1
					l0,0V36.3l0,0c0-0.6,0.5-1.1,1.1-1.1l0,0c1.8,0,3.2-1.4,3.2-3.2l0,0c0-1.2,1-2.2,2.2-2.2l0,0c1.8,0,3.2-1.4,3.2-3.2l0,0l0,0l0,0
					c0-1.8-1.4-3.2-3.2-3.2l0,0c-3,0-5.4-2.4-5.4-5.4s2.4-5.4,5.4-5.4H18c3,0,5.4,2.4,5.4,5.4l0,0c0,1.8,1.4,3.2,3.2,3.2l0,0h6.5
					l0,0c1.8,0,3.2-1.5,3.2-3.2l0,0c0-0.6,0.5-1.1,1.1-1.1l0,0l0,0c0.6,0,1.1,0.5,1.1,1.1l0,0c0,1.8,1.4,3.2,3.2,3.2l0,0h6.5
					c1.8,0,3.2-1.4,3.2-3.2l0,0l0,0c0-3,2.4-5.4,5.4-5.4H59c3,0,5.4,2.4,5.4,5.4S62,23.4,59,23.4l0,0c-1.8,0-3.2,1.4-3.2,3.2l0,0
					l0,0l0,0c0,1.8,1.5,3.2,3.2,3.2l0,0c1.2,0,2.2,1,2.2,2.2l0,0c0,1.8,1.4,3.2,3.2,3.2l0,0c0.6,0,1.1,0.5,1.1,1.1l0,0v12.9l0,0
					c0,0.6-0.5,1.1-1.1,1.1l0,0c-1.8,0-3.2,1.4-3.2,3.2l0,0c0,1.2-1,2.2-2.2,2.2l0,0h-4.3c-0.6,0-1.1,0.5-1.1,1.1s0.5,1.1,1.1,1.1
					l0,0H59l0,0c2.4,0,4.3-1.9,4.3-4.3l0,0c0-0.6,0.5-1.1,1.1-1.1l0,0c1.8,0,3.2-1.4,3.2-3.2l0,0v-13C67.6,34.5,66.1,33,64.2,33z"/>
				<path d="M13.7,39.2c0-0.6,0.5-1.1,1.1-1.1l0,0c0.6,0,1.1-0.5,1.1-1.1s-0.5-1.1-1.1-1.1l0,0c-1.8,0-3.2,1.4-3.2,3.2v7
					c0,1.8,1.4,3.2,3.2,3.2l0,0c0.6,0,1.1-0.5,1.1-1.1s-0.5-1.1-1.1-1.1l0,0c-0.6,0-1.1-0.5-1.1-1.1l0,0V39.2L13.7,39.2z"/>
				<path d="M19.1,40.6L19.1,40.6c0.6,0,1.1-0.5,1.1-1.1s-0.5-1.1-1.1-1.1l0,0c-1.8,0-3.2,1.4-3.2,3.2v2.2c0,1.8,1.4,3.2,3.2,3.2
					l0,0l0,0c0.6,0,1.1-0.5,1.1-1.1s-0.5-1.1-1.1-1.1l0,0l0,0c-0.6,0-1.1-0.5-1.1-1.1l0,0v-2.2C18.1,41.1,18.5,40.6,19.1,40.6z"/>
				<path d="M61,46.3c0,0.6-0.5,1.1-1.1,1.1l0,0c-0.6,0-1.1,0.5-1.1,1.1s0.5,1,1.1,1l0,0c1.8,0,3.2-1.4,3.2-3.2v-7
					c0-1.8-1.4-3.2-3.2-3.2l0,0c-0.6,0-1.1,0.5-1.1,1.1s0.5,1.1,1.1,1.1l0,0c0.6,0,1.1,0.5,1.1,1.1l0,0V46.3L61,46.3z"/>
				<path d="M55.7,44.9L55.7,44.9c-0.6,0-1.1,0.5-1.1,1.1s0.5,1.1,1.1,1.1l0,0c1.8,0,3.2-1.4,3.2-3.2v-2.2c0-1.8-1.4-3.2-3.2-3.2
					l0,0l0,0c-0.6,0-1.1,0.5-1.1,1.1s0.5,1.1,1.1,1.1l0,0l0,0c0.6,0,1.1,0.5,1.1,1.1l0,0V44C56.7,44.4,56.3,44.9,55.7,44.9z"/>
				<path d="M25.6,31.2c0,1.8,1.4,3.2,3.2,3.2c0.4,0,0.7-0.1,1.1-0.2v9.9c0,1.8,1.4,3.2,3.2,3.2c0.6,0,1.1,0.5,1.1,1.1l0,0
					c0,1.8,1.4,3.2,3.2,3.2l0,0l0,0l0,0l0,0l0,0l0,0c1.8,0,3.2-1.5,3.2-3.2l0,0c0-0.6,0.5-1.1,1.1-1.1l0,0l0,0
					c1.8,0,3.2-1.4,3.2-3.2l0,0l0,0l0,0v-9.9c0.3,0.1,0.7,0.2,1.1,0.2c1.8,0,3.2-1.4,3.2-3.2S47.8,28,46,28s-3.2,1.4-3.2,3.2v12.9
					l0,0c0,0.6-0.5,1.1-1.1,1.1l0,0l0,0c-1.8,0-3.2,1.4-3.2,3.2l0,0c0,0.6-0.5,1.1-1.1,1.1l0,0c-0.6,0-1.1-0.5-1.1-1.1l0,0
					c0-1.8-1.4-3.2-3.2-3.2c-0.6,0-1.1-0.5-1.1-1.1l0,0V31.2c0-1.8-1.4-3.2-3.2-3.2C27,28,25.6,29.4,25.6,31.2z M46,30.1
					c0.6,0,1.1,0.5,1.1,1.1s-0.5,1.1-1.1,1.1s-1.1-0.5-1.1-1.1S45.4,30.1,46,30.1z M28.8,30.1c0.6,0,1.1,0.5,1.1,1.1
					s-0.5,1.1-1.1,1.1s-1.1-0.5-1.1-1.1S28.2,30.1,28.8,30.1z"/>
				<path d="M34.2,40.9c-0.6,0-1.1,0.5-1.1,1.1s0.5,1.1,1.1,1.1l0,0h6.5l0,0c0.6,0,1.1-0.5,1.1-1.1s-0.5-1.1-1.1-1.1l0,0H34.2
					L34.2,40.9z"/>
				<path d="M21.2,31.2L21.2,31.2L21.2,31.2L21.2,31.2c0,3.4,2.3,6.3,5.4,7.2v2.5l0,0c0,0.6,0.5,1.1,1.1,1.1s1.1-0.5,1.1-1.1l0,0
					v-2.2l0,0v-2.2c-3,0-5.4-2.4-5.4-5.4c0-0.6-0.5-1.1-1.1-1.1C21.7,30.1,21.2,30.6,21.2,31.2V31C21.2,31.1,21.2,31.1,21.2,31.2z"
					/>
				<path d="M46,40.9c0,0.6,0.5,1.1,1.1,1.1s1.1-0.5,1.1-1.1l0,0v-2.5c3.1-0.9,5.4-3.8,5.4-7.2l0,0l0,0l0,0c0-0.1,0-0.1,0-0.2v0.1
					c0-0.6-0.5-1-1.1-1s-1.1,0.5-1.1,1.1c0,3-2.4,5.4-5.4,5.4v2.2l0,0V40.9L46,40.9z"/>
				<path d="M28.8,23.7c-0.1,0-0.1,0-0.2,0h-0.1c-0.6,0-1.1,0.5-1.1,1.1s0.5,1.1,1.1,1.1l0,0c0.1,0,0.2,0,0.3,0c3,0,5.4,2.4,5.4,5.4
					l0,0c0,0.6,0.5,1,1.1,1s1.1-0.5,1.1-1.1v-0.1C36.2,26.9,32.9,23.7,28.8,23.7z"/>
				<path d="M40.6,31.2L40.6,31.2c0-3,2.4-5.4,5.4-5.4c0.1,0,0.2,0,0.3,0l0,0c0.6,0,1.1-0.5,1.1-1.1s-0.5-1.1-1.1-1.1h-0.1
					c-0.1,0-0.1,0-0.2,0c-4.1,0-7.4,3.3-7.5,7.3V31c0,0.6,0.5,1.1,1.1,1.1C40.1,32.2,40.6,31.7,40.6,31.2z"/>
				<path d="M54.5,52.7c0-0.6-0.5-1.1-1.1-1.1l0,0l0,0h-2.1v-2.1h2.2l0,0c0.6,0,1.1-0.5,1.1-1.1s-0.5-1.1-1.1-1.1l0,0h-2.2l0,0
					c0-2.4-1.9-4.3-4.3-4.3c-0.6,0-1.1,0.5-1.1,1.1s0.5,1.1,1.1,1.1l0,0c1.2,0,2.2,1,2.2,2.2l0,0h-2.2l0,0l0,0l0,0
					c-1.8,0-3.2,1.4-3.2,3.2c0,0.6,0.5,1.1,1.1,1.1s1.1-0.5,1.1-1.1l0,0c0-0.6,0.5-1.1,1.1-1.1l0,0l0,0h2.1v2.2h-2.1l0,0l0,0l0,0
					c-1.8,0-3.2,1.4-3.2,3.2c0,0.6,0.5,1.1,1.1,1.1s1.1-0.5,1.1-1.1l0,0c0-0.6,0.5-1.1,1.1-1.1l0,0l0,0h2.2V56c0,1.2-1,2.2-2.2,2.2
					h-6.5c-1.2,0-2.1-1-2.1-2.2l0,0l0,0c0-0.6-0.5-1.1-1.1-1.1s-1.1,0.5-1.1,1.1l0,0c0,1.2-1,2.1-2.1,2.2h-6.5c-1.2,0-2.2-1-2.2-2.2
					v-2.2h2.2c0.6,0,1.1,0.5,1.1,1.1l0,0c0,0.6,0.5,1.1,1.1,1.1s1.1-0.5,1.1-1.1c0-1.8-1.4-3.2-3.2-3.2l0,0h-2.2v-2.2h2.2
					c0.6,0,1.1,0.5,1.1,1.1l0,0c0,0.6,0.5,1.1,1.1,1.1s1.1-0.5,1.1-1.1c0-1.8-1.4-3.2-3.2-3.2l0,0l0,0l0,0h-2.1l0,0
					c0-1.2,1-2.2,2.2-2.2l0,0c0.6,0,1.1-0.5,1.1-1.1S28.7,43,28.1,43c-2.4,0-4.3,1.9-4.3,4.3l0,0h-2.2c-0.6,0-1.1,0.5-1.1,1.1
					s0.5,1.1,1.1,1.1l0,0h1.7v2.2h-2.2l0,0c-0.6,0-1.1,0.5-1.1,1.1s0.5,1.1,1.1,1.1l0,0l0,0h2.2v2.2l0,0c0,2.4,1.9,4.3,4.3,4.3l0,0
					h2.2c0,2.4,1.9,4.3,4.3,4.3l0,0h6.5l0,0l0,0l0,0c2.4,0,4.3-1.9,4.3-4.3h2.2l0,0c2.4,0,4.3-1.9,4.3-4.3l0,0v-2.2h2.1l0,0l0,0
					C54.2,53.8,54.5,53.3,54.5,52.7z M40.6,62.4L40.6,62.4h-6.5c-1.2,0-2.1-1-2.2-2.1h2.2l0,0l0,0h0.1l0,0c1.2,0,2.4-0.6,3.1-1.5
					c0.8,0.9,1.9,1.5,3.2,1.5l0,0l0,0l0,0l0,0h2.1C42.8,61.5,41.8,62.4,40.6,62.4z"/>
			</g>
		</g>
	</g>
	<g class="st1">
		<g>
			<g>
				<path d="M60,36.4c-1.2,0-2.2-1-2.2-2.2c0-2.4-1.9-4.3-4.3-4.3l0,0c-1.2,0-2.2-1-2.2-2.2V10.6c0-2.4-1.9-4.3-4.3-4.3h-2.2
					c-2.4,0-4.3,1.9-4.3,4.3v12.9l0,0c0,1.2-1,2.2-2.2,2.2H36c-1.2,0-2.2-1-2.2-2.2V10.6c0-2.4-1.9-4.3-4.3-4.3h-2.2
					c-2.4,0-4.3,1.9-4.3,4.3v17.2c0,1.2-1,2.2-2.2,2.2l0,0c-2.4,0-4.3,1.9-4.3,4.3c0,1.2-1,2.2-2.2,2.2c-2.4,0-4.3,1.9-4.3,4.3
					c0,2.4,1.9,4.3,4.3,4.3c1.2,0,2.2,1,2.2,2.2l0,0l0,0c0,0.6,0.5,1.1,1.1,1.1s1.1-0.5,1.1-1.1l0,0l0,0c0-2.4-1.9-4.3-4.3-4.3
					c-1.2,0-2.2-1-2.2-2.2s1-2.2,2.2-2.2c2.4,0,4.3-1.9,4.3-4.3c0-1.2,1-2.2,2.2-2.2l0,0c2.4,0,4.3-1.9,4.3-4.3V10.6
					c0-1.2,1-2.2,2.2-2.2h2.2c1.2,0,2.2,1,2.2,2.2v12.9c0,2.4,1.9,4.3,4.3,4.3h2.2c2.4,0,4.3-1.9,4.3-4.3l0,0V10.6
					c0-1.2,1-2.2,2.2-2.2h2.2c1.2,0,2.2,1,2.2,2.2v17.2c0,2.4,1.9,4.3,4.3,4.3l0,0c1.2,0,2.2,1,2.2,2.2c0,2.4,1.9,4.3,4.3,4.3
					c1.2,0,2.2,1,2.2,2.2s-1,2.2-2.2,2.2c-2.4,0-4.3,1.9-4.3,4.3l0,0l0,0c0,0.6,0.5,1.1,1.1,1.1s1.1-0.5,1.1-1.1l0,0l0,0
					c0-1.2,1-2.2,2.2-2.2c2.4,0,4.3-1.9,4.3-4.3C64.2,38.3,62.4,36.4,60,36.4z"/>
				<path d="M56.9,50.4h-9.7v-4.5c0.3,0.1,0.7,0.2,1.1,0.2c1.8,0,3.2-1.4,3.2-3.2s-1.4-3.2-3.2-3.2S45,41.1,45,42.9v18.3
					c0,1.2-1,2.2-2.2,2.2h-2.2c-1.2,0-2.2-1-2.2-2.2v-2.3c1.9-0.5,3.2-2.2,3.2-4.2c0-0.6-0.5-1.1-1.1-1.1s-1.1,0.5-1.1,1.1
					c0,1.2-1,2.2-2.2,2.2l0,0l0,0c-1.2,0-2.2-1-2.2-2.2l0,0c0-0.6-0.5-1.1-1.1-1.1s-1.1,0.5-1.1,1.1l0,0c0,2,1.4,3.7,3.2,4.2v2.3
					c0,1.2-1,2.2-2.2,2.2h-2.2c-1.2,0-2.2-1-2.2-2.2V42.9c0-1.8-1.4-3.2-3.2-3.2S23,41.1,23,42.9s1.4,3.2,3.2,3.2
					c0.4,0,0.7-0.1,1.1-0.2v4.5h-9.7c-0.6,0-1.1,0.5-1.1,1.1s0.5,1.1,1.1,1.1h9.7v2.2h-7.5c-0.6,0-1.1,0.5-1.1,1.1s0.5,1.1,1.1,1.1
					h7.5v2.2h-5l0,0c-0.6,0-1.1,0.5-1.1,1.1s0.5,1.1,1.1,1.1l0,0h5.4c0,2.4,1.9,4.3,4.3,4.3h1.2c0.5,1.9,2.2,3.2,4.1,3.2l0,0l0,0
					l0,0l0,0l0,0l0,0c2,0,3.7-1.4,4.1-3.2h1.2c2.4,0,4.3-1.9,4.3-4.3h5.4c0.6,0,1.1-0.5,1.1-1.1s-0.5-1.1-1.1-1.1H47V57h7.5
					c0.6,0,1.1-0.5,1.1-1.1s-0.5-1.1-1.1-1.1H47v-2.2h9.7c0.6,0,1.1-0.5,1.1-1.1C58,50.9,57.5,50.4,56.9,50.4z M48.3,41.8
					c0.6,0,1.1,0.5,1.1,1.1S48.9,44,48.3,44s-1.1-0.5-1.1-1.1C47.2,42.3,47.7,41.8,48.3,41.8z M26.7,44c-0.6,0-1.1-0.5-1.1-1.1
					s0.5-1.1,1.1-1.1s1.1,0.5,1.1,1.1C27.8,43.5,27.3,44,26.7,44z M37.5,66.6L37.5,66.6c-0.9,0-1.6-0.5-2-1.3c0.8-0.2,1.4-0.7,2-1.3
					c0.5,0.6,1.2,1,2,1.3C39.1,66.1,38.4,66.6,37.5,66.6z"/>
			</g>
		</g>
	</g>
	<g class="st1">
		<g>
			<g>
				<path d="M33.7,37.5L33.7,37.5L33.7,37.5c0-2.4-1.9-4.3-4.3-4.3l0,0c-2.4,0-4.3,1.9-4.3,4.3l0,0c0,2.4,1.9,4.3,4.3,4.3
					S33.7,39.9,33.7,37.5L33.7,37.5L33.7,37.5z M29.4,39.6c-1.2,0-2.2-1-2.2-2.2l0,0c0-1.2,1-2.2,2.2-2.2l0,0c1.2,0,2.2,1,2.2,2.2
					C31.6,38.7,30.6,39.6,29.4,39.6z"/>
				<path d="M44.5,33.2v2.2c1.2,0,2.2,1,2.2,2.2s-1,2.2-2.2,2.2s-2.2-1-2.2-2.2l0,0c0-1.2,1-2.2,2.2-2.2V33.2
					c-2.4,0-4.3,1.9-4.3,4.3l0,0c0,2.4,1.9,4.3,4.3,4.3s4.3-1.9,4.3-4.3S46.9,33.2,44.5,33.2z"/>
				<path d="M34.9,64.7L34.9,64.7l-1.5-1.5c-0.4-0.4-1.1-0.4-1.5,0s-0.4,1.1,0,1.5l1.4,1.4l0.1,0.1c0.4,0.4,1.1,0.4,1.5,0
					C35.3,65.8,35.3,65.2,34.9,64.7z"/>
				<path d="M42,63.2c-0.4-0.4-1.1-0.4-1.5,0L39,64.7c-0.4,0.4-0.4,1.1,0,1.5s1.1,0.4,1.5,0l1.5-1.5C42.5,64.3,42.5,63.6,42,63.2z"
					/>
				<path d="M72.4,58.6c0-2.4-1.9-4.3-4.3-4.3c-2.4,0-4.3,1.9-4.3,4.3c0,1.2-1,2.2-2.2,2.2s-2.2-1-2.2-2.2c0-2.4-1.9-4.3-4.3-4.3
					s-4.3,1.9-4.3,4.3l0,0c0,1.2-1,2.2-2.2,2.2v-9.3l0,0c0-1.2,1-2.2,2.2-2.2h4.3c2.4,0,4.3-1.9,4.3-4.3v-6.5c0-2.4-1.9-4.3-4.3-4.3
					c-1.2,0-2.2-1-2.2-2.2v-6.5c0-2-1.4-3.7-3.2-4.2V19c1.8,0,3.2-1.4,3.2-3.2s-1.4-3.2-3.2-3.2V8.3c1.8,0,3.2-1.4,3.2-3.2
					s-1.4-3.2-3.2-3.2l0,0c0-2.4-1.9-4.3-4.3-4.3l0,0c-2.4,0-4.3,1.9-4.3,4.3v4.3c-1.8,0-3.2,1.4-3.2,3.2s1.4,3.2,3.2,3.2v8.9
					C39.2,22,38,23.7,38,25.7c0,0.8-0.4,1.5-1.1,1.9c-0.6-0.4-1.1-1.1-1.1-1.9c0-2-1.4-3.7-3.2-4.2v-8.8c1.8,0,3.2-1.4,3.2-3.2
					s-1.4-3.2-3.2-3.2V2c0-2.4-1.9-4.3-4.3-4.3l0,0l0,0C25.9-2.3,24-0.4,24,2l0,0c-1.8,0-3.2,1.4-3.2,3.2s1.4,3.2,3.2,3.2v4.3
					c-1.8,0-3.2,1.4-3.2,3.2s1.4,3.2,3.2,3.2v2.4c-1.9,0.5-3.2,2.2-3.2,4.2v6.5c0,1.2-1,2.2-2.2,2.2c-2.4,0-4.3,1.9-4.3,4.3v6.5
					c0,2.4,1.9,4.3,4.3,4.3l0,0h4.3c1.2,0,2.2,1,2.2,2.2l0,0v9.2l0,0c-1.2,0-2.2-1-2.2-2.2l0,0c0-2.4-1.9-4.3-4.3-4.3
					s-4.3,1.9-4.3,4.3c0,1.2-1,2.2-2.2,2.2s-2.2-1-2.2-2.2c0-2.4-1.9-4.3-4.3-4.3s-4.3,1.9-4.3,4.3c0,0.6,0.5,1.1,1.1,1.1
					s1.1-0.5,1.1-1.1c0-1.2,1-2.2,2.2-2.2s2.2,1,2.2,2.2c0,2.4,1.9,4.3,4.3,4.3s4.3-1.9,4.3-4.3c0-1.2,1-2.2,2.2-2.2s2.2,1,2.2,2.2
					l0,0c0,2.4,1.9,4.3,4.3,4.3l0,0v3.7l0,0c0,1.6,0.9,3,2.2,3.7v2.7l0,0c0,2.4,1.9,4.3,4.3,4.3h10.8c2.4,0,4.3-1.9,4.3-4.3l0,0
					v-2.7c1.3-0.7,2.2-2.1,2.2-3.7l0,0V63c2.4,0,4.3-1.9,4.3-4.3l0,0c0-1.2,1-2.2,2.2-2.2s2.2,1,2.2,2.2c0,2.4,1.9,4.3,4.3,4.3
					c2.4,0,4.3-1.9,4.3-4.3c0-1.2,1-2.2,2.2-2.2s2.2,1,2.2,2.2l0,0c0,0.6,0.5,1.1,1.1,1.1C71.9,59.7,72.4,59.2,72.4,58.6L72.4,58.6z
					 M40.2,9.5c0-0.6,0.5-1.1,1.1-1.1h2.1V1.9c0-1.2,1-2.2,2.2-2.2s2.2,1,2.2,2.2l0,0v2.2H50c0.6,0,1.1,0.5,1.1,1.1S50.6,6.3,50,6.3
					h-2.2v8.6H50l0,0c0.6,0,1.1,0.5,1.1,1.1s-0.5,1.1-1.1,1.1l0,0h-2.2v4.3h-4.4V10.6h-2.2C40.7,10.6,40.2,10.1,40.2,9.5z M23,16
					c0-0.6,0.5-1.1,1.1-1.1l0,0h2.2V6.3H24c-0.6,0-1.1-0.5-1.1-1.1s0.5-1.1,1.1-1.1h2.2V1.9l0,0c0-1.2,1-2.2,2.2-2.2s2.2,1,2.2,2.2
					v6.5h2.2c0.6,0,1.1,0.5,1.1,1.1s-0.5,1.1-1.1,1.1h-2.2v10.8h-4.3v-4.3h-2.2l0,0C23.4,17,23,16.6,23,16z M42.3,75.2H31.6
					c-1.2,0-2.2-1-2.2-2.2l0,0v-2.2h15.1V73l0,0C44.5,74.2,43.5,75.2,42.3,75.2z M46.7,51.5L46.7,51.5v9.2h-1.1
					c-0.6,0-1.1,0.5-1.1,1.1s0.5,1.1,1.1,1.1h1.1v3.7l0,0c0,1.2-1,2.2-2.2,2.2l0,0H29.4l0,0c-1.2,0-2.2-1-2.2-2.2l0,0v-3.7h1.1
					c0.6,0,1.1-0.5,1.1-1.1s-0.5-1.1-1.1-1.1h-1.1v-9.2l0,0c0-2.4-1.9-4.3-4.3-4.3h-4.3l0,0c-1.2,0-2.2-1-2.2-2.2v-6.5
					c0-1.2,1-2.2,2.2-2.2c2.4,0,4.3-1.9,4.3-4.3l0,0v-6.5l0,0c0-1.2,1-2.2,2.2-2.2h6.5c1.2,0,2.2,1,2.2,2.2c0,1.6,0.9,3,2.2,3.7v0.5
					l0,0c0,0.6,0.5,1.1,1.1,1.1s1.1-0.5,1.1-1.1v-0.6c1.3-0.7,2.2-2.1,2.2-3.7c0-1.2,1-2.2,2.2-2.2h6.5c1.2,0,2.2,1,2.2,2.2v6.5
					c0,2.4,1.9,4.3,4.3,4.3c1.2,0,2.2,1,2.2,2.2v6.5c0,1.2-1,2.2-2.2,2.2h-4.3C48.6,47.2,46.7,49.1,46.7,51.5z"/>
				<path d="M18.5,25.6C18.4,25.6,18.4,25.6,18.5,25.6h-2.2l0,0c-0.6,0-1.1-0.5-1.1-1.1l0,0c0-1.8-1.4-3.2-3.2-3.2l0,0
					c-1.8,0-3.2,1.4-3.2,3.2l0,0c0,0.6-0.5,1.1-1.1,1.1l0,0H1.1l0,0c-1.8,0-3.2,1.4-3.2,3.2S-0.7,32,1.1,32l0,0h6.5
					c0.6,0,1.1,0.5,1.1,1.1s-0.5,1.1-1.1,1.1l0,0H5.4c-1.8,0-3.2,1.4-3.2,3.2s1.4,3.2,3.2,3.2h6.4c0,0,0,0,0.1,0
					c0.6,0,1.1-0.5,1.1-1.1s-0.5-1.1-1.1-1.1l0,0H5.4c-0.6,0-1.1-0.5-1.1-1.1s0.5-1.1,1.1-1.1h2.2l0,0c1.8,0,3.2-1.4,3.2-3.2
					s-1.4-3.2-3.2-3.2H1.1l0,0c-0.6,0-1.1-0.5-1.1-1.1s0.5-1.1,1.1-1.1l0,0h6.5l0,0c1.8,0,3.2-1.4,3.2-3.2l0,0
					c0-0.6,0.5-1.1,1.1-1.1l0,0c0.6,0,1.1,0.5,1.1,1.1l0,0c0,1.8,1.4,3.2,3.2,3.2l0,0h2.2l0,0c0.6,0,1.1-0.5,1.1-1.1
					C19.5,26.1,19.1,25.6,18.5,25.6z"/>
				<path d="M56.3,25.6C56.4,25.6,56.4,25.6,56.3,25.6h2.2l0,0c0.6,0,1.1-0.5,1.1-1.1l0,0c0-1.8,1.4-3.2,3.2-3.2l0,0
					c1.8,0,3.2,1.4,3.2,3.2l0,0c0,0.6,0.5,1.1,1.1,1.1l0,0h6.5l0,0c1.8,0,3.2,1.4,3.2,3.2S75.3,32,73.5,32l0,0H67
					c-0.6,0-1.1,0.5-1.1,1.1s0.5,1.1,1.1,1.1l0,0h2.2c1.8,0,3.2,1.4,3.2,3.2s-1.4,3.2-3.2,3.2h-6.4c0,0,0,0-0.1,0
					c-0.6,0-1.1-0.5-1.1-1.1s0.5-1.1,1.1-1.1l0,0h6.5c0.6,0,1.1-0.5,1.1-1.1s-0.5-1.1-1.1-1.1H67l0,0c-1.8,0-3.2-1.4-3.2-3.2
					s1.4-3.2,3.2-3.2h6.5l0,0c0.6,0,1.1-0.5,1.1-1.1s-0.5-1.1-1.1-1.1l0,0H67l0,0c-1.8,0-3.2-1.4-3.2-3.2l0,0c0-0.6-0.5-1.1-1.1-1.1
					l0,0c-0.6,0-1.1,0.5-1.1,1.1l0,0c0,1.8-1.4,3.2-3.2,3.2l0,0h-2.2l0,0c-0.6,0-1.1-0.5-1.1-1.1C55.3,26.1,55.7,25.6,56.3,25.6z"/>
				<rect x="31.6" y="37.5" width="2.2" height="19.4"/>
				<circle cx="32.7" cy="56.9" r="1.1"/>
				<rect x="40.2" y="37.5" width="2.2" height="19.4"/>
				<circle cx="41.3" cy="56.9" r="1.1"/>
			</g>
		</g>
	</g>
	<g class="st1">
		<g>
			<g>
				<path d="M38.5,38.4L38.5,38.4L38.5,38.4c0-0.6-0.5-1.1-1.1-1.1s-1.1,0.5-1.1,1.1v0.1v12.8l0,0l0,0c0,0.6,0.5,1.1,1.1,1.1
					s1.1-0.5,1.1-1.1l0,0l0,0C38.5,51.3,38.5,38.4,38.5,38.4z"/>
				<path d="M39.7,31.8c-0.4-0.4-1.1-0.4-1.5,0l-0.8,0.8l-0.8-0.8c-0.4-0.4-1.1-0.4-1.5,0s-0.4,1.1,0,1.5l1.5,1.5
					c0.3,0.3,0.6,0.4,1,0.3c0.2,0,0.4-0.1,0.6-0.3l1.5-1.5C40.1,32.9,40.1,32.2,39.7,31.8z"/>
				<path d="M36,55L36,55l-1.5-1.5c-0.4-0.4-1.1-0.4-1.5,0s-0.4,1.1,0,1.5l1.4,1.4l0.1,0.1c0.4,0.4,1.1,0.4,1.5,0S36.4,55.4,36,55z"
					/>
				<path d="M41.9,53.5c-0.4-0.4-1.1-0.4-1.5,0L38.9,55c-0.4,0.4-0.4,1.1,0,1.5s1.1,0.4,1.5,0l1.5-1.5
					C42.3,54.6,42.3,53.9,41.9,53.5z"/>
				<path d="M32,37.4c0-1.8-1.5-3.2-3.2-3.2c-1.8,0-3.2,1.4-3.2,3.2l0,0v4.4c0,1.8,1.4,3.2,3.2,3.2s3.2-1.4,3.2-3.2V37.4L32,37.4z
					 M29.9,41.8c0,0.6-0.5,1.1-1.1,1.1s-1.1-0.5-1.1-1.1v-4.3c0-0.6,0.5-1.1,1.1-1.1s1.1,0.5,1.1,1.1V41.8z"/>
				<path d="M62.2,10.5H32l0,0c-2.4,0-4.3,1.9-4.3,4.3v8.6c0,1.2-1,2.2-2.2,2.2v-14l0,0c0-0.3-0.1-0.6-0.3-0.8
					c-0.4-0.4-1.1-0.4-1.5,0c-0.2,0.2-0.3,0.5-0.3,0.8v14.6c-1.3,0.7-2.1,2.1-2.2,3.7l0,0l0,0l0,0l0,0l0,0c-1.8,0-3.2,1.4-3.2,3.2
					s1.4,3.2,3.2,3.2v8.6c0,2.4,1.9,4.3,4.3,4.3c1.2,0,2.2,1,2.2,2.2v4.3h-2.2v-2.2c0-1.8-1.4-3.2-3.2-3.2S19,51.7,19,53.5l0,0v2.2
					h-6.5l0,0c-1.2,0-2.2-1-2.2-2.2v-4.3h2.2l0,0c1.8,0,3.2-1.4,3.2-3.2s-1.4-3.2-3.2-3.2h-2.2V23.4h2.2l0,0c1.8,0,3.2-1.4,3.2-3.2
					S14.4,17,12.5,17h-2.2v-5.4l0,0c0-0.3-0.1-0.6-0.3-0.8c-0.4-0.4-1.1-0.4-1.5,0c-0.2,0.2-0.3,0.5-0.3,0.8v42
					c0,2.4,1.9,4.3,4.3,4.3l0,0h15.1l0,0c0,2.4,1.9,4.3,4.3,4.3h0.6c0.7,1.3,2.1,2.2,3.8,2.3l0,0h2.2l0,0c1.6,0,3-0.9,3.8-2.3h0.5
					l0,0c2.4,0,4.3-1.9,4.3-4.3l0,0h15.1l0,0l0,0l0,0l0,0c2.4,0,4.3-1.9,4.3-4.3l0,0V14.8C66.4,12.5,64.6,10.5,62.2,10.5z
					 M21.3,34.2c-0.6,0-1.1-0.5-1.1-1.1s0.5-1.1,1.1-1.1V34.2z M10.5,19.1h2.2c0.6,0,1.1,0.5,1.1,1.1s-0.5,1.1-1.1,1.1l0,0h-2.2
					V19.1z M10.5,45h2.2c0.6,0,1.1,0.5,1.1,1.1s-0.5,1.1-1.1,1.1l0,0h-2.2V45z M23.4,55.8h-2.2v-2.2l0,0c0-0.6,0.5-1.1,1.1-1.1
					s1.1,0.5,1.1,1.1C23.3,53.6,23.3,55.8,23.4,55.8z M47.1,12.7h2.2v2.2l0,0c0,0.6-0.5,1.1-1.1,1.1s-1.1-0.5-1.1-1.1
					C47.1,14.9,47.1,12.7,47.1,12.7z M29.9,19.1h2.2l0,0c0.6,0,1.1,0.5,1.1,1.1c0,0.6-0.5,1.1-1.1,1.1h-2.2V19.1z M38.5,62.3h-2.1
					c-0.4,0-0.7-0.1-1-0.3c0.8-0.2,1.5-0.7,2.1-1.3c0.5,0.6,1.3,1.1,2.1,1.3C39.2,62.2,38.9,62.3,38.5,62.3z M53.5,55.8h-2.1v-2.2
					l0,0c0-0.6,0.5-1.1,1.1-1.1s1.1,0.5,1.1,1.1L53.5,55.8L53.5,55.8z M64.2,47.2h-2.2l0,0c-0.6,0-1.1-0.5-1.1-1.1s0.5-1.1,1.1-1.1
					h2.2V47.2z M64.2,21.3h-2.2l0,0c-0.6,0-1.1-0.5-1.1-1.1s0.5-1.1,1.1-1.1h2.2V21.3z M64.2,17h-2.2c-1.8,0-3.2,1.4-3.2,3.2
					c0,1.8,1.4,3.2,3.2,3.2l0,0h2.2v19.4h-2.2c-1.8,0-3.2,1.4-3.2,3.2s1.4,3.2,3.2,3.2l0,0h2.2v4.3l0,0c0,1.2-1,2.2-2.1,2.2h-6.5
					v-2.2c0-1.8-1.4-3.2-3.2-3.2c-1.8,0-3.2,1.4-3.2,3.2l0,0v2.2h-2.2v-4.2c0-1.2,1-2.2,2.2-2.2c2.4,0,4.3-1.9,4.3-4.3v-8.6
					c1.8,0,3.2-1.4,3.2-3.2S55.4,30,53.6,30l0,0c0-2.4-1.9-4.3-4.3-4.3c-1.2,0-2.2-1-2.2-2.2l0,0c0-0.3-0.1-0.6-0.3-0.8
					c-0.4-0.4-1.1-0.4-1.5,0c-0.2,0.2-0.3,0.5-0.3,0.8c0,2.4,1.9,4.3,4.3,4.3c1.2,0,2.2,1,2.2,2.2l0,0v0.3v14.8c0,1.2-1,2.2-2.2,2.2
					c-2.4,0-4.3,1.9-4.3,4.3v6.5c0,1.2-1,2.2-2.2,2.2h-2.1c-1.2,0-2.2-1-2.2-2.2l0,0l0,0c0-0.3-0.1-0.6-0.3-0.8
					c-0.4-0.4-1.1-0.4-1.5,0c-0.2,0.2-0.3,0.5-0.3,0.8c0,1.2-1,2.2-2.2,2.2h-2.1c-1.2,0-2.2-1-2.2-2.2v-6.6c0-2.4-1.9-4.3-4.3-4.3
					c-1.2,0-2.2-1-2.2-2.2V30.6v-0.7l0,0c0-1.2,1-2.2,2.2-2.2c2.4,0,4.3-1.9,4.3-4.3l0,0h2.2c1.8,0,3.2-1.4,3.2-3.2S33.9,17,32.1,17
					l0,0h-2.2v-2.1c0-1.2,1-2.2,2.2-2.2H45v2.2c0,1.8,1.4,3.2,3.2,3.2s3.2-1.4,3.2-3.2l0,0v-2.2h10.8c1.2,0,2.2,1,2.2,2.2L64.2,17
					L64.2,17L64.2,17z M53.5,34.2V32c0.6,0,1.1,0.5,1.1,1.1C54.5,33.7,54,34.2,53.5,34.2z"/>
				<path d="M49.2,37.4c0-1.8-1.5-3.2-3.2-3.2s-3.2,1.4-3.2,3.2l0,0v4.4c0,1.8,1.4,3.2,3.2,3.2s3.2-1.4,3.2-3.2V37.4L49.2,37.4z
					 M47.1,41.8c0,0.6-0.5,1.1-1.1,1.1s-1.1-0.5-1.1-1.1v-4.3c0-0.6,0.5-1.1,1.1-1.1s1.1,0.5,1.1,1.1V41.8z"/>
			</g>
		</g>
	</g>
	<g class="st1">
		<g>
			<g>
				<path d="M22.3,32.1c0,1.8,1.4,3.2,3.2,3.2s3.2-1.4,3.2-3.2s-1.4-3.2-3.2-3.2S22.3,30.3,22.3,32.1z M26.6,32.1
					c0,0.6-0.5,1.1-1.1,1.1s-1.1-0.5-1.1-1.1s0.5-1.1,1.1-1.1S26.6,31.5,26.6,32.1z"/>
				<path d="M47.1,14.9c0.6,0,1.1-0.5,1.1-1.1v-2.2c0-0.3,0-0.5,0.1-0.7c0.3-0.8,1.1-1.4,2-1.4s1.7,0.6,2,1.4
					c0.1,0.2,0.1,0.5,0.1,0.7l0,0v2.2l0,0c0,0.6,0.5,1.1,1.1,1.1s1.1-0.5,1.1-1.1l0,0v-2.1l0,0c0-0.3,0-0.6-0.1-0.9
					c-0.4-2-2.1-3.4-4.2-3.4l0,0l0,0c-2.1,0-3.8,1.5-4.2,3.4c-0.1,0.3-0.1,0.6-0.1,0.9v2.2C46,14.4,46.5,14.9,47.1,14.9z"/>
				<path d="M44.9,35.3c1.8,0,3.2-1.4,3.2-3.2s-1.4-3.2-3.2-3.2s-3.2,1.4-3.2,3.2S43.2,35.3,44.9,35.3z M44.9,31
					c0.6,0,1.1,0.5,1.1,1.1s-0.5,1.1-1.1,1.1s-1.1-0.5-1.1-1.1C43.9,31.5,44.3,31,44.9,31z"/>
				<path d="M32,28.9c0-1.8-1.4-3.2-3.2-3.2c-0.6,0-1.1,0.5-1.1,1.1s0.5,1.1,1.1,1.1s1.1,0.5,1.1,1.1l0,0v25.8
					c0,1.8,1.4,3.2,3.2,3.2l0,0h4.3l0,0c1.8,0,3.2-1.4,3.2-3.2V28.9c0-0.6,0.5-1.1,1.1-1.1s1.1-0.5,1.1-1.1s-0.5-1.1-1.1-1.1
					c-1.8,0-3.2,1.4-3.2,3.2v25.8c0,0.6-0.5,1.1-1.1,1.1l0,0h-4.3l0,0c-0.6,0-1.1-0.5-1.1-1.1L32,28.9L32,28.9z"/>
				<path d="M54.5,17h-9.7c-0.6,0-1.1-0.5-1.1-1.1l0,0V9.5l0,0c0-1.8-1.4-3.2-3.2-3.2s-3.2,1.4-3.2,3.2v2.2c0,0.6-0.5,1.1-1.1,1.1
					s-1.1-0.5-1.1-1.1V5.2l0,0c0-2.4-1.9-4.3-4.3-4.3l0,0c-2.4,0-4.3,1.9-4.3,4.3v12.9l0,0c0,2.4,1.9,4.3,4.3,4.3h12.9
					c1.2,0,2.2,1,2.2,2.2l0,0l0,0c0,1.8,1.4,3.2,3.2,3.2l0,0c0.6,0,1.1,0.5,1.1,1.1v6.5l0,0c0,0.6-0.5,1.1-1.1,1.1l0,0
					c-1.8,0-3.2,1.4-3.2,3.2l0,0v5.4l0,0v1.1l0,0c0,0.6-0.5,1.1-1,1.1l0,0c-0.6,0-1.1,0.5-1.1,1.1v17.1l0,0l0,0c0,1.2-1,2.2-2.2,2.2
					H28.8c-1.2,0-2.2-1-2.2-2.2l0,0l0,0V48.3c0-0.6-0.5-1.1-1.1-1.1l0,0c-0.6,0-1-0.5-1-1.1l0,0v-6.5c0-1.8-1.4-3.2-3.2-3.2l0,0
					c-0.6,0-1.1-0.5-1.1-1.1v-6.5c0-0.6,0.5-1.1,1.1-1.1l0,0c1.8,0,3.2-1.4,3.2-3.2V11.6c0-2.4-1.9-4.3-4.3-4.3s-4.3,1.9-4.3,4.3
					v6.5c0,1.8,1.4,3.2,3.2,3.2c0.6,0,1.1-0.5,1.1-1.1s-0.5-1.1-1.1-1.1S18,18.6,18,18v-6.5c0-1.2,1-2.2,2.2-2.2s2.2,1,2.2,2.2v12.9
					c0,0.6-0.5,1.1-1.1,1.1l0,0c-1.8,0-3.2,1.4-3.2,3.2v6.5c0,1.8,1.4,3.2,3.2,3.2l0,0c0.6,0,1.1,0.5,1.1,1.1V46l0,0
					c0,1.4,0.9,2.6,2.2,3v16.5l0,0l0,0c0,1.6,0.9,3,2.2,3.7v0.6l0,0c0,2.4,1.9,4.3,4.3,4.3h8.6c2.4,0,4.3-1.9,4.3-4.3l0,0v-0.6
					c1.3-0.7,2.2-2.1,2.2-3.7l0,0l0,0V49.2c0.9-0.3,1.6-1.1,2-2h6.6l0,0l0,0c2.4,0,4.3-1.9,4.3-4.3l0,0V21.3l0,0
					C58.9,19,57,17,54.5,17z M41.7,69.8c0,1.2-1,2.2-2.2,2.2h-8.6c-1.2,0-2.2-1-2.2-2.2l0,0H41.7L41.7,69.8z M56.8,21.3v21.5l0,0
					c0,1.2-1,2.2-2.2,2.2l0,0l0,0h-6.5v-5.4l0,0c0-0.6,0.5-1.1,1.1-1.1l0,0c1.8,0,3.2-1.4,3.2-3.2l0,0v-6.5c0-1.8-1.4-3.2-3.2-3.2
					l0,0c-0.6,0-1.1-0.5-1.1-1.1l0,0l0,0c0-2.4-1.9-4.3-4.3-4.3H30.9c-1.2,0-2.2-1-2.2-2.2l0,0V5.2c0-1.2,1-2.2,2.2-2.2l0,0
					c1.2,0,2.2,1,2.2,2.2l0,0v6.5c0,1.8,1.4,3.2,3.2,3.2s3.2-1.4,3.2-3.2V9.5c0-0.6,0.5-1.1,1.1-1.1s1.1,0.5,1.1,1.1l0,0V16l0,0
					c0,1.8,1.4,3.2,3.2,3.2h9.7C55.8,19.2,56.8,20.2,56.8,21.3L56.8,21.3z"/>
				<path d="M39.5,61.2c0.6,0,1.1-0.5,1.1-1.1S40,59,39.5,59c-1.8,0-3.2,1.4-3.2,3.2c0,1.8,1.4,3.2,3.2,3.2c0.6,0,1.1-0.5,1.1-1.1
					s-0.5-1.1-1.1-1.1s-1.1-0.5-1.1-1.1C38.4,61.7,38.9,61.2,39.5,61.2z"/>
				<path d="M30.9,63.4c-0.6,0-1.1,0.5-1.1,1.1s0.5,1.1,1.1,1.1c1.8,0,3.2-1.4,3.2-3.2c0-1.8-1.4-3.2-3.2-3.2
					c-0.6,0-1.1,0.5-1.1,1.1s0.5,1.1,1.1,1.1s1.1,0.5,1.1,1.1C32,62.9,31.5,63.4,30.9,63.4z"/>
			</g>
		</g>
	</g>
	<g class="st1">
		<g>
			<g>
				<path d="M47.1,38.6c1.8,0,3.2-1.4,3.2-3.2s-1.4-3.2-3.2-3.2h-4.3c-1.8,0-3.2,1.4-3.2,3.2v15.1c0,1.8,1.4,3.2,3.2,3.2l0,0
					c1.8,0,3.2-1.4,3.2-3.2l0,0l0,0c0-0.6-0.5-1.1-1.1-1.1s-1.1,0.5-1.1,1.1l0,0l0,0c0,0.6-0.5,1.1-1.1,1.1l0,0
					c-0.6,0-1.1-0.5-1.1-1.1V35.3c0-0.6,0.5-1.1,1.1-1.1H44c-0.1,0.3-0.2,0.7-0.2,1.1C43.9,37.1,45.3,38.6,47.1,38.6z M47.1,34.3
					c0.6,0,1.1,0.5,1.1,1.1s-0.5,1.1-1.1,1.1S46,36,46,35.4C46,34.8,46.5,34.3,47.1,34.3z"/>
				<path d="M32,53.7L32,53.7c1.8,0,3.2-1.4,3.2-3.2l0,0V35.3c0-1.8-1.4-3.2-3.2-3.2h-4.3c-1.8,0-3.2,1.4-3.2,3.2s1.4,3.2,3.2,3.2
					s3.2-1.4,3.2-3.2c0-0.4-0.1-0.7-0.2-1.1H32c0.6,0,1.1,0.5,1.1,1.1v15.1c0,0.6-0.5,1.1-1.1,1.1l0,0c-0.6,0-1.1-0.5-1.1-1.1l0,0
					c0-0.6-0.5-1.1-1.1-1.1s-1.1,0.5-1.1,1.1l0,0l0,0C28.8,52.2,30.2,53.7,32,53.7z M27.7,36.4c-0.6,0-1.1-0.5-1.1-1.1
					s0.5-1.1,1.1-1.1s1.1,0.5,1.1,1.1S28.3,36.4,27.7,36.4z"/>
				<path d="M43.8,30c0.6,0,1.1-0.5,1.1-1.1s-0.5-1.1-1.1-1.1l0,0H30.9l0,0c-0.6,0-1.1,0.5-1.1,1.1s0.5,1.1,1.1,1.1l0,0H43.8
					L43.8,30z"/>
				<path d="M62.2,20.3H51.4c-2.4,0-4.3,1.9-4.3,4.3l0,0l0,0v2.2l0,0c0,2.4,1.9,4.3,4.3,4.3l0,0c0.6,0,1.1,0.5,1.1,1.1v6.5
					c0,0.6-0.5,1.1-1.1,1.1c-1.8,0-3.2,1.4-3.2,3.2v8.5c0,0.6-0.5,1.1-1.1,1.1l0,0c-0.6,0-1.1,0.5-1.1,1.1l0,0v3.2l0,0l0,0
					c0,1.2-1,2.2-2.2,2.2l0,0h-3.2l0,0c-1.2,0-2.2-1-2.2-2.2l0,0c0-0.6-0.5-1.1-1.1-1.1s-1.1,0.5-1.1,1.1l0,0l0,0l0,0
					c0,1.2-1,2.2-2.2,2.2h-3.2l0,0c-1.2,0-2.2-1-2.2-2.2l0,0l0,0v-3.2c0-0.6-0.5-1.1-1.1-1.1l0,0c-0.6,0-1.1-0.5-1.1-1.1v-8.6l0,0
					c0-1.8-1.4-3.2-3.2-3.2c-0.6,0-1.1-0.5-1.1-1.1v-6.5c0-0.6,0.5-1.1,1.1-1.1l0,0c2.4,0,4.3-1.9,4.3-4.3l0,0v-2.2l0,0l0,0
					c0-2.4-1.9-4.3-4.3-4.3H12.6c-1.8,0-3.2,1.4-3.2,3.2l0,0c0,1.8,1.4,3.2,3.2,3.2h9.6l0,0l0,0c0.6,0,1.1-0.5,1.1-1.1
					s-0.5-1.1-1.1-1.1l0,0l0,0h-9.6c-0.6,0-1.1-0.5-1.1-1.1l0,0c0-0.6,0.5-1.1,1.1-1.1h10.8c1.2,0,2.2,1,2.2,2.2l0,0l0,0v2.2
					c0,1.2-1,2.2-2.2,2.2l0,0l0,0c-1.8,0-3.2,1.4-3.2,3.2v6.5c0,1.8,1.4,3.2,3.2,3.2c0.6,0,1.1,0.5,1.1,1.1l0,0v8.7
					c0,1.4,0.9,2.6,2.2,3v2.3l0,0c0,2.4,1.9,4.3,4.3,4.3c0,2.4,1.9,4.3,4.3,4.3l0,0h4.3l0,0c2.4,0,4.3-1.9,4.3-4.3l0,0l0,0
					c2.4,0,4.3-1.9,4.3-4.3l0,0l0,0v-2.3c1.3-0.4,2.2-1.6,2.2-3v-8.6c0-0.6,0.5-1.1,1.1-1.1c1.8,0,3.2-1.4,3.2-3.2v-6.5
					c0-1.8-1.4-3.2-3.2-3.2l0,0c-1.2,0-2.2-1-2.2-2.2l0,0v-2.2l0,0l0,0c0-1.2,1-2.2,2.2-2.2h10.8c0.6,0,1.1,0.5,1.1,1.1l0,0
					c0,0.6-0.5,1.1-1.1,1.1H51.9c-0.6,0-1.1,0.5-1.1,1.1s0.5,1.1,1.1,1.1H62c1.8,0,3.2-1.4,3.2-3.2l0,0C65.4,21.7,64,20.3,62.2,20.3
					z M39.5,63.3L39.5,63.3L39.5,63.3h-4.3l0,0c-1.2,0-2.2-1-2.2-2.1H34l0,0l0,0l0,0l0,0c1.3,0,2.4-0.6,3.2-1.5
					c0.8,0.9,1.9,1.5,3.2,1.5l0,0h1.1C41.7,62.4,40.7,63.3,39.5,63.3z"/>
				<path d="M16.9,16L16.9,16h6.5c3.6,0,6.5,2.9,6.5,6.5l0,0c0,1.8,1.4,3.2,3.2,3.2l0,0c1.8,0,3.2-1.4,3.2-3.2l0,0l0,0l0,0l0,0l0,0
					l0,0c0-7.2-5.8-13-12.9-13l0,0h-6.5c-1.8,0-3.2,1.4-3.2,3.2C13.7,14.5,15.2,16,16.9,16z M16.9,11.7h6.5l0,0l0,0
					c5.9,0,10.8,4.8,10.8,10.8l0,0l0,0c0,0.6-0.5,1.1-1.1,1.1l0,0c-0.6,0-1.1-0.5-1.1-1.1l0,0c0-4.8-3.9-8.6-8.6-8.6h-6.5l0,0
					c-0.6,0-1.1-0.5-1.1-1.1C15.9,12.1,16.3,11.7,16.9,11.7z"/>
				<path d="M41.7,25.7L41.7,25.7c1.8,0,3.2-1.4,3.2-3.2l0,0c0-3.6,2.9-6.5,6.5-6.5h6.5l0,0c1.8,0,3.2-1.4,3.2-3.2
					c0-1.8-1.4-3.2-3.2-3.2h-6.5c-7.1,0-12.9,5.8-12.9,12.9l0,0l0,0l0,0l0,0l0,0C38.5,24.2,39.9,25.7,41.7,25.7z M40.6,22.4
					L40.6,22.4c0-6,4.8-10.8,10.8-10.8l0,0h6.5c0.6,0,1.1,0.5,1.1,1.1s-0.5,1.1-1.1,1.1l0,0h-6.5c-4.8,0-8.6,3.9-8.6,8.6l0,0
					c0,0.6-0.5,1.1-1.1,1.1l0,0C41.1,23.5,40.6,23,40.6,22.4L40.6,22.4z"/>
			</g>
		</g>
	</g>
	<g class="st1">
		<g>
			<g>
				<path d="M40.5,48.6H34c-0.6,0-1.1,0.5-1.1,1.1s0.5,1.1,1.1,1.1h6.5c0.6,0,1.1-0.5,1.1-1.1C41.6,49.1,41.1,48.6,40.5,48.6z"/>
				<path d="M36.5,41.9L36.5,41.9c0.3,0.3,0.9,0.4,1.3,0.2c0.1,0,0.2-0.1,0.3-0.2l0,0l1.5-1.5c0.4-0.4,0.4-1.1,0-1.5s-1.1-0.4-1.5,0
					l-0.8,0.8l-0.8-0.8c-0.4-0.4-1.1-0.4-1.5,0s-0.4,1.1,0,1.5L36.5,41.9z"/>
				<path d="M14.4,28.1c0.3,0,0.6-0.1,0.8-0.3c0.4-0.4,0.4-1.1,0-1.5C15,26.1,14.7,26,14.4,26c-1.8,0-3.2,1.4-3.2,3.2
					s1.4,3.2,3.2,3.2c0.3,0,0.6-0.1,0.8-0.3c0.4-0.4,0.4-1.1,0-1.5c-0.2-0.2-0.5-0.3-0.8-0.3c-0.6,0-1.1-0.5-1.1-1.1
					C13.4,28.6,13.8,28.1,14.4,28.1z"/>
				<path d="M60.4,26c-0.3,0-0.6,0.1-0.8,0.3c-0.4,0.4-0.4,1.1,0,1.5c0.2,0.2,0.5,0.3,0.8,0.3c0.6,0,1.1,0.5,1.1,1.1
					s-0.5,1.1-1.1,1.1c-0.3,0-0.6,0.1-0.8,0.3c-0.4,0.4-0.4,1.1,0,1.5c0.2,0.2,0.5,0.3,0.8,0.3c1.8,0,3.2-1.4,3.2-3.2
					C63.5,27.4,62,26,60.4,26z"/>
				<path d="M60.4,21.7L60.4,21.7L60.4,21.7H46l0,0c-0.6,0-1.1-0.5-1.1-1.1l0,0c0-1.8-1.4-3.2-3.2-3.2s-3.2,1.4-3.2,3.2l0,0
					c0,0.6-0.5,1.1-1.1,1.1s-1.1-0.5-1.1-1.1v-2.2l0,0c0-1.8-1.4-3.2-3.2-3.2s-3.2,1.4-3.2,3.2l0,0v2.2c0,0.6-0.5,1.1-1.1,1.1l0,0
					H14.4l0,0l0,0c-4.2,0-7.5,3.4-7.5,7.5c0,4.2,3.4,7.5,7.5,7.5l0,0l0,0l0,0c1.2,0,2.2,1,2.2,2.2l0,0v6.5c0,2.4,1.9,4.3,4.3,4.3
					l0,0h4.3c1,5.8,6,10.1,12.1,10.1s11.1-4.4,12.1-10.1h4.5l0,0c2.4,0,4.3-1.9,4.3-4.3v-6.5l0,0c0-1.2,1-2.2,2.2-2.2l0,0l0,0
					c4.2,0,7.5-3.4,7.5-7.5C67.9,25,64.4,21.7,60.4,21.7z M37.3,57.6c-5.6,0-10.1-4.5-10.1-10.1c0-1.2,1-2.2,2.2-2.2l0,0l0,0
					c1.8,0,3.2-1.4,3.2-3.2v-8.6c0-1.8-1.4-3.2-3.2-3.2s-3.2,1.4-3.2,3.2s1.4,3.2,3.2,3.2c0.4,0,0.7-0.1,1.1-0.2v5.6
					c0,0.6-0.5,1.1-1.1,1.1l0,0c0-1.8-1.4-3.2-3.2-3.2l0,0C25,40,24,39,24,37.8l0,0v-6.5c0-1.2,1-2.2,2.2-2.2l0,0h6.5
					c1.2,0,2.2,1,2.2,2.2l0,0l0,0c0,1.2,0.6,2.2,1.5,2.7c0,0.3,0.1,0.5,0.3,0.7c0.4,0.4,1.1,0.4,1.5,0c0.2-0.2,0.3-0.5,0.3-0.7
					c0.9-0.6,1.5-1.6,1.5-2.7l0,0l0,0c0-1.2,1-2.2,2.2-2.2h6.5l0,0c1.2,0,2.2,1,2.2,2.2v6.5l0,0c0,1.2-1,2.2-2.2,2.2l0,0
					c-1.8,0-3.2,1.4-3.2,3.2l0,0l0,0c-0.6,0-1.1-0.5-1.1-1.1v-5.6c0.3,0.1,0.7,0.2,1.1,0.2c1.8,0,3.2-1.4,3.2-3.2s-1.4-3.2-3.2-3.2
					s-3.2,1.4-3.2,3.2v8.6c0,1.8,1.4,3.2,3.2,3.2l0,0c1.2,0,2.2,1,2.2,2.2l0,0l0,0C47.4,53.1,42.9,57.6,37.3,57.6z M30.4,33.5
					c0,0.6-0.5,1.1-1.1,1.1s-1.1-0.5-1.1-1.1s0.5-1.1,1.1-1.1S30.4,32.9,30.4,33.5z M44.2,33.5c0-0.6,0.5-1.1,1.1-1.1
					s1.1,0.5,1.1,1.1s-0.5,1.1-1.1,1.1S44.2,34.1,44.2,33.5z M60.4,34.6L60.4,34.6L60.4,34.6c-2.4,0-4.3,1.9-4.3,4.3l0,0v6.5
					c0,1.2-1,2.2-2.2,2.2l0,0h-4.3c0-1.6-0.9-3-2.2-3.7v-0.6l0,0c0-0.6,0.5-1.1,1.1-1.1l0,0c2.4,0,4.3-1.9,4.3-4.3l0,0v-6.5
					c0-2.4-1.9-4.3-4.3-4.3l0,0H42c-2.4,0-4.3,1.9-4.3,4.3l0,0c0,0.4-0.2,0.7-0.4,0.9c-0.3-0.2-0.4-0.5-0.4-0.9l0,0
					c0-2.4-1.9-4.3-4.3-4.3h-6.5l0,0c-2.4,0-4.3,1.9-4.3,4.3v6.5l0,0c0,2.4,1.9,4.3,4.3,4.3l0,0c0.6,0,1.1,0.5,1.1,1.1v0.6
					C25.9,44.6,25,46,25,47.6h-4.1l0,0c-1.2,0-2.2-1-2.2-2.2v-6.5l0,0c0-2.4-1.9-4.3-4.3-4.3l0,0l0,0c-3,0-5.4-2.4-5.4-5.4
					s2.4-5.4,5.4-5.4l0,0l0,0h14.3l0,0c1.8,0,3.2-1.4,3.2-3.2v-2.2l0,0c0-0.6,0.5-1.1,1.1-1.1s1.1,0.5,1.1,1.1l0,0v2.2
					c0,1.8,1.4,3.2,3.2,3.2s3.2-1.4,3.2-3.2l0,0c0-0.6,0.5-1.1,1.1-1.1s1.1,0.5,1.1,1.1l0,0c0,1.8,1.4,3.2,3.2,3.2l0,0h14.5l0,0l0,0
					c3,0,5.4,2.4,5.4,5.4C65.7,32.2,63.3,34.6,60.4,34.6z"/>
			</g>
		</g>
	</g>
	<g class="st1">
		<g>
			<g>
				<path d="M56.7,66.3L56.7,66.3L56.7,66.3c-1.2,0-2.2-1-2.2-2.2V35.4l0,0c0-2.4-1.9-4.3-4.3-4.3c-0.6,0-1.1,0.5-1.1,1.1
					s0.5,1.1,1.1,1.1l0,0l0,0c1.2,0,2.2,1,2.2,2.2v28.8l0,0c0,2.4,1.9,4.3,4.3,4.3c0.6,0,1.1-0.5,1.1-1.1
					C57.8,66.8,57.3,66.3,56.7,66.3z"/>
				<path d="M24.5,31.1c-2.4,0-4.3,1.9-4.3,4.3l0,0v28.8c0,1.2-1,2.2-2.2,2.2l0,0l0,0c-0.6,0-1.1,0.5-1.1,1.1s0.5,1.1,1.1,1.1
					c2.4,0,4.3-1.9,4.3-4.3l0,0V35.4c0-1.2,1-2.2,2.2-2.2l0,0l0,0c0.6,0,1.1-0.5,1.1-1.1C25.6,31.6,25.1,31.1,24.5,31.1z"/>
				<path d="M45,54.7L45,54.7c0-0.6-0.5-1.1-1.1-1.1s-1.1,0.5-1.1,1.1v19.4c0,0.6-0.5,1.1-1.1,1.1s-1.1-0.5-1.1-1.1l0,0v-13l0,0
					c0-1.8-1.4-3.2-3.2-3.2s-3.2,1.4-3.2,3.2v8.6l0,0c0,0.6-0.5,1.1-1.1,1.1S32,70.3,32,69.7l0,0v-15l0,0c0-0.6-0.5-1.1-1.1-1.1
					s-1.1,0.5-1.1,1.1l0,0v15.1c0,1.8,1.4,3.2,3.2,3.2s3.4-1.5,3.4-3.2v-8.6l0,0c0-0.6,0.5-1.1,1.1-1.1s1.1,0.5,1.1,1.1l0,0v12.9
					l0,0c0,1.8,1.4,3.2,3.2,3.2s3.2-1.4,3.2-3.2l0,0V54.7z"/>
				<path d="M51.5,14.9c0-2.4-1.9-4.3-4.3-4.3l0,0l0,0l0,0c-2.4,0-4.3,1.9-4.3,4.3l0,0v4.3l0,0c0,0.6-0.5,1.1-1.1,1.1
					s-1.1-0.5-1.1-1.1l0,0V6.3c0-1.8-1.4-3.2-3.2-3.2s-3.2,1.4-3.2,3.2l0,0v8.6c0,0.6-0.5,1.1-1.1,1.1s-1.1-0.5-1.1-1.1V2
					c0-2.4-1.9-4.3-4.3-4.3l0,0l0,0l0,0c-2.4,0-4.3,1.9-4.3,4.3v23.7l0,0l0,0l0,0c0,2.4,1.9,4.3,4.3,4.3l0,0h4.3
					c1.2,0,2.2,1,2.2,2.2l0,0v2.2c0,1.8,1.4,3.2,3.2,3.2s3.2-1.4,3.2-3.2l0,0v-2.2l0,0c0-1.2,1-2.2,2.2-2.2l0,0l0,0h4.3l0,0
					c2.4,0,4.3-1.9,4.3-4.3l0,0L51.5,14.9L51.5,14.9z M49.3,25.7c0,1.2-1,2.2-2.2,2.2h-4.3l0,0l0,0l0,0c-2.4,0-4.3,1.9-4.3,4.3l0,0
					v2.2l0,0c0,0.6-0.5,1.1-1.1,1.1s-1-0.6-1-1.2l0,0v-2.2l0,0c0-2.4-1.9-4.3-4.3-4.3l0,0h-4.3c-1.2,0-2.2-1-2.2-2.2l0,0l0,0V2
					c0-1.2,1-2.2,2.2-2.2l0,0C29-0.2,30,0.8,30,2v12.9c0,1.8,1.4,3.2,3.2,3.2s3.2-1.4,3.2-3.2l0,0V6.3l0,0c0-0.6,0.5-1.1,1.1-1.1
					s1.1,0.5,1.1,1.1l0,0v12.9l0,0c0,1.8,1.4,3.2,3.2,3.2S45,21,45,19.2v-4.3l0,0c0-1.2,1-2.2,2.2-2.2l0,0c1.2,0,2.2,1,2.2,2.2l0,0
					L49.3,25.7L49.3,25.7z"/>
				<path d="M46.1,35.3c-1.8,0-3.2,1.4-3.2,3.2v2.7c-0.6-0.4-1.4-0.6-2.2-0.6l0,0h-6.5c-0.8,0-1.5,0.2-2.2,0.6v-2.7
					c0-1.8-1.4-3.2-3.2-3.2s-3.2,1.4-3.2,3.2s1.4,3.2,3.2,3.2c0.4,0,0.7-0.1,1.1-0.2v3.3l0,0v3.3c0,2.4,1.9,4.3,4.3,4.3l0,0l0,0h0.2
					l0,0c0.4,1.3,1.6,2.2,3,2.2s2.6-0.9,3-2.2h0.2l0,0c2.4,0,4.3-1.9,4.3-4.3l0,0v-1.9V45v-0.1l0,0l0,0v-3.4
					c0.3,0.1,0.7,0.2,1.1,0.2c1.8,0,3.2-1.4,3.2-3.2C49.3,36.8,47.9,35.3,46.1,35.3z M28.8,39.6c-0.6,0-1.1-0.5-1.1-1.1
					s0.5-1.1,1.1-1.1s1.1,0.5,1.1,1.1S29.4,39.6,28.8,39.6z M34.2,50.4L34.2,50.4c-1.2,0-2.2-1-2.2-2.2V48c0.3,0.1,0.7,0.2,1.1,0.2
					l0,0c0.6,0,1.1,0.5,1.1,1.1l0,0C34.1,49.3,34.1,50.4,34.2,50.4z M38.5,49.3L38.5,49.3v2.2c0,0.6-0.5,1.1-1.1,1.1
					c-0.5-0.1-1-0.6-1-1.1v-2.2l0,0c0-1.8-1.4-3.2-3.2-3.2l0,0c-0.6,0-1.1-0.5-1.1-1.1l0,0l0,0c0-1.2,1-2.2,2.2-2.2h6.5l0,0
					c1.2,0,2.2,1,2.2,2.2l0,0c0,0.6-0.5,1.1-1.1,1.1l0,0C40,46.1,38.5,47.5,38.5,49.3z M40.7,50.4v-1.1l0,0c0-0.6,0.5-1.1,1.1-1.1
					l0,0c0.4,0,0.7-0.1,1.1-0.2v0.2l0,0C42.8,49.4,41.9,50.4,40.7,50.4z M46.1,39.6c-0.6,0-1.1-0.5-1.1-1.1s0.5-1.1,1.1-1.1
					s1.1,0.5,1.1,1.1C47.1,39.1,46.7,39.6,46.1,39.6z"/>
			</g>
		</g>
	</g>
	<g class="st1">
		<g>
			<g>
				<path d="M68.6,17.8L68.6,17.8h-4.3c-0.6,0-1.1,0.5-1.1,1.1s0.5,1.1,1.1,1.1h4.3l0,0c1.2,0,2.2,1,2.2,2.2l0,0v12.9
					c0,1.2-1,2.2-2.2,2.2l0,0h-4.3c-1.2,0-2.2-1-2.2-2.2l0,0v-13l0,0l0,0c0-2.4-1.9-4.3-4.3-4.3H16.9c-2.4,0-4.3,1.9-4.3,4.3l0,0
					l0,0V35l0,0c0,1.2-1,2.2-2.2,2.2H6.1l0,0c-1.2,0-2.2-1-2.2-2.2V22.1l0,0c0-1.2,1-2.2,2.2-2.2l0,0h4.3c0.6,0,1.1-0.5,1.1-1.1
					s-0.5-1.1-1.1-1.1H6.1l0,0c-2.4,0-4.3,1.9-4.3,4.3l0,0v12.9c0,2.4,1.9,4.3,4.3,4.3l0,0h4.3c2.4,0,4.3-1.9,4.3-4.3l0,0V22.1l0,0
					l0,0c0-1.2,1-2.2,2.2-2.2h40.9c1.2,0,2.2,1,2.2,2.2l0,0l0,0V35l0,0c0,2.4,1.9,4.3,4.3,4.3h4.3l0,0c2.4,0,4.3-1.9,4.3-4.3V22.1
					l0,0C72.9,19.8,70.9,17.8,68.6,17.8z"/>
				<path d="M56.8,22.2c-0.6,0-1.1,0.5-1.1,1.1v19.4l0,0c0,1.2-1,2.2-2.2,2.2h-4.3c-0.6,0-1.1,0.5-1.1,1.1s0.5,1.1,1.1,1.1h4.3
					c2.4,0,4.3-1.9,4.3-4.3l0,0V23.2C57.9,22.6,57.4,22.2,56.8,22.2z"/>
				<path d="M25.6,44.8h-4.3c-1.2,0-2.2-1-2.2-2.2l0,0V23.2c0-0.6-0.5-1.1-1.1-1.1s-1.1,0.5-1.1,1.1v19.4l0,0c0,2.4,1.9,4.3,4.3,4.3
					h4.3c0.6,0,1.1-0.5,1.1-1.1C26.6,45.3,26.1,44.8,25.6,44.8z"/>
				<path d="M53.5,30.2c0-2.4-1.9-4.3-4.3-4.3c-2.4,0-4.3,1.9-4.3,4.3v23.7l0,0c0,0.6-0.5,1.1-1.1,1.1l0,0c-0.6,0-1.1-0.5-1.1-1.1
					v-2.2v-2.2c0-1.8-1.4-3.2-3.2-3.2h-1.1v-2.1l4.3-4.3c0.4-0.4,0.4-1.1,0-1.5c-0.2-0.2-0.4-0.3-0.7-0.3l0,0h-9.3
					c-0.3,0-0.6,0.1-0.8,0.3c-0.4,0.4-0.4,1.1,0,1.5l4.3,4.3v2.1h-1.1c-1.8,0-3.2,1.4-3.2,3.2v2.2v2.2c0,0.6-0.5,1.1-1.1,1.1l0,0
					c-0.6,0-1.1-0.5-1.1-1.1V30.2c0-2.4-1.9-4.3-4.3-4.3c-2.4,0-4.3,1.9-4.3,4.3c0,2.4,1.9,4.3,4.3,4.3c0.8,0,1.5-0.2,2.2-0.6v20
					l0,0c0,1.8,1.4,3.2,3.2,3.2l0,0c1.8,0,3.2-1.4,3.2-3.2h6.5c0,1.8,1.4,3.2,3.2,3.2l0,0c1.8,0,3.2-1.4,3.2-3.2l0,0v-20
					c0.6,0.4,1.4,0.6,2.2,0.6C51.5,34.6,53.5,32.6,53.5,30.2z M25.6,32.4c-1.2,0-2.2-1-2.2-2.2s1-2.2,2.2-2.2s2.2,1,2.2,2.2
					C27.7,31.4,26.7,32.4,25.6,32.4z M35.4,40.2h4l-2,2L35.4,40.2z M40.6,51.8h-6.5v-2.2l0,0c0-0.6,0.5-1.1,1.1-1.1h4.3
					c0.6,0,1.1,0.5,1.1,1.1C40.5,49.6,40.5,51.8,40.6,51.8z M47.1,30.2c0-1.2,1-2.2,2.2-2.2s2.2,1,2.2,2.2s-1,2.2-2.2,2.2
					S47.1,31.4,47.1,30.2z"/>
			</g>
		</g>
	</g>
	<g class="st1">
		<g>
			<g>
				<path d="M29.9,41.3c0,1.8,1.4,3.2,3.2,3.2s3.2-1.4,3.2-3.2s-1.4-3.2-3.2-3.2S29.9,39.5,29.9,41.3z M34.2,41.3
					c0,0.6-0.5,1.1-1.1,1.1S32,41.9,32,41.3s0.5-1.1,1.1-1.1S34.2,40.7,34.2,41.3z"/>
				<path d="M41.7,38c-1.8,0-3.2,1.4-3.2,3.2s1.4,3.2,3.2,3.2s3.2-1.4,3.2-3.2S43.5,38,41.7,38z M41.7,42.3c-0.6,0-1.1-0.5-1.1-1.1
					s0.5-1.1,1.1-1.1s1.1,0.5,1.1,1.1S42.3,42.3,41.7,42.3z"/>
				<path d="M24.5,37c0.4,0,0.7-0.1,1.1-0.2v7.7l0,0c0,2.4,1.9,4.3,4.3,4.3l0,0l0,0c0,2.4,1.9,4.3,4.3,4.3h6.5l0,0l0,0
					c2.4,0,4.3-1.9,4.3-4.3l0,0c2.4,0,4.3-1.9,4.3-4.3v-7.7c0.3,0.1,0.7,0.2,1.1,0.2c1.8,0,3.2-1.4,3.2-3.2s-1.4-3.2-3.2-3.2
					s-3.2,1.4-3.2,3.2v10.7c0,1.2-1,2.2-2.2,2.2l0,0H29.9c-1.2,0-2.2-1-2.2-2.2l0,0V33.8c0-1.8-1.4-3.2-3.2-3.2s-3.2,1.4-3.2,3.2
					C21.2,35.6,22.7,37,24.5,37z M50.3,32.7c0.6,0,1.1,0.5,1.1,1.1s-0.5,1.1-1.1,1.1s-1.1-0.5-1.1-1.1
					C49.2,33.2,49.7,32.7,50.3,32.7z M32,48.9h10.8c0,1.2-1,2.2-2.2,2.2l0,0l0,0H34C33,51,32,50,32,48.9L32,48.9z M24.5,32.7
					c0.6,0,1.1,0.5,1.1,1.1s-0.5,1.1-1.1,1.1s-1.1-0.5-1.1-1.1C23.4,33.2,23.9,32.7,24.5,32.7z"/>
				<path d="M66.4,17.5L66.4,17.5H60c-2.4,0-4.3,1.9-4.3,4.3l0,0l0,0v31.3l0,0c0,1.2-1,2.2-2.2,2.2l0,0H21.2c-1.2,0-2.2-1-2.2-2.2
					l0,0V21.9l0,0c0-2.4-1.9-4.3-4.3-4.3H8.2l0,0c-2.4,0-4.3,1.9-4.3,4.3v4.3l0,0c0,2.4,1.9,4.3,4.3,4.3h4.3l0,0
					c0.6,0,1.1-0.5,1.1-1.1s-0.5-1.1-1.1-1.1l0,0H8.2c-1.2,0-2.2-1-2.2-2.2l0,0v-4.3c0-1.2,1-2.2,2.2-2.2l0,0h6.5
					c1.2,0,2.2,1,2.2,2.2l0,0V53l0,0c0,2.4,1.9,4.3,4.3,4.3h32.3l0,0c2.4,0,4.3-1.9,4.3-4.3l0,0V21.8l0,0l0,0c0-1.2,1-2.2,2.2-2.2
					h6.5l0,0c1.2,0,2.2,1,2.2,2.2v4.3l0,0c0,1.2-1,2.2-2.2,2.2h-4.3c-0.6,0-1.1,0.5-1.1,1.1s0.5,1.1,1.1,1.1h4.3
					c2.4,0,4.3-1.9,4.3-4.3l0,0v-4.3C70.8,19.5,68.9,17.5,66.4,17.5z"/>
				<path d="M43.9,32.7h-13c-0.6,0-1.1,0.5-1.1,1.1s0.5,1.1,1.1,1.1h12.9c0.6,0,1.1-0.5,1.1-1.1S44.5,32.7,43.9,32.7z"/>
				<path d="M22.3,24.1L22.3,24.1L22.3,24.1h30.2l0,0c0.6,0,1.1-0.5,1.1-1.1s-0.5-1.1-1.1-1.1l0,0H22.3l0,0c-0.6,0-1.1,0.5-1.1,1.1
					C21.2,23.6,21.7,24.1,22.3,24.1z"/>
			</g>
		</g>
	</g>
	<g class="st1">
		<g>
			<path d="M54.2,16.3c-4.9,0-8.9,4-8.9,8.9l0,0c0,1.1-0.9,2-2,2H31.5c-1.1,0-2-0.9-2-2l0,0c0-4.9-4-8.9-8.9-8.9s-8.9,4-8.9,8.9
				s4,8.9,8.9,8.9c1.1,0,2,0.9,2,2V46c0,2.2,1.8,3.9,3.9,3.9h3.9v2c0,2.2,1.8,3.9,3.9,3.9c0,1.6,1.3,3,3,3c1.6,0,3-1.3,3-3
				c2.2,0,3.9-1.8,3.9-3.9v-2h3.9l0,0c2.2,0,3.9-1.8,3.9-3.9v-9.9c0-1.1,0.9-2,2-2c4.9,0,8.9-4,8.9-8.9S59,16.3,54.2,16.3z
				 M38.4,55.8L38.4,55.8c0,0.5-0.4,1-1,1s-1-0.4-1-1l0,0v-0.5c0.4-0.2,0.7-0.5,1-0.8c0.3,0.3,0.6,0.6,1,0.8V55.8z M54.2,32.1
				c-2.2,0-3.9,1.8-3.9,3.9v9.9c0,1.1-0.9,2-2,2l0,0h-3.9v-7.1c0.3,0.1,0.6,0.2,1,0.2c1.6,0,3-1.3,3-3c0-1.6-1.3-3-3-3
				c-1.6,0-3,1.3-3,3v13.8c0,1.1-0.9,2-2,2s-2-0.9-2-2l0,0v-0.2c1.1-0.4,2-1.5,2-2.8l0,0l0,0c0-0.5-0.4-1-1-1s-1,0.4-1,1s-0.4,1-1,1
				s-1-0.4-1-1s-0.4-1-1-1s-1,0.4-1,1l0,0l0,0c0,1.3,0.8,2.4,2,2.8v0.2c0,1.1-0.9,2-2,2s-2-0.9-2-2V38c0-1.6-1.3-3-3-3
				c-1.6,0-3,1.3-3,3c0,1.6,1.3,3,3,3c0.3,0,0.7-0.1,1-0.2v7.1h-3.9c-1.1,0-2-0.9-2-2V36c0-2.2-1.8-3.9-3.9-3.9l0,0
				c-3.8,0-6.9-3.1-6.9-6.9s3.1-6.9,6.9-6.9s6.9,3.1,6.9,6.9l0,0c0,2.2,1.8,3.9,3.9,3.9h11.8c2.2,0,3.9-1.8,3.9-3.9l0,0
				c0-3.8,3.1-6.9,6.9-6.9c3.8,0,6.9,3.1,6.9,6.9S58,32.1,54.2,32.1z M44.3,38c0-0.5,0.4-1,1-1c0.5,0,1,0.4,1,1s-0.4,1-1,1
				S44.3,38.5,44.3,38z M30.5,38c0,0.5-0.4,1-1,1s-1-0.4-1-1s0.4-1,1-1S30.5,37.4,30.5,38z"/>
			<path d="M20.6,20.2c-2.7,0-4.9,2.2-4.9,4.9s2.2,4.9,4.9,4.9s4.9-2.2,4.9-4.9S23.3,20.2,20.6,20.2z M20.6,28.1c-1.6,0-3-1.3-3-3
				c0-1.6,1.3-3,3-3c1.6,0,3,1.3,3,3S22.3,28.1,20.6,28.1z"/>
			<path d="M54.2,20.2c-2.7,0-4.9,2.2-4.9,4.9s2.2,4.9,4.9,4.9c2.7,0,4.9-2.2,4.9-4.9S56.9,20.2,54.2,20.2z M54.2,28.1
				c-1.6,0-3-1.3-3-3c0-1.6,1.3-3,3-3c1.6,0,3,1.3,3,3C57,26.8,55.8,28.1,54.2,28.1z"/>
		</g>
	</g>
</g>
<g class="st0">
	<g class="st1">
		<g>
			<path d="M54.9,36.4c0-0.5-0.4-1-1-1h-33c-0.5,0-1,0.4-1,1s0.4,1,1,1h33C54.4,37.4,54.9,37,54.9,36.4z"/>
			<path d="M44.9,54h-15c-0.5,0-1,0.4-1,1c0,0.5,0.4,1,1,1h14.9c0.5,0,1-0.4,1-1S45.4,54,44.9,54z"/>
			<path d="M29.9,61.9L29.9,61.9c-0.5,0-1,0.4-1,1s0.4,1,1,1l0,0c1.6,0,3-1.3,3-3c0-1.6-1.3-3-3-3l0,0c-0.5,0-1,0.4-1,1s0.4,1,1,1
				l0,0c0.5,0,1,0.4,1,1S30.5,61.9,29.9,61.9z"/>
			<path d="M44.9,59.9L44.9,59.9c0.5,0,1-0.5,1-1s-0.4-1-1-1c-0.1,0-0.2,0-0.3,0c-1.5,0.1-2.7,1.4-2.7,2.9c0,1.6,1.3,3,3,3
				c0.5,0,1-0.4,1-1c0-0.5-0.4-1-1-1c-0.5,0-1-0.4-1-1S44.3,59.9,44.9,59.9z"/>
			<path d="M66.6,35.4h-5.8c-2.2,0-3.9,1.8-3.9,3.9v18.6c0,1.1-0.9,2-2,2h-5.1V46.1c0.5,0.2,1,0.4,1.6,0.4c2,0,3.5-1.6,3.5-3.5
				c0-2-1.6-3.5-3.5-3.5s-3.5,1.6-3.5,3.5v21c0,1.1-0.9,2-2,2H29c-1.1,0-2-0.9-2-2V43c0-2-1.6-3.5-3.5-3.5c-2,0-3.5,1.6-3.5,3.5
				c0,2,1.6,3.5,3.5,3.5c0.6,0,1.1-0.1,1.6-0.4v13.8H20c-1.1,0-2-0.9-2-2V39.4l0,0c0-2.2-1.8-3.9-3.9-3.9H8.2
				c-2.2,0-3.9,1.8-3.9,3.9s1.8,3.9,3.9,3.9H13l0,0c0.5,0,1-0.4,1-1s-0.4-1-1-1l0,0H8.2c-1.1,0-2-0.9-2-2s0.9-2,2-2H14
				c1.1,0,2,0.9,2,2v18.6c0,2.2,1.8,3.9,3.9,3.9H25v2c0,2.2,1.8,3.9,3.9,3.9h0.6c0,2.2,1.8,3.9,3.9,3.9l0,0h2h2h2h2l0,0
				c2.2,0,3.9-1.8,3.9-3.9l0,0H46c2.2,0,3.9-1.8,3.9-3.9v-2H55c2.2,0,3.9-1.8,3.9-3.9V39.4c0-1.1,0.9-2,2-2h5.8c1.1,0,2,0.9,2,2
				s-0.9,2-2,2h-4.8c-0.5,0-1,0.4-1,1s0.4,1,1,1h4.8c2.2,0,3.9-1.8,3.9-3.9S68.8,35.4,66.6,35.4z M51.4,41.4c0.9,0,1.6,0.7,1.6,1.6
				c0,0.9-0.7,1.6-1.6,1.6s-1.6-0.7-1.6-1.6C49.8,42.1,50.5,41.4,51.4,41.4z M23.4,44.5c-0.9,0-1.6-0.7-1.6-1.6
				c0-0.9,0.7-1.6,1.6-1.6c0.9,0,1.6,0.7,1.6,1.6S24.3,44.5,23.4,44.5z M43.3,67.9c0,1.1-0.9,2-2,2l0,0h-2h-2h-2h-2l0,0
				c-1.1,0-2-0.9-2-2H43.3L43.3,67.9z"/>
			<path d="M49.8,28.3c6.9-6.9,6.9-18,0-24.8c-0.4-0.4-1-0.4-1.4,0s-0.4,1,0,1.4c6.1,6.1,6.1,16,0,22c-6.1,6.1-16,6.1-22,0
				c-6.1-6.1-6.1-16,0-22l0,0c0.4-0.4,0.4-1,0-1.4s-1-0.4-1.4,0l0,0c-6.9,6.9-6.9,18,0,24.8C31.8,35.2,43,35.2,49.8,28.3z"/>
		</g>
	</g>
</g>
<g class="st0">
	<g class="st1">
		<g>
			<path d="M62,33.4L62,33.4c-0.5,0-1-0.4-1-1l0,0c0-2.2-1.8-3.9-3.9-3.9l0,0c-0.5,0-1-0.4-1-1l0,0c0-0.5,0.4-1,1-1l0,0
				c3.8,0,6.9-3.1,6.9-6.9s-3.1-6.9-6.9-6.9h-2c-3.8,0-6.9,3.1-6.9,6.9l0,0c0,0.5-0.4,1-1,1l0,0h-5.9l0,0c-0.5,0-1-0.4-1-1l0,0
				c0-1.6-1.3-3-3-3l0,0l0,0l0,0c-1.6,0-3,1.3-3,3l0,0c0,0.5-0.4,1-1,1l0,0h-5.9l0,0c-0.5,0-1-0.4-1-1l0,0l0,0
				c0-3.8-3.1-6.9-6.9-6.9h-2c-3.8,0-6.9,3.1-6.9,6.9s3.1,6.9,6.9,6.9l0,0c0.5,0,1,0.4,1,1l0,0c0,0.5-0.4,1-1,1l0,0
				c-2.2,0-3.9,1.8-3.9,3.9l0,0c0,0.5-0.4,1-1,1l0,0c-1.6,0-3,1.3-3,3v11.8l0,0c0,1.6,1.3,3,3,3l0,0c0.5,0,1,0.4,1,1l0,0
				c0,2.2,1.8,3.9,3.9,3.9l0,0h3.9l0,0c0.5,0,1-0.4,1-1c0-0.5-0.4-1-1-1h-3.9l0,0c-1.1,0-2-0.9-2-2l0,0c0-1.6-1.3-3-3-3l0,0
				c-0.5,0-1-0.4-1-1l0,0V36.4l0,0c0-0.5,0.4-1,1-1l0,0c1.6,0,3-1.3,3-3l0,0c0-1.1,0.9-2,2-2l0,0c1.6,0,3-1.3,3-2.9l0,0l0,0l0,0
				c0-1.6-1.3-3-3-3l0,0c-2.7,0-4.9-2.2-4.9-4.9s2.2-4.9,4.9-4.9h2c2.7,0,4.9,2.2,4.9,4.9l0,0c0,1.6,1.3,3,3,3l0,0h5.9l0,0
				c1.6,0,2.9-1.3,2.9-3l0,0c0-0.5,0.4-1,1-1l0,0l0,0c0.5,0,1,0.4,1,1l0,0c0,1.6,1.3,3,3,3l0,0h5.9c1.6,0,3-1.3,3-3l0,0l0,0
				c0-2.7,2.2-4.9,4.9-4.9h2c2.7,0,4.9,2.2,4.9,4.9s-2.2,4.9-4.9,4.9l0,0c-1.6,0-3,1.3-3,3l0,0l0,0l0,0c0,1.6,1.3,2.9,3,2.9l0,0
				c1.1,0,2,0.9,2,2l0,0c0,1.6,1.3,3,3,3l0,0c0.5,0,1,0.4,1,1l0,0v11.8l0,0c0,0.5-0.4,1-1,1l0,0c-1.6,0-3,1.3-3,3l0,0
				c0,1.1-0.9,2-2,2l0,0h-3.9c-0.5,0-1,0.4-1,1c0,0.5,0.4,1,1,1l0,0h3.9l0,0c2.2,0,3.9-1.8,3.9-3.9l0,0c0-0.5,0.4-1,1-1l0,0
				c1.6,0,3-1.3,3-3l0,0V36.4C64.9,34.7,63.7,33.4,62,33.4z"/>
			<path d="M15.7,39.1c0-0.5,0.4-1,1-1l0,0c0.5,0,1-0.4,1-1s-0.4-1-1-1l0,0c-1.6,0-3,1.3-3,3v6.4c0,1.6,1.3,3,3,3l0,0
				c0.5,0,1-0.4,1-1s-0.4-1-1-1l0,0c-0.5,0-1-0.4-1-1l0,0V39.1L15.7,39.1z"/>
			<path d="M20.7,40.3L20.7,40.3c0.5,0,1-0.4,1-1c0-0.5-0.4-1-1-1l0,0c-1.6,0-3,1.3-3,3v2c0,1.6,1.3,3,3,3l0,0l0,0c0.5,0,1-0.4,1-1
				s-0.4-1-1-1l0,0l0,0c-0.5,0-1-0.4-1-1l0,0v-2C19.7,40.8,20.1,40.3,20.7,40.3z"/>
			<path d="M59,45.5c0,0.5-0.4,1-1,1l0,0c-0.5,0-1,0.4-1,1s0.4,1,1,1l0,0c1.6,0,3-1.3,3-3v-6.4c0-1.6-1.3-3-3-3l0,0
				c-0.5,0-1,0.4-1,1c0,0.5,0.4,1,1,1l0,0c0.5,0,1,0.4,1,1l0,0V45.5L59,45.5z"/>
			<path d="M54,44.3L54,44.3c-0.5,0-1,0.4-1,1c0,0.5,0.4,1,1,1l0,0c1.6,0,3-1.3,3-3v-2c0-1.6-1.3-3-3-3l0,0l0,0c-0.5,0-1,0.4-1,1
				c0,0.5,0.4,1,1,1l0,0l0,0c0.5,0,1,0.4,1,1l0,0v2C55,43.8,54.7,44.3,54,44.3z"/>
			<path d="M26.5,31.7c0,1.6,1.3,3,3,3c0.3,0,0.7-0.1,1-0.2v9.1c0,1.6,1.3,3,3,3c0.5,0,1,0.4,1,1l0,0c0,1.6,1.3,3,3,3l0,0l0,0l0,0
				l0,0l0,0l0,0c1.6,0,3-1.3,3-3l0,0c0-0.5,0.4-1,1-1l0,0l0,0c1.6,0,2.9-1.3,2.9-3l0,0l0,0l0,0v-9c0.3,0.1,0.6,0.2,1,0.2
				c1.6,0,3-1.3,3-3s-1.3-3-3-3c-1.6,0-3,1.3-3,3v11.8l0,0c0,0.5-0.4,1-1,1l0,0l0,0c-1.6,0-3,1.3-3,3l0,0c0,0.5-0.4,1-1,1l0,0
				c-0.5,0-1-0.4-1-1l0,0c0-1.6-1.3-3-3-3c-0.5,0-1-0.4-1-1l0,0V31.7c0-1.6-1.3-3-3-3S26.5,30.1,26.5,31.7z M45.3,30.7
				c0.5,0,1,0.4,1,1s-0.4,1-1,1s-1-0.4-1-1S44.8,30.7,45.3,30.7z M29.5,30.7c0.5,0,1,0.4,1,1s-0.4,1-1,1c-0.5,0-1-0.4-1-1
				S29,30.7,29.5,30.7z"/>
			<path d="M34.4,40.6c-0.5,0-1,0.4-1,1s0.4,1,1,1l0,0h6l0,0c0.5,0,1-0.4,1-1s-0.4-1-1-1l0,0H34.4L34.4,40.6z"/>
			<path d="M22.6,31.7L22.6,31.7L22.6,31.7L22.6,31.7c0,3.1,2.1,5.8,4.9,6.6v2.3l0,0c0,0.5,0.4,1,1,1c0.5,0,1-0.4,1-1l0,0v-2l0,0v-2
				c-2.7,0-4.9-2.2-4.9-4.9c0-0.5-0.4-1-1-1S22.6,31.2,22.6,31.7v-0.2C22.6,31.6,22.6,31.7,22.6,31.7z"/>
			<path d="M45.3,40.6c0,0.5,0.4,1,1,1s1-0.4,1-1l0,0v-2.3c2.9-0.9,4.9-3.5,4.9-6.6l0,0l0,0l0,0c0-0.1,0-0.1,0-0.2v0.1
				c0-0.5-0.5-0.9-1-0.9s-1,0.4-1,1c0,2.7-2.2,4.9-4.9,4.9v2l0,0V40.6L45.3,40.6z"/>
			<path d="M29.5,24.8c-0.1,0-0.1,0-0.2,0h-0.1c-0.5,0-1,0.4-1,1c0,0.5,0.4,1,1,1l0,0c0.1,0,0.2,0,0.2,0c2.7,0,4.9,2.2,4.9,4.9l0,0
				c0,0.5,0.5,0.9,1,0.9s1-0.4,1-1v-0.1C36.3,27.8,33.2,24.8,29.5,24.8z"/>
			<path d="M40.4,31.7L40.4,31.7c0-2.7,2.2-4.9,4.9-4.9c0.1,0,0.2,0,0.2,0l0,0c0.5,0,1-0.4,1-1c0-0.5-0.4-1-1-1h-0.1
				c-0.1,0-0.1,0-0.2,0c-3.7,0-6.8,3-6.9,6.7v0.1c0,0.5,0.4,1,1,1S40.3,32.2,40.4,31.7z"/>
			<path d="M53.2,51.5c0-0.5-0.4-1-1-1l0,0l0,0h-2v-2h2l0,0c0.5,0,1-0.4,1-1s-0.4-1-1-1l0,0h-2l0,0c0-2.2-1.8-3.9-3.9-3.9
				c-0.5,0-1,0.4-1,1c0,0.5,0.4,1,1,1l0,0c1.1,0,2,0.9,2,2l0,0h-2l0,0l0,0l0,0c-1.6,0-2.9,1.3-2.9,3c0,0.5,0.4,1,1,1
				c0.5,0,1-0.4,1-1l0,0c0-0.5,0.4-1,1-1l0,0l0,0h2v2h-2l0,0l0,0l0,0c-1.6,0-2.9,1.3-2.9,3c0,0.5,0.4,1,1,1c0.5,0,1-0.4,1-1l0,0
				c0-0.5,0.4-1,1-1l0,0l0,0h2v2c0,1.1-0.9,2-2,2h-6.1c-1.1,0-2-0.9-2-2l0,0l0,0c0-0.5-0.4-1-1-1c-0.5,0-1,0.4-1,1l0,0
				c0,1.1-0.9,2-2,2h-5.9c-1.1,0-2-0.9-2-2v-2h2c0.5,0,1,0.4,1,1l0,0c0,0.5,0.4,1,1,1c0.5,0,1-0.4,1-1c0-1.6-1.3-3-3-3l0,0h-2v-2h2
				c0.5,0,1,0.4,1,1l0,0c0,0.5,0.4,1,1,1c0.5,0,1-0.4,1-1c0-1.6-1.3-3-2.9-3l0,0l0,0l0,0h-2l0,0c0-1.1,0.9-2,2-2l0,0
				c0.5,0,1-0.4,1-1c0-0.5-0.4-1-1-1c-2.2,0-3.9,1.8-3.9,3.9l0,0h-2c-0.5,0-1,0.4-1,1s0.4,1,1,1l0,0h2v2h-2l0,0c-0.5,0-1,0.4-1,1
				s0.4,1,1,1l0,0l0,0h2v2l0,0c0,2.2,1.8,3.9,3.9,3.9l0,0h2c0,2.2,1.8,3.9,3.9,3.9l0,0h5.9l0,0l0,0l0,0c2.2,0,3.9-1.8,3.9-3.9h2l0,0
				c2.2,0,3.9-1.8,3.9-3.9l0,0v-2h2l0,0l0,0C52.8,52.4,53.2,52,53.2,51.5z M40.4,60.3L40.4,60.3h-6c-1.1,0-2-0.9-2-2h2l0,0l0,0h0.1
				l0,0c1.1,0,2.2-0.5,2.9-1.3c0.7,0.8,1.8,1.3,2.9,1.3l0,0l0,0l0,0l0,0h2C42.3,59.5,41.4,60.3,40.4,60.3z"/>
		</g>
	</g>
</g>
<g class="st0">
	<g class="st1">
		<g>
			<path d="M58,36.5c-1.1,0-2-0.9-2-2c0-2.2-1.8-3.9-3.9-3.9l0,0c-1.1,0-2-0.9-2-2V12.8c0-2.2-1.8-3.9-3.9-3.9h-2
				c-2.2,0-3.9,1.8-3.9,3.9v11.8l0,0c0,1.1-0.9,2-2,2h-2c-1.1,0-2-0.9-2-2V12.8c0-2.2-1.8-3.9-3.9-3.9h-2c-2.2,0-3.9,1.8-3.9,3.9
				v15.8c0,1.1-0.9,2-2,2l0,0c-2.2,0-3.9,1.8-3.9,3.9c0,1.1-0.9,2-2,2c-2.2,0-3.9,1.8-3.9,3.9c0,2.2,1.8,3.9,3.9,3.9
				c1.1,0,2,0.9,2,2l0,0l0,0c0,0.5,0.4,1,1,1s1-0.4,1-1l0,0l0,0c0-2.2-1.8-3.9-3.9-3.9c-1.1,0-2-0.9-2-2s0.9-2,2-2
				c2.2,0,3.9-1.8,3.9-3.9c0-1.1,0.9-2,2-2l0,0c2.2,0,3.9-1.8,3.9-3.9V12.8c0-1.1,0.9-2,2-2h2c1.1,0,2,0.9,2,2v11.8
				c0,2.2,1.8,3.9,3.9,3.9h2c2.2,0,3.9-1.8,3.9-3.9l0,0V12.8c0-1.1,0.9-2,2-2h2c1.1,0,2,0.9,2,2v15.8c0,2.2,1.8,3.9,3.9,3.9l0,0
				c1.1,0,2,0.9,2,2c0,2.2,1.8,3.9,3.9,3.9c1.1,0,2,0.9,2,2s-0.9,2-2,2c-2.2,0-3.9,1.8-3.9,3.9l0,0l0,0c0,0.5,0.4,1,1,1s1-0.4,1-1
				l0,0l0,0c0-1.1,0.9-2,2-2c2.2,0,3.9-1.8,3.9-3.9C62,38.3,60.3,36.5,58,36.5z"/>
			<path d="M55.3,49.3h-8.9v-4.1c0.3,0.1,0.6,0.2,1,0.2c1.6,0,3-1.3,3-3c0-1.6-1.3-3-3-3c-1.6,0-3,1.3-3,3v16.8c0,1.1-0.9,2-2,2h-2
				c-1.1,0-2-0.9-2-2v-2.1c1.7-0.4,3-2,3-3.8c0-0.5-0.4-1-1-1s-1,0.4-1,1c0,1.1-0.9,2-2,2l0,0l0,0c-1.1,0-2-0.9-2-2l0,0
				c0-0.5-0.4-1-1-1c-0.5,0-1,0.4-1,1l0,0c0,1.8,1.3,3.4,3,3.8v2.1c0,1.1-0.9,2-2,2h-2c-1.1,0-2-0.9-2-2V42.4c0-1.6-1.3-3-3-3
				c-1.6,0-3,1.3-3,3c0,1.6,1.3,3,3,3c0.3,0,0.7-0.1,1-0.2v4.1h-8.9c-0.5,0-1,0.4-1,1c0,0.5,0.4,1,1,1h8.9v2h-6.9c-0.5,0-1,0.4-1,1
				c0,0.5,0.4,1,1,1h6.9v2h-4.9l0,0c-0.5,0-1,0.4-1,1c0,0.5,0.4,1,1,1l0,0h4.9c0,2.2,1.8,3.9,3.9,3.9h1.1c0.4,1.7,2,2.9,3.8,3l0,0
				l0,0l0,0l0,0l0,0l0,0c1.8,0,3.4-1.3,3.8-3h1.4c2.2,0,3.9-1.8,3.9-3.9h4.9c0.5,0,1-0.4,1-1s-0.4-1-1-1h-4.8v-2h6.9
				c0.5,0,1-0.4,1-1c0-0.5-0.4-1-1-1h-6.9v-2h8.9c0.5,0,1-0.4,1-1C56.3,49.8,55.8,49.3,55.3,49.3z M47.4,41.4c0.5,0,1,0.4,1,1
				c0,0.5-0.4,1-1,1c-0.5,0-1-0.4-1-1C46.4,41.9,46.8,41.4,47.4,41.4z M27.6,43.4c-0.5,0-1-0.4-1-1c0-0.5,0.4-1,1-1s1,0.4,1,1
				S28.2,43.4,27.6,43.4z M37.5,64.2L37.5,64.2c-0.8,0-1.5-0.5-1.8-1.2c0.7-0.2,1.3-0.6,1.8-1.2c0.5,0.5,1.1,0.9,1.8,1.2
				C39,63.7,38.3,64.2,37.5,64.2z"/>
		</g>
	</g>
</g>
<g>
	<g>
		<g>
			<path d="M34,37.5L34,37.5L34,37.5c0-2.2-1.8-3.9-3.9-3.9l0,0c-2.2,0-3.9,1.8-3.9,3.9l0,0c0,2.2,1.8,3.9,3.9,3.9S34,39.7,34,37.5
				L34,37.5L34,37.5z M30.1,39.5c-1.1,0-2-0.9-2-2l0,0c0-1.1,0.9-2,2-2l0,0c1.1,0,2,0.9,2,2S31.2,39.5,30.1,39.5z"/>
			<path d="M43.9,33.5v2c1.1,0,2,0.9,2,2s-0.9,2-2,2s-2-0.9-2-2l0,0c0-1.1,0.9-2,2-2V33.5c-2.2,0-3.9,1.8-3.9,3.9l0,0
				c0,2.2,1.8,3.9,3.9,3.9c2.2,0,3.9-1.8,3.9-3.9C47.9,35.3,46.1,33.5,43.9,33.5z"/>
			<path d="M35.1,62.5L35.1,62.5l-1.4-1.4c-0.4-0.4-1-0.4-1.4,0s-0.4,1,0,1.4l1.3,1.3c0,0,0,0.1,0.1,0.1c0.4,0.4,1,0.4,1.4,0
				S35.5,62.9,35.1,62.5z"/>
			<path d="M41.6,61.1c-0.4-0.4-1-0.4-1.4,0l-1.3,1.4c-0.4,0.4-0.4,1,0,1.4s1,0.4,1.4,0l1.4-1.4C42,62.1,42,61.5,41.6,61.1z"/>
			<path d="M69.6,56.8c0-2.2-1.8-3.9-3.9-3.9c-2.2,0-3.9,1.8-3.9,3.9c0,1.1-0.9,2-2,2s-2-0.9-2-2c0-2.2-1.8-3.9-3.9-3.9
				s-3.9,1.8-3.9,3.9l0,0c0,1.1-0.9,2-2,2v-8.5l0,0c0-1.1,0.9-2,2-2h3.9c2.2,0,3.9-1.8,3.9-3.9v-5.9c0-2.2-1.8-3.9-3.9-3.9
				c-1.1,0-2-0.9-2-2v-5.9c0-1.8-1.3-3.4-3-3.8v-2.1c1.6,0,3-1.3,3-3c0-1.6-1.3-3-3-3v-3.9c1.6,0,3-1.3,3-3c0-1.6-1.3-3-3-3l0,0
				C48.8,2.7,47,1,44.9,1l0,0C42.7,1,41,2.8,41,4.9v3.9c-1.6,0-3,1.3-3,3c0,1.6,1.3,3,3,3v8c-1.7,0.4-3,2-3,3.8c0,0.7-0.4,1.4-1,1.7
				c-0.6-0.3-1-1-1-1.7c0-1.8-1.3-3.4-3-3.8v-8c1.6,0,3-1.3,3-3c0-1.6-1.3-3-3-3V4.9C33,2.7,31.2,1,29.1,1l0,0l0,0
				c-2.2,0-3.9,1.8-3.9,3.9l0,0c-1.6,0-3,1.3-3,3c0,1.6,1.3,3,3,3v3.9c-1.6,0-3,1.3-3,3c0,1.6,1.3,3,3,3v2.1c-1.7,0.4-3,2-3,3.8v5.9
				c0,1.1-0.9,2-2,2c-2.2,0-3.9,1.8-3.9,3.9v5.9c0,2.2,1.8,3.9,3.9,3.9l0,0h3.9c1.1,0,2,0.9,2,2l0,0v8.5l0,0c-1.1,0-2-0.9-2-2l0,0
				c0-2.2-1.8-3.9-3.9-3.9c-2.2,0-3.9,1.8-3.9,3.9c0,1.1-0.9,2-2,2s-2-0.9-2-2c0-2.2-1.8-3.9-3.9-3.9c-2.2,0-3.9,1.8-3.9,3.9
				c0,0.5,0.4,1,1,1s1-0.4,1-1c0-1.1,0.9-2,2-2s2,0.9,2,2c0,2.2,1.8,3.9,3.9,3.9s3.9-1.8,3.9-3.9c0-1.1,0.9-2,2-2s2,0.9,2,2l0,0
				c0,2.2,1.8,3.9,3.9,3.9l0,0v3.4l0,0c0,1.5,0.8,2.7,2,3.4V70l0,0c0,2.2,1.8,3.9,3.9,3.9H42c2.2,0,3.9-1.8,3.9-3.9l0,0v-2.5
				c1.2-0.7,2-2,2-3.4l0,0v-3.4c2.2,0,3.9-1.8,3.9-3.9l0,0c0-1.1,0.9-2,2-2s2,0.9,2,2c0,2.2,1.8,3.9,3.9,3.9c2.2,0,3.9-1.8,3.9-3.9
				c0-1.1,0.9-2,2-2c1.1,0,2,0.9,2,2l0,0c0,0.5,0.4,1,1,1C69.1,57.8,69.6,57.4,69.6,56.8L69.6,56.8z M40,11.8c0-0.5,0.4-1,1-1h2V4.9
				c0-1.1,0.9-2,2-2s2,0.9,2,2l0,0v2h2c0.5,0,1,0.4,1,1c0,0.5-0.4,1-1,1h-2v7.9h2l0,0c0.5,0,1,0.4,1,1c0,0.5-0.4,1-1,1l0,0h-2v3.9
				H43v-9.9h-2C40.4,12.8,40,12.4,40,11.8z M24.2,17.8c0-0.5,0.4-1,1-1l0,0h2V8.9h-2c-0.5,0-1-0.4-1-1c0-0.5,0.4-1,1-1h2v-2l0,0
				c0-1.1,0.9-2,2-2s2,0.9,2,2v5.9h2c0.5,0,1,0.4,1,1c0,0.5-0.4,1-1,1h-2v9.9h-3.9v-3.9h-2l0,0C24.6,18.7,24.2,18.3,24.2,17.8z
				 M41.9,72H32c-1.1,0-2-0.9-2-2l0,0v-2h13.8v2l0,0C43.9,71.2,43,72,41.9,72z M45.9,50.3L45.9,50.3v8.5h-1c-0.5,0-1,0.4-1,1
				c0,0.5,0.4,1,1,1h1v3.4l0,0c0,1.1-0.9,2-2,2l0,0H30.1l0,0c-1.1,0-2-0.9-2-2l0,0v-3.4h1c0.5,0,1-0.4,1-1c0-0.5-0.4-1-1-1h-1v-8.5
				l0,0c0-2.2-1.8-3.9-3.9-3.9h-3.9l0,0c-1.1,0-2-0.9-2-2v-5.9c0-1.1,0.9-2,2-2c2.2,0,3.9-1.8,3.9-3.9l0,0v-5.9l0,0c0-1.1,0.9-2,2-2
				h5.9c1.1,0,2,0.9,2,2c0,1.5,0.8,2.7,2,3.4v0.4l0,0c0,0.5,0.4,1,1,1s1-0.4,1-1V30c1.2-0.7,2-2,2-3.4c0-1.1,0.9-2,2-2H48
				c1.1,0,2,0.9,2,2v5.9c0,2.2,1.8,3.9,3.9,3.9c1.1,0,2,0.9,2,2v5.9c0,1.1-0.9,2-2,2H50C47.6,46.4,45.9,48.2,45.9,50.3z"/>
			<path d="M20,26.6L20,26.6h-2l0,0c-0.5,0-1-0.4-1-1l0,0c0-1.6-1.3-3-3-3l0,0c-1.6,0-3,1.3-3,3l0,0c0,0.5-0.4,1-1,1l0,0H4.1l0,0
				c-1.6,0-3,1.3-3,3c0,1.6,1.3,3,3,3l0,0H10c0.5,0,1,0.4,1,1s-0.4,1-1,1l0,0H8c-1.6,0-3,1.3-3,3c0,1.6,1.3,3,3,3h5.9l0,0
				c0.5,0,1-0.4,1-1c0-0.5-0.4-1-1-1l0,0H8c-0.5,0-1-0.4-1-1c0-0.5,0.4-1,1-1h2l0,0c1.6,0,3-1.3,3-3s-1.3-3-3-3H4.1l0,0
				c-0.5,0-1-0.4-1-1s0.4-1,1-1l0,0H10l0,0c1.6,0,3-1.3,3-3l0,0c0-0.5,0.4-1,1-1l0,0c0.5,0,1,0.4,1,1l0,0c0,1.6,1.3,3,3,3l0,0h2l0,0
				c0.5,0,1-0.4,1-1C21,27.1,20.6,26.6,20,26.6z"/>
			<path d="M54.8,26.6L54.8,26.6h2l0,0c0.5,0,1-0.4,1-1l0,0c0-1.6,1.3-3,3-3l0,0c1.6,0,3,1.3,3,3l0,0c0,0.5,0.4,1,1,1l0,0h5.9l0,0
				c1.6,0,3,1.3,3,3c0,1.6-1.3,3-3,3l0,0h-5.9c-0.5,0-1,0.4-1,1s0.4,1,1,1l0,0h2c1.6,0,3,1.3,3,3c0,1.6-1.3,3-3,3h-5.9l0,0
				c-0.5,0-1-0.4-1-1c0-0.5,0.4-1,1-1l0,0h5.9c0.5,0,1-0.4,1-1c0-0.5-0.4-1-1-1h-2l0,0c-1.6,0-3-1.3-3-3s1.3-3,3-3h5.9l0,0
				c0.5,0,1-0.4,1-1s-0.4-1-1-1l0,0h-5.9l0,0c-1.6,0-3-1.3-3-3l0,0c0-0.5-0.4-1-1-1l0,0c-0.5,0-1,0.4-1,1l0,0c0,1.6-1.3,3-3,3l0,0
				h-2l0,0c-0.5,0-1-0.4-1-1C53.8,27.1,54.2,26.6,54.8,26.6z"/>
			<rect x="32.1" y="37.5" width="2" height="17.8"/>
			<circle cx="33.1" cy="55.3" r="1"/>
			<rect x="40" y="37.5" width="2" height="17.8"/>
			<circle cx="40.9" cy="55.3" r="1"/>
		</g>
	</g>
</g>
<g class="st0">
	<g class="st1">
		<g>
			<path d="M38.4,38.3L38.4,38.3L38.4,38.3c0-0.5-0.4-1-1-1s-1,0.4-1,1c0,0,0,0,0,0.1v11.8l0,0l0,0c0,0.5,0.4,1,1,1s1-0.4,1-1l0,0
				l0,0V38.3z"/>
			<path d="M39.5,32.3c-0.4-0.4-1-0.4-1.4,0L37.4,33l-0.7-0.7c-0.4-0.4-1-0.4-1.4,0s-0.4,1,0,1.4l1.4,1.4c0.2,0.2,0.6,0.3,0.9,0.3
				c0.2,0,0.4-0.1,0.5-0.3l1.4-1.4C39.9,33.3,39.9,32.6,39.5,32.3z"/>
			<path d="M36.1,53.5L36.1,53.5l-1.4-1.4c-0.4-0.4-1-0.4-1.4,0s-0.4,1,0,1.4l1.3,1.3c0,0,0,0.1,0.1,0.1c0.4,0.4,1,0.4,1.4,0
				S36.5,53.9,36.1,53.5z"/>
			<path d="M41.5,52.1c-0.4-0.4-1-0.4-1.4,0l-1.4,1.4c-0.4,0.4-0.4,1,0,1.4s1,0.4,1.4,0l1.4-1.4C41.9,53.2,41.9,52.5,41.5,52.1z"/>
			<path d="M32.5,37.4c0-1.6-1.3-2.9-3-2.9c-1.6,0-2.9,1.3-3,2.9l0,0v4c0,1.6,1.3,3,3,3c1.6,0,3-1.3,3-3V37.4L32.5,37.4z M30.5,41.4
				c0,0.5-0.4,1-1,1s-1-0.4-1-1v-4c0-0.5,0.4-1,1-1s1,0.4,1,1V41.4z"/>
			<path d="M60,12.8H32.5l0,0c-2.2,0-3.9,1.8-3.9,3.9v7.9c0,1.1-0.9,2-2,2V13.8l0,0c0-0.3-0.1-0.5-0.3-0.7c-0.4-0.4-1-0.4-1.4,0
				c-0.2,0.2-0.3,0.4-0.3,0.7v13.4c-1.2,0.7-2,1.9-2,3.4l0,0l0,0l0,0l0,0l0,0c-1.6,0-3,1.3-3,3s1.3,3,3,3v7.9c0,2.2,1.8,3.9,3.9,3.9
				c1.1,0,2,0.9,2,2v3.9h-2v-2c0-1.6-1.3-3-3-3c-1.6,0-3,1.3-3,3l0,0v2h-6l0,0c-1.1,0-2-0.9-2-2v-3.9h2l0,0c1.6,0,3-1.3,3-3
				s-1.3-3-3-3h-2V24.6h2l0,0c1.6,0,3-1.3,3-3c0-1.6-1.3-3-3-3h-2v-4.9l0,0c0-0.3-0.1-0.5-0.3-0.7c-0.4-0.4-1-0.4-1.4,0
				c-0.2,0.2-0.3,0.4-0.3,0.7v38.5c0,2.2,1.8,3.9,3.9,3.9l0,0h13.8l0,0c0,2.2,1.8,3.9,3.9,3.9h0.5c0.7,1.2,2,2.1,3.5,2.1l0,0h2l0,0
				c1.5,0,2.8-0.8,3.5-2.1h0.8l0,0c2.2,0,3.9-1.8,3.9-3.9l0,0h13.8l0,0l0,0l0,0l0,0c2.2,0,3.9-1.8,3.9-3.9l0,0V16.7
				C64.1,14.5,62.3,12.8,60,12.8z M22.6,34.5c-0.5,0-1-0.4-1-1c0-0.5,0.4-1,1-1V34.5z M12.7,20.7h2c0.5,0,1,0.4,1,1c0,0.5-0.4,1-1,1
				l0,0h-2C12.7,22.6,12.7,20.7,12.7,20.7z M12.7,44.4h2c0.5,0,1,0.4,1,1s-0.4,1-1,1l0,0h-2C12.7,46.3,12.7,44.4,12.7,44.4z
				 M24.6,54.2h-2v-2l0,0c0-0.5,0.4-1,1-1c0.5,0,1,0.4,1,1V54.2L24.6,54.2z M46.3,14.8h2v2l0,0c0,0.5-0.4,1-1,1c-0.5,0-1-0.4-1-1
				V14.8L46.3,14.8z M30.5,20.7h2l0,0c0.5,0,1,0.4,1,1c0,0.5-0.4,1-1,1h-2V20.7z M38.4,60.2h-1.9c-0.3,0-0.7-0.1-0.9-0.2
				c0.7-0.2,1.4-0.6,1.9-1.2c0.5,0.6,1.2,1,1.9,1.2C39.1,60.2,38.8,60.2,38.4,60.2z M52.2,54.2h-2v-2l0,0c0-0.5,0.4-1,1-1
				c0.5,0,1,0.4,1,1V54.2L52.2,54.2z M62,46.3h-2l0,0c-0.5,0-1-0.4-1-1s0.4-1,1-1h2V46.3z M62,22.6h-2l0,0c-0.5,0-1-0.4-1-1
				c0-0.5,0.4-1,1-1h2V22.6z M62,18.7h-2c-1.6,0-3,1.3-3,3c0,1.6,1.3,3,3,3l0,0h2v17.8h-2c-1.6,0-3,1.3-3,3s1.3,3,3,3l0,0h2v3.9l0,0
				c0,1.1-0.9,2-2,2h-5.9v-2c0-1.6-1.3-3-3-3c-1.6,0-3,1.3-3,3l0,0v2h-2v-3.9c0-1.1,0.9-2,2-2c2.2,0,3.9-1.8,3.9-3.9v-8.1
				c1.6,0,3-1.3,3-3c0-1.6-1.3-3-3-3l0,0c0-2.2-1.8-3.9-3.9-3.9c-1.1,0-2-0.9-2-2l0,0c0-0.3-0.1-0.5-0.3-0.7c-0.4-0.4-1-0.4-1.4,0
				c-0.2,0.2-0.3,0.4-0.3,0.7c0,2.2,1.8,3.9,3.9,3.9c1.1,0,2,0.9,2,2l0,0v0.2v13.6c0,1.1-0.9,2-2,2c-2.2,0-3.9,1.8-3.9,3.9v5.9
				c0,1.1-0.9,2-2,2h-1.8c-1.1,0-2-0.9-2-2l0,0l0,0c0-0.3-0.1-0.5-0.3-0.7c-0.4-0.4-1-0.4-1.4,0c-0.2,0.2-0.3,0.4-0.3,0.7
				c0,1.1-0.9,2-2,2h-1.9c-1.1,0-2-0.9-2-2v-5.9c0-2.2-1.8-3.9-3.9-3.9c-1.1,0-2-0.9-2-2V31.2v-0.7l0,0c0-1.1,0.9-2,2-2
				c2.2,0,3.9-1.8,3.9-3.9l0,0h2c1.6,0,3-1.3,3-3c0-1.6-1.3-3-3-3l0,0h-2v-2c0-1.1,0.9-2,2-2h11.8v2c0,1.6,1.3,3,3,3
				c1.6,0,3-1.3,3-3l0,0v-2h9.9c1.1,0,2,0.9,2,2L62,18.7L62,18.7z M52.2,34.5v-2c0.5,0,1,0.4,1,1C53.2,34,52.7,34.5,52.2,34.5z"/>
			<path d="M48.2,37.4c0-1.6-1.3-2.9-3-2.9c-1.6,0-2.9,1.3-3,2.9l0,0v4c0,1.6,1.3,3,3,3c1.6,0,3-1.3,3-3V37.4L48.2,37.4z M46.3,41.4
				c0,0.5-0.4,1-1,1c-0.5,0-1-0.4-1-1v-4c0-0.5,0.4-1,1-1c0.5,0,1,0.4,1,1V41.4z"/>
		</g>
	</g>
</g>
<g class="st0">
	<g class="st1">
		<g>
			<path d="M23.6,32.6c0,1.6,1.3,3,3,3c1.6,0,3-1.3,3-3c0-1.6-1.3-3-3-3S23.6,30.9,23.6,32.6z M27.5,32.6c0,0.5-0.4,1-1,1
				c-0.5,0-1-0.4-1-1c0-0.5,0.4-1,1-1S27.5,32,27.5,32.6z"/>
			<path d="M46.3,16.8c0.5,0,1-0.4,1-1v-2c0-0.2,0-0.5,0.1-0.7c0.3-0.8,1-1.3,1.9-1.3s1.6,0.5,1.9,1.3c0.1,0.2,0.1,0.4,0.1,0.7l0,0
				v2l0,0c0,0.5,0.4,1,1,1s1-0.4,1-1l0,0v-2l0,0c0-0.3,0-0.5-0.1-0.8c-0.4-1.8-2-3.2-3.9-3.2l0,0l0,0c-1.9,0-3.5,1.4-3.9,3.2
				c-0.1,0.3-0.1,0.5-0.1,0.8v2C45.3,16.3,45.7,16.8,46.3,16.8z"/>
			<path d="M44.3,35.5c1.6,0,3-1.3,3-3c0-1.6-1.3-3-3-3c-1.6,0-3,1.3-3,3S42.7,35.5,44.3,35.5z M44.3,31.6c0.5,0,1,0.4,1,1
				c0,0.5-0.4,1-1,1s-1-0.4-1-1S43.8,31.6,44.3,31.6z"/>
			<path d="M32.5,29.6c0-1.6-1.3-3-3-3c-0.5,0-1,0.4-1,1c0,0.5,0.4,1,1,1s1,0.4,1,1l0,0v23.7c0,1.6,1.3,3,3,3l0,0h3.9l0,0
				c1.6,0,3-1.3,3-3V29.6c0-0.5,0.4-1,1-1c0.5,0,1-0.4,1-1c0-0.5-0.4-1-1-1c-1.6,0-3,1.3-3,3v23.7c0,0.5-0.4,1-1,1l0,0h-3.9l0,0
				c-0.5,0-1-0.4-1-1V29.6L32.5,29.6z"/>
			<path d="M53.2,18.7h-8.9c-0.5,0-1-0.4-1-1l0,0v-5.9l0,0c0-1.6-1.3-3-3-3c-1.6,0-3,1.3-3,3v2c0,0.5-0.4,1-1,1s-1-0.4-1-1V7.9l0,0
				c0-2.2-1.8-3.9-3.9-3.9l0,0c-2.2,0-3.9,1.8-3.9,3.9v11.8l0,0c0,2.2,1.8,3.9,3.9,3.9h11.8c1.1,0,2,0.9,2,2l0,0l0,0
				c0,1.6,1.3,3,3,3l0,0c0.5,0,1,0.4,1,1v5.9l0,0c0,0.5-0.4,1-1,1l0,0c-1.6,0-3,1.3-3,3l0,0v4.9l0,0v1l0,0c0,0.5-0.4,1-1,1l0,0
				c-0.5,0-1,0.4-1,1v15.8l0,0l0,0c0,1.1-0.9,2-2,2H29.5c-1.1,0-2-0.9-2-2l0,0l0,0V47.4c0-0.5-0.4-1-1-1l0,0c-0.5,0-1-0.5-1-1l0,0
				v-5.9c0-1.6-1.3-3-3-3l0,0c-0.5,0-1-0.4-1-1v-5.9c0-0.5,0.4-1,1-1l0,0c1.6,0,3-1.3,3-3V13.8c0-2.2-1.8-3.9-3.9-3.9
				c-2.2,0-3.9,1.8-3.9,3.9v5.9c0,1.6,1.3,3,3,3c0.5,0,1-0.4,1-1s-0.4-1-1-1c-0.5,0-1-0.4-1-1v-5.9c0-1.1,0.9-2,2-2s2,0.9,2,2v11.8
				c0,0.5-0.4,1-1,1l0,0c-1.6,0-3,1.3-3,3v5.9c0,1.6,1.3,3,3,3l0,0c0.5,0,1,0.4,1,1v5.9l0,0c0,1.3,0.8,2.4,2,2.8v15l0,0l0,0
				c0,1.5,0.8,2.7,2,3.4v0.5l0,0c0,2.2,1.8,3.9,3.9,3.9h7.8c2.2,0,3.9-1.8,3.9-3.9l0,0v-0.5c1.2-0.7,2-2,2-3.4l0,0l0,0v-15
				c0.8-0.3,1.5-1,1.8-1.8h6.1l0,0l0,0c2.2,0,3.9-1.8,3.9-3.9l0,0V22.7l0,0C57,20.5,55.4,18.7,53.2,18.7z M41.3,67.1
				c0,1.1-0.9,2-2,2h-7.9c-1.1,0-2-0.9-2-2l0,0H41.3L41.3,67.1z M55.2,22.7v19.7l0,0c0,1.1-0.9,2-2,2l0,0l0,0h-5.9v-4.9l0,0
				c0-0.5,0.4-1,1-1l0,0c1.6,0,3-1.3,3-3l0,0v-5.9c0-1.6-1.3-3-3-3l0,0c-0.5,0-1-0.4-1-1l0,0l0,0c0-2.2-1.8-3.9-3.9-3.9H31.5
				c-1.1,0-2-0.9-2-2l0,0V7.9c0-1.1,0.9-2,2-2l0,0c1.1,0,2,0.9,2,2l0,0v5.9c0,1.6,1.3,3,3,3s3-1.3,3-3v-2c0-0.5,0.4-1,1-1s1,0.4,1,1
				l0,0v5.9l0,0c0,1.6,1.3,3,3,3h8.9C54.3,20.7,55.2,21.6,55.2,22.7L55.2,22.7z"/>
			<path d="M39.3,59.2c0.5,0,1-0.4,1-1s-0.4-1-1-1c-1.6,0-3,1.3-3,3c0,1.6,1.3,3,3,3c0.5,0,1-0.4,1-1s-0.4-1-1-1s-1-0.4-1-1
				C38.3,59.7,38.8,59.2,39.3,59.2z"/>
			<path d="M31.5,61.2c-0.5,0-1,0.4-1,1s0.4,1,1,1c1.6,0,3-1.3,3-3c0-1.6-1.3-3-3-3c-0.5,0-1,0.4-1,1s0.4,1,1,1c0.5,0,1,0.4,1,1
				C32.5,60.8,32,61.2,31.5,61.2z"/>
		</g>
	</g>
</g>
<g class="st0">
	<g class="st1">
		<g>
			<path d="M46.3,38.5c1.6,0,3-1.3,3-3c0-1.6-1.3-3-3-3h-3.9c-1.6,0-3,1.3-3,3v13.8c0,1.6,1.3,3,3,3l0,0c1.6,0,3-1.3,3-3l0,0l0,0
				c0-0.5-0.4-1-1-1s-1,0.4-1,1l0,0l0,0c0,0.5-0.4,1-1,1l0,0c-0.5,0-1-0.4-1-1V35.5c0-0.5,0.4-1,1-1h1.2c-0.1,0.3-0.2,0.6-0.2,1
				C43.3,37.2,44.6,38.5,46.3,38.5z M46.3,34.5c0.5,0,1,0.4,1,1c0,0.5-0.4,1-1,1c-0.5,0-1-0.4-1-1C45.3,35,45.7,34.5,46.3,34.5z"/>
			<path d="M32.5,52.3L32.5,52.3c1.6,0,3-1.3,3-3l0,0V35.5c0-1.6-1.3-3-3-3h-3.9c-1.6,0-3,1.3-3,3c0,1.6,1.3,3,3,3c1.6,0,3-1.3,3-3
				c0-0.3-0.1-0.7-0.2-1h1.2c0.5,0,1,0.4,1,1v13.8c0,0.5-0.4,1-1,1l0,0c-0.5,0-1-0.4-1-1l0,0c0-0.5-0.4-1-1-1s-1,0.4-1,1l0,0l0,0
				C29.5,51,30.8,52.3,32.5,52.3z M28.5,36.5c-0.5,0-1-0.4-1-1c0-0.5,0.4-1,1-1s1,0.4,1,1S29.1,36.5,28.5,36.5z"/>
			<path d="M43.3,30.6c0.5,0,1-0.4,1-1c0-0.5-0.4-1-1-1l0,0H31.5l0,0c-0.5,0-1,0.4-1,1c0,0.5,0.4,1,1,1l0,0H43.3L43.3,30.6z"/>
			<path d="M60,21.7h-9.9c-2.2,0-3.9,1.8-3.9,3.9l0,0l0,0v2l0,0c0,2.2,1.8,3.9,3.9,3.9l0,0c0.5,0,1,0.4,1,1v6c0,0.5-0.4,1-1,1
				c-1.6,0-3,1.3-3,3v7.9c0,0.5-0.4,1-1,1l0,0c-0.5,0-1,0.4-1,1l0,0v3l0,0l0,0c0,1.1-0.9,2-2,2l0,0h-3l0,0c-1.1,0-2-0.9-2-2l0,0
				c0-0.5-0.4-1-1-1c-0.5,0-1,0.4-1,1l0,0l0,0l0,0c0,1.1-0.9,2-2,2h-3l0,0c-1.1,0-2-0.9-2-2l0,0l0,0v-3c0-0.5-0.4-1-1-1l0,0
				c-0.5,0-1-0.4-1-1v-7.9l0,0c0-1.6-1.3-3-3-3c-0.5,0-1-0.4-1-1v-5.9c0-0.5,0.4-1,1-1l0,0c2.2,0,3.9-1.8,3.9-3.9l0,0v-2l0,0l0,0
				c0-2.2-1.8-3.9-3.9-3.9h-9.9c-1.6,0-3,1.3-3,3l0,0c0,1.6,1.3,3,3,3H23l0,0l0,0c0.5,0,1-0.4,1-1c0-0.5-0.4-1-1-1l0,0l0,0h-8.8
				c-0.5,0-1-0.4-1-1l0,0c0-0.5,0.4-1,1-1h9.9c1.1,0,2,0.9,2,2l0,0l0,0v2c0,1.1-0.9,2-2,2l0,0l0,0c-1.6,0-3,1.3-3,3v5.7
				c0,1.6,1.3,3,3,3c0.5,0,1,0.4,1,1l0,0v7.9c0,1.3,0.8,2.4,2,2.8v2.1l0,0c0,2.2,1.8,3.9,3.9,3.9c0,2.2,1.8,3.9,3.9,3.9l0,0h4.4l0,0
				c2.2,0,3.9-1.8,3.9-3.9l0,0l0,0c2.2,0,3.9-1.8,3.9-3.9l0,0l0,0v-2.1c1.2-0.4,2-1.5,2-2.8v-7.9c0-0.5,0.4-1,1-1c1.6,0,3-1.3,3-3
				v-5.9c0-1.6-1.3-3-3-3l0,0c-1.1,0-2-0.9-2-2l0,0v-2l0,0l0,0c0-1.1,0.9-2,2-2h9.9c0.5,0,1,0.4,1,1l0,0c0,0.5-0.4,1-1,1h-9.4
				c-0.5,0-1,0.4-1,1c0,0.5,0.4,1,1,1h9.4c1.6,0,3-1.3,3-3l0,0C63,23,61.7,21.7,60,21.7z M39.4,61.2L39.4,61.2L39.4,61.2h-4l0,0
				c-1.1,0-2-0.9-2-2h1l0,0l0,0l0,0l0,0c1.2,0,2.2-0.5,2.9-1.3c0.7,0.8,1.8,1.3,3,1.3l0,0h1C41.3,60.3,40.5,61.2,39.4,61.2z"/>
			<path d="M18.6,17.8L18.6,17.8h5.9c3.3,0,5.9,2.7,5.9,5.9l0,0c0,1.6,1.3,3,3,3l0,0c1.6,0,3-1.3,3-3l0,0l0,0l0,0l0,0l0,0l0,0
				c0-6.5-5.3-11.8-11.8-11.8l0,0h-5.9c-1.6,0-3,1.3-3,3S17,17.8,18.6,17.8z M18.6,13.8h5.9l0,0l0,0c5.5,0,9.9,4.4,9.9,9.9l0,0l0,0
				c0,0.5-0.4,1-1,1l0,0c-0.5,0-1-0.4-1-1l0,0c0-4.4-3.5-7.9-7.9-7.9h-5.9l0,0c-0.5,0-1-0.4-1-1S18.1,13.8,18.6,13.8z"/>
			<path d="M41.3,26.6L41.3,26.6c1.6,0,3-1.3,3-3l0,0c0-3.3,2.7-5.9,5.9-5.9h5.9l0,0c1.6,0,3-1.3,3-3s-1.3-3-3-3h-5.9
				c-6.5,0-11.8,5.3-11.8,11.8l0,0l0,0l0,0l0,0l0,0C38.4,25.3,39.7,26.6,41.3,26.6z M40.4,23.7L40.4,23.7c0-5.5,4.4-9.9,9.9-9.9l0,0
				h5.9c0.5,0,1,0.4,1,1s-0.4,1-1,1l0,0h-5.9c-4.4,0-7.9,3.5-7.9,7.9l0,0c0,0.5-0.4,1-1,1l0,0C40.8,24.7,40.4,24.2,40.4,23.7
				L40.4,23.7z"/>
		</g>
	</g>
</g>
<g class="st0">
	<g class="st1">
		<g>
			<path d="M40.3,47.7h-5.9c-0.5,0-1,0.4-1,1c0,0.5,0.4,1,1,1h5.9c0.5,0,1-0.4,1-1C41.3,48.1,40.8,47.7,40.3,47.7z"/>
			<path d="M36.6,41.5L36.6,41.5c0.3,0.3,0.8,0.4,1.2,0.2c0.1,0,0.2-0.1,0.2-0.2l0,0l1.4-1.4c0.4-0.4,0.4-1,0-1.4s-1-0.4-1.4,0
				l-0.7,0.7l-0.7-0.7c-0.4-0.4-1-0.4-1.4,0s-0.4,1,0,1.4L36.6,41.5z"/>
			<path d="M16.4,28.9c0.3,0,0.5-0.1,0.7-0.3c0.4-0.4,0.4-1,0-1.4c-0.2-0.2-0.4-0.3-0.7-0.3c-1.6,0-3,1.3-3,3c0,1.6,1.3,3,3,3
				c0.3,0,0.5-0.1,0.7-0.3c0.4-0.4,0.4-1,0-1.4c-0.2-0.2-0.4-0.3-0.7-0.3c-0.5,0-1-0.4-1-1S15.8,28.9,16.4,28.9z"/>
			<path d="M58.4,26.9c-0.3,0-0.5,0.1-0.7,0.3c-0.4,0.4-0.4,1,0,1.4c0.2,0.2,0.4,0.3,0.7,0.3c0.5,0,1,0.4,1,1s-0.4,1-1,1
				c-0.3,0-0.5,0.1-0.7,0.3c-0.4,0.4-0.4,1,0,1.4c0.2,0.2,0.4,0.3,0.7,0.3c1.6,0,3-1.3,3-3C61.4,28.3,60,26.9,58.4,26.9z"/>
			<path d="M58.4,23L58.4,23L58.4,23H45.3l0,0c-0.5,0-1-0.4-1-1l0,0c0-1.6-1.3-3-3-3s-3,1.3-3,3l0,0c0,0.5-0.4,1-1,1
				c-0.5,0-1-0.4-1-1v-2l0,0c0-1.6-1.3-3-3-3c-1.6,0-3,1.3-3,3l0,0v2c0,0.5-0.4,1-1,1l0,0H16.4l0,0l0,0c-3.8,0-6.9,3.1-6.9,6.9
				s3.1,6.9,6.9,6.9l0,0l0,0l0,0c1.1,0,2,0.9,2,2l0,0v5.9c0,2.2,1.8,3.9,3.9,3.9l0,0h3.9c0.9,5.3,5.5,9.3,11.1,9.3
				c5.5,0,10.2-4,11.1-9.3h4.1l0,0c2.2,0,3.9-1.8,3.9-3.9v-5.9l0,0c0-1.1,0.9-2,2-2l0,0l0,0c3.8,0,6.9-3.1,6.9-6.9S62.3,23,58.4,23z
				 M37.3,56c-5.1,0-9.3-4.2-9.3-9.3c0-1.1,0.9-2,2-2l0,0l0,0c1.6,0,3-1.3,3-3v-7.9c0-1.6-1.3-3-3-3s-3,1.3-3,3s1.3,3,3,3
				c0.3,0,0.7-0.1,1-0.2v5.1c0,0.5-0.4,1-1,1l0,0c0-1.6-1.3-3-3-3l0,0c-1.1,0-2-0.9-2-2l0,0v-5.9c0-1.1,0.9-2,2-2l0,0h5.9
				c1.1,0,2,0.9,2,2l0,0l0,0c0,1.1,0.6,2,1.4,2.5c0,0.2,0.1,0.5,0.3,0.7c0.4,0.4,1,0.4,1.4,0c0.2-0.2,0.3-0.4,0.3-0.7
				c0.8-0.5,1.4-1.5,1.4-2.5l0,0l0,0c0-1.1,0.9-2,2-2h5.9l0,0c1.1,0,2,0.9,2,2v5.9l0,0c0,1.1-0.9,2-2,2l0,0c-1.6,0-3,1.3-3,3l0,0
				l0,0c-0.5,0-1-0.4-1-1v-5.1c0.3,0.1,0.6,0.2,1,0.2c1.6,0,3-1.3,3-3s-1.3-3-3-3c-1.6,0-3,1.3-3,3v7.9c0,1.6,1.3,3,3,3l0,0
				c1.1,0,2,0.9,2,2l0,0l0,0C46.6,51.8,42.4,56,37.3,56z M31,33.8c0,0.5-0.4,1-1,1c-0.5,0-1-0.4-1-1s0.4-1,1-1
				C30.5,32.9,31,33.3,31,33.8z M43.6,33.8c0-0.5,0.4-1,1-1s1,0.4,1,1s-0.4,1-1,1S43.6,34.4,43.6,33.8z M58.4,34.8L58.4,34.8
				L58.4,34.8c-2.2,0-3.9,1.8-3.9,3.9l0,0v5.9c0,1.1-0.9,2-2,2l0,0h-3.9c0-1.5-0.8-2.7-2-3.4v-0.5l0,0c0-0.5,0.4-1,1-1l0,0
				c2.2,0,3.9-1.8,3.9-3.9l0,0v-5.9c0-2.2-1.8-3.9-3.9-3.9l0,0h-5.9c-2.2,0-3.9,1.8-3.9,3.9l0,0c0,0.3-0.2,0.6-0.4,0.8
				c-0.2-0.2-0.4-0.5-0.4-0.8l0,0c0-2.2-1.8-3.9-3.9-3.9h-5.9l0,0c-2.2,0-3.9,1.8-3.9,3.9v5.9l0,0c0,2.2,1.8,3.9,3.9,3.9l0,0
				c0.5,0,1,0.4,1,1v0.5c-1.2,0.7-2,2-2,3.4h-3.8l0,0c-1.1,0-2-0.9-2-2v-5.9l0,0c0-2.2-1.8-3.9-3.9-3.9l0,0l0,0
				c-2.7,0-4.9-2.2-4.9-4.9s2.2-4.9,4.9-4.9l0,0l0,0h13.1l0,0c1.6,0,3-1.3,3-3v-2l0,0c0-0.5,0.4-1,1-1c0.5,0,1,0.4,1,1l0,0v2
				c0,1.6,1.3,3,3,3c1.6,0,3-1.3,3-3l0,0c0-0.5,0.4-1,1-1c0.5,0,1,0.4,1,1l0,0c0,1.6,1.3,3,3,3l0,0h12.8l0,0l0,0
				c2.7,0,4.9,2.2,4.9,4.9C63.4,32.6,61.2,34.8,58.4,34.8z"/>
		</g>
	</g>
</g>
<g class="st0">
	<g class="st1">
		<g>
			<path d="M55,63.9L55,63.9L55,63.9c-1.1,0-2-0.9-2-2V35.6l0,0c0-2.2-1.8-3.9-3.9-3.9c-0.5,0-1,0.4-1,1c0,0.5,0.4,1,1,1l0,0l0,0
				c1.1,0,2,0.9,2,2v26.4l0,0c0,2.2,1.8,3.9,3.9,3.9c0.5,0,1-0.4,1-1S55.7,63.9,55,63.9z"/>
			<path d="M25.6,31.6c-2.2,0-3.9,1.8-3.9,3.9l0,0v26.4c0,1.1-0.9,2-2,2l0,0l0,0c-0.5,0-1,0.4-1,1s0.4,1,1,1c2.2,0,3.9-1.8,3.9-3.9
				l0,0V35.6c0-1.1,0.9-2,2-2l0,0l0,0c0.5,0,1-0.4,1-1C26.6,32.1,26.2,31.6,25.6,31.6z"/>
			<path d="M44.4,53.2L44.4,53.2c0-0.5-0.4-1-1-1c-0.5,0-1,0.4-1,1V71c0,0.5-0.4,1-1,1s-1-0.4-1-1l0,0V59.2l0,0c0-1.6-1.3-3-3-3
				s-3,1.3-3,3v7.9l0,0c0,0.5-0.4,1-1,1s-1-0.4-1-1l0,0V53.2l0,0c0-0.5-0.4-1-1-1s-1,0.4-1,1l0,0V67c0,1.6,1.3,3,3,3s3-1.3,3-3v-7.9
				l0,0c0-0.5,0.4-1,1-1s1,0.4,1,1l0,0v11.8l0,0c0,1.6,1.3,3,3,3c1.6,0,3-1.3,3-3l0,0V53.2L44.4,53.2z"/>
			<path d="M50.3,16.8c0-2.2-1.8-3.9-3.9-3.9l0,0l0,0l0,0c-2.2,0-3.9,1.8-3.9,3.9l0,0v3.9l0,0c0,0.5-0.4,1-1,1c-0.5,0-1-0.4-1-1l0,0
				V8.9c0-1.6-1.3-3-3-3c-1.6,0-3,1.3-3,3l0,0v7.9c0,0.5-0.4,1-1,1s-1-0.4-1-1V5c0-2.2-1.8-3.9-3.9-3.9l0,0l0,0l0,0
				c-2.2,0-3.9,1.8-3.9,3.9v21.7l0,0l0,0l0,0c0,2.2,1.8,3.9,3.9,3.9l0,0h3.9c1.1,0,2,0.9,2,2l0,0v2c0,1.6,1.3,3,3,3s3-1.3,3-3l0,0
				v-2l0,0c0-1.1,0.9-2,2-2l0,0l0,0h3.9l0,0c2.2,0,3.9-1.8,3.9-3.9l0,0V16.8L50.3,16.8z M48.3,26.7c0,1.1-0.9,2-2,2h-3.9l0,0l0,0
				l0,0c-2.2,0-3.9,1.8-3.9,3.9l0,0v2l0,0c0,0.5-0.4,1-1,1c-0.5,0-1-0.4-1-1l0,0v-2l0,0c0-2.2-1.8-3.9-3.9-3.9l0,0h-3.9
				c-1.1,0-2-0.9-2-2l0,0l0,0V5c0-1.1,0.9-2,2-2l0,0c1.1,0,2,0.9,2,2v11.8c0,1.6,1.3,3,3,3c1.6,0,3-1.3,3-3l0,0V8.9l0,0
				c0-0.5,0.4-1,1-1c0.5,0,1,0.4,1,1l0,0v11.8l0,0c0,1.6,1.3,3,3,3c1.6,0,3-1.3,3-3v-3.9l0,0c0-1.1,0.9-2,2-2l0,0c1.1,0,2,0.9,2,2
				l0,0L48.3,26.7L48.3,26.7z"/>
			<path d="M45.3,35.5c-1.6,0-3,1.3-3,3V41c-0.6-0.3-1.3-0.5-2-0.5l0,0h-5.9c-0.7,0-1.4,0.2-2,0.5v-2.5c0-1.6-1.3-3-3-3
				c-1.6,0-3,1.3-3,3c0,1.6,1.3,3,3,3c0.3,0,0.7-0.1,1-0.2v3l0,0v3.1c0,2.2,1.8,3.9,3.9,3.9l0,0l0,0h0.1h0.1c0.4,1.1,1.5,2,2.8,2
				s2.4-0.8,2.8-2h0.3l0,0c2.2,0,3.9-1.8,3.9-3.9l0,0v-1.7v-1.2v-0.1l0,0l0,0v-3.1c0.3,0.1,0.6,0.2,1,0.2c1.6,0,3-1.3,3-3
				C48.3,36.8,47,35.5,45.3,35.5z M29.6,39.5c-0.5,0-1-0.4-1-1s0.4-1,1-1s1,0.4,1,1C30.5,39,30.1,39.5,29.6,39.5z M34.5,49.3
				L34.5,49.3c-1.1,0-2-0.9-2-2v-0.2c0.3,0.1,0.6,0.2,1,0.2l0,0c0.5,0,1,0.4,1,1l0,0V49.3z M38.4,48.3L38.4,48.3v2c0,0.5-0.4,1-1,1
				c-0.5,0-1-0.4-1-1v-2l0,0c0-1.6-1.3-3-3-3l0,0c-0.5,0-1-0.4-1-1l0,0l0,0c0-1.1,0.9-2,2-2h6l0,0c1.1,0,2,0.9,2,2l0,0
				c0,0.5-0.4,1-1,1l0,0C39.8,45.3,38.4,46.7,38.4,48.3z M40.4,49.3v-1l0,0c0-0.5,0.4-1,1-1l0,0c0.3,0,0.7-0.1,1-0.2v0.2l0,0
				C42.4,48.4,41.5,49.3,40.4,49.3z M45.3,39.5c-0.5,0-1-0.4-1-1s0.4-1,1-1s1,0.4,1,1C46.3,39,45.9,39.5,45.3,39.5z"/>
		</g>
	</g>
</g>
<g class="st0">
	<g class="st1">
		<g>
			<path d="M65.9,19.5L65.9,19.5H62c-0.5,0-1,0.4-1,1c0,0.5,0.4,1,1,1h3.9l0,0c1.1,0,2,0.9,2,2l0,0v11.8c0,1.1-0.9,2-2,2l0,0H62
				c-1.1,0-2-0.9-2-2l0,0V23.4l0,0l0,0c0-2.2-1.8-3.9-3.9-3.9H18.6c-2.2,0-3.9,1.8-3.9,3.9l0,0l0,0v11.8l0,0c0,1.1-0.9,2-2,2H8.8
				l0,0c-1.1,0-2-0.9-2-2V23.4l0,0c0-1.1,0.9-2,2-2l0,0h3.9c0.5,0,1-0.4,1-1c0-0.5-0.4-1-1-1H8.8l0,0c-2.2,0-3.9,1.8-3.9,3.9l0,0
				v11.8c0,2.2,1.8,3.9,3.9,3.9l0,0h3.9c2.2,0,3.9-1.8,3.9-3.9l0,0V23.4l0,0l0,0c0-1.1,0.9-2,2-2H56c1.1,0,2,0.9,2,2l0,0l0,0v11.8
				l0,0c0,2.2,1.8,3.9,3.9,3.9h3.9l0,0c2.2,0,3.9-1.8,3.9-3.9V23.4l0,0C69.9,21.2,68.2,19.5,65.9,19.5z"/>
			<path d="M55.2,23.4c-0.5,0-1,0.4-1,1v17.8l0,0c0,1.1-0.9,2-2,2h-3.9c-0.5,0-1,0.4-1,1c0,0.5,0.4,1,1,1h3.9c2.2,0,3.9-1.8,3.9-3.9
				l0,0V24.4C56.2,23.9,55.7,23.4,55.2,23.4z"/>
			<path d="M26.5,44.2h-3.9c-1.1,0-2-0.9-2-2l0,0V24.4c0-0.5-0.4-1-1-1c-0.5,0-1,0.4-1,1v17.8l0,0c0,2.2,1.8,3.9,3.9,3.9h3.9
				c0.5,0,1-0.4,1-1C27.5,44.6,27.1,44.2,26.5,44.2z"/>
			<path d="M52.2,30.8c0-2.2-1.8-3.9-3.9-3.9c-2.2,0-3.9,1.8-3.9,3.9v21.7l0,0c0,0.5-0.4,1-1,1l0,0c-0.5,0-1-0.4-1-1v-2v-2
				c0-1.6-1.3-3-3-3h-1v-2l4-4c0.4-0.4,0.4-1,0-1.4c-0.2-0.2-0.4-0.3-0.6-0.3l0,0h-8.5c-0.3,0-0.5,0.1-0.8,0.3c-0.4,0.4-0.4,1,0,1.4
				l4,4v2h-1c-1.6,0-3,1.3-3,3v2v2c0,0.5-0.4,1-1,1l0,0c-0.5,0-1-0.4-1-1V30.8c0-2.2-1.8-3.9-3.9-3.9s-3.9,1.8-3.9,3.9
				s1.8,3.9,3.9,3.9c0.7,0,1.4-0.2,2-0.5v18.3l0,0c0,1.6,1.3,3,3,3l0,0c1.6,0,3-1.3,3-3h5.8c0,1.6,1.3,3,3,3l0,0c1.6,0,3-1.3,3-3
				l0,0V34.3c0.6,0.3,1.3,0.5,2,0.5C50.4,34.8,52.2,33,52.2,30.8z M26.5,32.8c-1.1,0-2-0.9-2-2s0.9-2,2-2s2,0.9,2,2
				S27.6,32.8,26.5,32.8z M35.5,40h3.7l-1.8,1.9L35.5,40z M40.4,50.6h-6v-2l0,0c0-0.5,0.4-1,1-1h4c0.5,0,1,0.4,1,1V50.6L40.4,50.6z
				 M46.3,30.8c0-1.1,0.9-2,2-2s2,0.9,2,2s-0.9,2-2,2C47.2,32.8,46.3,31.9,46.3,30.8z"/>
		</g>
	</g>
</g>
<g class="st0">
	<g class="st1">
		<g>
			<path d="M30.5,41c0,1.6,1.3,3,3,3s3-1.3,3-3c0-1.6-1.3-3-3-3S30.5,39.4,30.5,41z M34.4,41c0,0.5-0.4,1-1,1c-0.5,0-1-0.4-1-1
				c0-0.5,0.4-1,1-1S34.4,40.5,34.4,41z"/>
			<path d="M41.3,37.9c-1.6,0-3,1.3-3,3c0,1.6,1.3,3,3,3s3-1.3,3-3C44.3,39.3,43,37.9,41.3,37.9z M41.3,41.9c-0.5,0-1-0.4-1-1
				c0-0.5,0.4-1,1-1c0.5,0,1,0.4,1,1S41.9,41.9,41.3,41.9z"/>
			<path d="M25.6,37c0.3,0,0.7-0.1,1-0.2v7.1l0,0c0,2.2,1.8,3.9,3.9,3.9l0,0l0,0c0,2.2,1.8,3.9,3.9,3.9h6l0,0l0,0
				c2.2,0,3.9-1.8,3.9-3.9l0,0c2.2,0,3.9-1.8,3.9-3.9v-7.1c0.3,0.1,0.6,0.2,1,0.2c1.6,0,3-1.3,3-3c0-1.6-1.3-3-3-3c-1.6,0-3,1.3-3,3
				v9.9c0,1.1-0.9,2-2,2l0,0H30.5c-1.1,0-2-0.9-2-2l0,0V34c0-1.6-1.3-3-3-3c-1.6,0-3,1.3-3,3C22.6,35.7,23.9,37,25.6,37z M49.2,33.1
				c0.5,0,1,0.4,1,1c0,0.5-0.4,1-1,1c-0.5,0-1-0.4-1-1C48.3,33.5,48.7,33.1,49.2,33.1z M32.5,47.9h9.9c0,1.1-0.9,2-2,2l0,0l0,0h-6
				C33.3,49.9,32.5,49,32.5,47.9L32.5,47.9z M25.6,33.1c0.5,0,1,0.4,1,1c0,0.5-0.4,1-1,1c-0.5,0-1-0.4-1-1S25,33.1,25.6,33.1z"/>
			<path d="M64,19.2L64,19.2H58c-2.2,0-3.9,1.8-3.9,3.9l0,0l0,0v28.7l0,0c0,1.1-0.9,2-2,2l0,0H22.6c-1.1,0-2-0.9-2-2l0,0V23.2l0,0
				c0-2.2-1.8-3.9-3.9-3.9h-5.9l0,0c-2.2,0-3.9,1.8-3.9,3.9v3.9l0,0c0,2.2,1.8,3.9,3.9,3.9h3.9l0,0c0.5,0,1-0.4,1-1c0-0.5-0.4-1-1-1
				l0,0h-3.9c-1.1,0-2-0.9-2-2l0,0v-3.9c0-1.1,0.9-2,2-2l0,0h5.9c1.1,0,2,0.9,2,2l0,0v28.6l0,0c0,2.2,1.8,3.9,3.9,3.9h29.6l0,0
				c2.2,0,3.9-1.8,3.9-3.9l0,0V23.1l0,0l0,0c0-1.1,0.9-2,2-2H64l0,0c1.1,0,2,0.9,2,2V27l0,0c0,1.1-0.9,2-2,2h-3.9c-0.5,0-1,0.4-1,1
				s0.4,1,1,1H64c2.2,0,3.9-1.8,3.9-3.9l0,0v-3.9C67.9,21,66.2,19.2,64,19.2z"/>
			<path d="M43.3,33.1H31.5c-0.5,0-1,0.4-1,1c0,0.5,0.4,1,1,1h11.8c0.5,0,1-0.4,1-1C44.3,33.5,43.9,33.1,43.3,33.1z"/>
			<path d="M23.6,25.2L23.6,25.2L23.6,25.2h27.6l0,0c0.5,0,1-0.4,1-1c0-0.5-0.4-1-1-1l0,0H23.6l0,0c-0.5,0-1,0.4-1,1
				S23,25.2,23.6,25.2z"/>
		</g>
	</g>
</g>
</svg>
