<?xml version="1.0" encoding="utf-8"?>
<!-- Generator: Adobe Illustrator 22.0.1, SVG Export Plug-In . SVG Version: 6.00 Build 0)  -->
<svg version="1.1" id="Layer_1" xmlns="http://www.w3.org/2000/svg" xmlns:xlink="http://www.w3.org/1999/xlink" x="0px" y="0px"
	 viewBox="0 0 101 100.8" style="enable-background:new 0 0 101 100.8;" xml:space="preserve">
<style type="text/css">
	.st0{fill:#FFFFFF;}
</style>
<path class="st0" d="M50.5,18.6l5.8-5.9c0.6-0.6,1.2-1.1,1.9-1.5c1.2-0.8,2.6-1.3,4-1.6c0.6-0.1,1.2-0.2,1.8-0.2c0.2,0,0.3,0,0.5,0
	c0.5,0,1,0,1.5,0.1c1.2,0.2,2.3,0.5,3.4,1c1,0.5,2,1.2,2.9,2s1.6,1.8,2.2,2.8c0.6,1.2,1.1,2.4,1.3,3.7c0.3,2,0.1,4.1-0.6,5.9
	c-0.1,0.2-0.2,0.4-0.3,0.7c0.8-0.4,1.7-0.7,2.6-0.8c0.6-0.1,1.2-0.2,1.8-0.2c0.2,0,0.3,0,0.5,0c0.5,0,1,0,1.5,0.1
	c1.2,0.2,2.3,0.5,3.4,1c1,0.5,2,1.2,2.9,2c0.8,0.8,1.6,1.7,2.1,2.8c0.6,1.1,1.1,2.4,1.3,3.7c0.3,2,0.1,4.1-0.6,6.1
	c-0.4,1-0.9,2-1.6,2.8c-0.3,0.4-0.6,0.8-1,1.1l-6,5.8c1.2,1.2,2.4,2.4,3.6,3.5c0.8,0.8,1.5,1.5,2.3,2.3c0.3,0.4,0.7,0.7,1,1.1
	c0.7,0.9,1.3,1.9,1.7,3c0.7,1.8,0.9,3.9,0.6,5.8c-0.3,1.6-0.8,3.1-1.7,4.4c-0.7,1.1-1.6,2-2.6,2.8c-0.9,0.7-2,1.3-3.1,1.7
	c-1.3,0.5-2.6,0.7-3.9,0.7c-1.4,0-2.9-0.3-4.2-0.8c-0.2-0.1-0.4-0.2-0.6-0.3c0.1,0.3,0.3,0.6,0.4,0.9c0.4,1,0.6,2.1,0.7,3.2
	c0.1,1.2,0,2.4-0.3,3.5c-0.3,1.3-0.9,2.5-1.6,3.6c-0.7,1-1.5,1.9-2.4,2.6s-1.9,1.3-2.9,1.7c-1.2,0.5-2.6,0.8-3.9,0.8
	c-1.4,0-2.8-0.2-4.2-0.7c-1.1-0.4-2.1-0.9-3-1.6c-0.4-0.3-0.8-0.7-1.2-1.1l-5.9-5.9l-5.7,5.9c-0.4,0.4-0.8,0.7-1.2,1.1
	c-0.9,0.7-1.9,1.2-3,1.6c-1.3,0.5-2.8,0.7-4.2,0.7c-1.3,0-2.7-0.3-3.9-0.8c-1.1-0.4-2.1-1-3-1.8s-1.8-1.7-2.4-2.7
	c-0.8-1.2-1.3-2.5-1.6-3.9c-0.4-2.1-0.2-4.3,0.5-6.3c0.1-0.3,0.2-0.5,0.3-0.8c-0.3,0.1-0.6,0.3-1,0.4c-1.9,0.7-3.9,0.8-5.8,0.5
	c-1.3-0.2-2.6-0.7-3.7-1.3c-1.1-0.6-2.1-1.4-2.9-2.4c-0.8-0.9-1.4-1.9-1.9-2.9c-0.6-1.3-0.9-2.7-1-4.1c-0.1-1.5,0.2-3,0.7-4.5
	c0.4-1.1,0.9-2.1,1.6-3c0.3-0.4,0.7-0.8,1-1.2l5.8-5.9l-0.7-0.7c-1.8-1.7-3.5-3.5-5.2-5.2c-0.1-0.1-0.1-0.1-0.2-0.2
	c-0.3-0.3-0.6-0.7-0.8-1c-0.6-0.8-1.1-1.8-1.5-2.7c-0.7-1.8-0.9-3.7-0.6-5.6c0.2-1.3,0.6-2.5,1.2-3.7c0.6-1.1,1.3-2.1,2.1-2.9
	s1.8-1.5,2.8-2c1.1-0.6,2.3-0.9,3.5-1.1c0.5-0.1,1-0.1,1.5-0.1c0.2,0,0.4,0,0.5,0c0.6,0,1.2,0.1,1.8,0.2c1,0.2,1.9,0.5,2.8,0.9
	c-0.1-0.3-0.2-0.6-0.3-0.8c-0.7-1.8-0.9-3.7-0.6-5.6c0.2-1.3,0.6-2.6,1.3-3.8c0.6-1,1.3-2,2.1-2.8c0.8-0.8,1.8-1.5,2.8-2
	c1.1-0.5,2.2-0.9,3.4-1.1c0.5-0.1,1-0.1,1.5-0.1c0.2,0,0.4,0,0.5,0c0.6,0,1.2,0.1,1.8,0.2c1.5,0.3,2.9,0.8,4.2,1.6
	c0.7,0.4,1.3,1,1.9,1.5C44.6,12.8,50.5,18.6,50.5,18.6z M58.5,65.6L41,83.6c-0.5,0.5-1.2,1-1.9,1.3c-0.9,0.4-1.9,0.6-2.9,0.6
	c-0.9,0-1.8-0.3-2.5-0.7c-0.6-0.3-1.1-0.7-1.6-1.1c-0.5-0.5-1-1.1-1.3-1.8c-0.4-0.7-0.6-1.5-0.6-2.3c-0.1-0.9,0-1.7,0.3-2.5
	c0.2-0.6,0.5-1.2,0.9-1.8c0.1-0.2,0.3-0.4,0.5-0.6c0.7-0.8,1.5-1.5,2.2-2.3c1.4-1.5,2.9-2.9,4.3-4.4c-0.7-0.7-2.2-2.3-2.2-2.3
	c-2.2,2.2-4.4,4.4-6.6,6.6c-0.3,0.3-0.6,0.6-0.8,1c-0.6,0.8-1,1.6-1.4,2.6c-0.6,1.6-0.7,3.4-0.4,5c0.2,1.3,0.7,2.5,1.5,3.6
	c0.6,0.8,1.2,1.6,2,2.2c0.7,0.6,1.6,1.1,2.5,1.4c1,0.4,2.2,0.6,3.3,0.7c1.2,0,2.4-0.2,3.5-0.6c0.9-0.3,1.7-0.8,2.5-1.4
	c0.4-0.3,0.7-0.6,1-0.9l17.6-18.1C60.9,67.9,58.5,65.6,58.5,65.6z M53.2,54.4l-2.4,2.4l18,17.8c0.1,0.1,0.2,0.2,0.2,0.2
	c0.1,0.1,0.2,0.3,0.4,0.4c0.3,0.4,0.6,0.9,0.8,1.4c0.4,0.9,0.5,1.8,0.5,2.8s-0.3,1.9-0.8,2.8c-0.3,0.5-0.7,1.1-1.1,1.5
	c-0.5,0.5-1.1,0.9-1.8,1.2c-0.7,0.3-1.5,0.5-2.3,0.6c-0.8,0-1.7-0.1-2.5-0.3c-0.6-0.2-1.2-0.5-1.7-0.9c-0.2-0.2-0.4-0.4-0.7-0.6
	c-0.3-0.3-0.6-0.6-0.9-0.9c-1.9-1.9-5.8-5.9-5.8-5.9l-2.4,2.4l6.6,6.6c0.3,0.3,0.6,0.6,1,0.8c0.8,0.6,1.7,1.1,2.6,1.4
	c1.1,0.4,2.3,0.6,3.5,0.6c1.1,0,2.3-0.3,3.3-0.7c0.9-0.4,1.7-0.8,2.5-1.4s1.5-1.4,2-2.2c0.6-0.9,1.1-1.9,1.3-3c0.2-1,0.3-2,0.3-3
	c-0.1-0.9-0.3-1.8-0.6-2.7c-0.3-0.9-0.8-1.8-1.4-2.6c-0.3-0.3-0.5-0.6-0.8-0.9C71.2,72.3,53.2,54.4,53.2,54.4z M61.5,69.9l-6.3,6.5
	c0.9,1,1.9,1.9,2.8,2.9c1,1.1,2.1,2.1,3.2,3.2c0.1,0.1,0.1,0.1,0.2,0.1c0.2,0.2,0.4,0.3,0.6,0.4c0.3,0.2,0.7,0.4,1.1,0.5
	c0.6,0.2,1.2,0.2,1.8,0.2c0.6-0.1,1.1-0.2,1.7-0.5c0.5-0.2,0.9-0.6,1.2-0.9c0.3-0.3,0.6-0.8,0.8-1.2c0.5-1.2,0.6-2.5,0.1-3.7
	c-0.1-0.3-0.3-0.7-0.6-1c-0.1-0.2-0.2-0.3-0.4-0.4l-0.1-0.1L61.5,69.9L61.5,69.9z M39,70.1c-0.8,0.8-1.5,1.5-2.3,2.3
	c-1.1,1.1-2.1,2.1-3.2,3.2L33.2,76c-0.1,0.1-0.2,0.2-0.3,0.3c-0.3,0.4-0.6,0.9-0.7,1.3c-0.2,0.6-0.3,1.2-0.2,1.8
	c0,0.6,0.2,1.1,0.4,1.7c0.2,0.5,0.6,0.9,0.9,1.3c0.3,0.3,0.7,0.6,1.1,0.8c1.2,0.6,2.7,0.6,3.9,0.1c0.5-0.2,0.9-0.5,1.3-0.9l0,0
	l5.7-5.9C45.4,76.5,39,70.1,39,70.1z M38.1,62c-0.8,0.8-1.5,1.5-2.3,2.3L47.4,76l2.3-2.4C45.9,69.7,38.1,62,38.1,62z M68.4,39.4
	l-2.3,2.3L84,59.4c0.1,0.1,0.2,0.2,0.2,0.2c0.1,0.1,0.2,0.3,0.4,0.4c0.3,0.4,0.6,0.9,0.8,1.4c0.3,0.8,0.5,1.7,0.5,2.5
	c0,0.9-0.2,1.9-0.7,2.8c-0.3,0.6-0.7,1.1-1.1,1.6c-0.5,0.5-1.1,1-1.7,1.3c-0.7,0.4-1.5,0.6-2.4,0.7c-0.8,0.1-1.7,0-2.5-0.3
	c-0.6-0.2-1.2-0.5-1.8-0.9c-0.2-0.1-0.4-0.3-0.6-0.5c-0.7-0.6-1.3-1.3-2-1.9c-1.3-1.2-5-4.9-5-4.9L66,64c2.3,2.3,4.6,4.5,6.8,6.8
	c0.1,0.1,0.1,0.1,0.2,0.2c0.3,0.3,0.6,0.5,0.9,0.7c0.8,0.6,1.7,1,2.6,1.3c1.2,0.4,2.5,0.5,3.8,0.4c1.2-0.1,2.3-0.4,3.4-0.9
	c0.9-0.4,1.7-1,2.4-1.7c0.7-0.7,1.4-1.5,1.9-2.4c0.5-1,0.9-2,1-3.1c0.3-1.7,0.1-3.4-0.5-5c-0.3-0.9-0.8-1.7-1.4-2.4
	c-0.2-0.3-0.5-0.6-0.7-0.9c-0.4-0.4-0.8-0.8-1.2-1.2C84.5,55.2,68.4,39.4,68.4,39.4L68.4,39.4z M21,50.5l-6.5,6.6
	c-0.3,0.3-0.6,0.6-0.8,1c-0.6,0.8-1.1,1.6-1.4,2.6c-0.4,1.2-0.6,2.5-0.6,3.8c0.1,1.2,0.3,2.4,0.8,3.5c0.4,0.9,0.9,1.7,1.6,2.5
	c0.7,0.8,1.5,1.5,2.4,2c1,0.6,2,0.9,3.1,1.1c1.6,0.3,3.3,0.1,4.9-0.4c0.9-0.3,1.7-0.7,2.4-1.3c0.3-0.2,0.6-0.5,0.9-0.7
	c0.2-0.2,0.4-0.4,0.7-0.6c2.1-2,17.6-17.5,17.6-17.5l-2.3-2.3c-2.6,2.6-15.8,15.7-18,17.9c-0.1,0.1-0.2,0.2-0.2,0.2
	c-0.1,0.1-0.3,0.2-0.4,0.4c-0.4,0.3-0.8,0.5-1.3,0.7c-0.9,0.4-1.8,0.5-2.7,0.5c-1,0-2-0.3-2.9-0.8c-0.5-0.3-1.1-0.7-1.5-1.1
	c-0.5-0.5-0.9-1.1-1.2-1.8c-0.3-0.7-0.5-1.5-0.6-2.3c0-0.8,0.1-1.7,0.3-2.4c0.2-0.6,0.5-1.2,0.9-1.8c0.1-0.2,0.3-0.4,0.5-0.6
	c0.6-0.6,1.2-1.2,1.8-1.8c1.6-1.6,4.9-5.1,4.9-5.1L21,50.5z M50.3,71.5l6.3-6.5l-6.3-6.3l-6.4,6.4c2,2,4.1,4.1,6.1,6.1
	C50,71.3,50.3,71.5,50.3,71.5z M76.9,54.8l-6.6,6.4c2,2,4.1,4,6.1,6c0.5,0.4,1,0.8,1.6,1s1.2,0.3,1.8,0.3c0.6,0,1.2-0.2,1.7-0.4
	c0.5-0.2,0.9-0.5,1.2-0.9c0.4-0.3,0.7-0.8,0.9-1.2c0.6-1.2,0.7-2.6,0.2-3.9c-0.1-0.3-0.3-0.7-0.6-1c-0.1-0.2-0.2-0.3-0.4-0.4
	l-0.1-0.1C82.8,60.7,76.9,54.8,76.9,54.8z M23.9,54.7c-0.5,0.5-1,1-1.4,1.4c-1.5,1.5-3,3-4.5,4.6c-0.1,0.1-0.1,0.1-0.2,0.2
	c-0.1,0.2-0.3,0.4-0.4,0.6c-0.2,0.4-0.4,0.7-0.5,1.1c-0.2,0.6-0.2,1.2-0.1,1.8c0.1,0.6,0.2,1.1,0.5,1.6c0.2,0.5,0.6,0.9,1,1.2
	c0.3,0.3,0.7,0.6,1.1,0.7c1.2,0.5,2.5,0.6,3.7,0.1c0.3-0.1,0.7-0.3,1-0.6c0.2-0.1,0.3-0.3,0.5-0.4l6-5.9l-0.4-0.4
	C28.1,58.8,26,56.8,23.9,54.7z M51.3,50.6L39.6,62.3l2.3,2.3l11.7-11.8C53.7,52.9,51.3,50.6,51.3,50.6z M75,51.6
	c-0.3-0.3-0.7-0.6-1-1l-0.1-0.1C70,54.3,66.1,58.2,62.2,62l2.3,2.3l11.8-11.5C76.3,52.8,75,51.6,75,51.6z M34.6,35.8
	c-2.2-2.2-4.4-4.4-6.6-6.6c-0.5-0.5-1-0.9-1.6-1.3c-1-0.6-2.2-1.1-3.4-1.3c-0.4-0.1-0.9-0.1-1.3-0.1c-0.2,0-0.3,0-0.5,0
	c-0.4,0-0.9,0-1.3,0.1c-0.8,0.1-1.6,0.3-2.4,0.7c-0.9,0.4-1.7,0.9-2.5,1.5c-0.9,0.7-1.6,1.6-2.1,2.6c-0.6,1.1-1,2.2-1.2,3.4
	c-0.2,1.6,0,3.2,0.5,4.6c0.3,0.9,0.8,1.7,1.3,2.5c0.2,0.3,0.5,0.6,0.7,0.9c0.2,0.2,0.4,0.4,0.7,0.7c2,2,16.2,16,17.6,17.3l2.3-2.3
	l-18-17.8c-0.2-0.2-0.4-0.4-0.5-0.6c-0.3-0.4-0.6-0.9-0.8-1.4c-0.4-0.9-0.6-1.8-0.5-2.7c0-1,0.3-1.9,0.7-2.8
	c0.3-0.6,0.7-1.1,1.1-1.5c0.5-0.5,1.1-0.9,1.8-1.3c0.7-0.4,1.5-0.6,2.4-0.6c0.8-0.1,1.7,0.1,2.5,0.3c0.6,0.2,1.2,0.5,1.7,0.9
	c0.2,0.2,0.5,0.4,0.7,0.5c0.3,0.3,0.6,0.6,0.9,0.9c1.9,1.8,5.8,5.8,5.8,5.8L34.6,35.8z M53.2,46.6l-2.3,2.3l11.6,11.6l2.3-2.3
	C61.3,54.7,53.2,46.6,53.2,46.6z M28.8,49.9l6.6,6.5l6.4-6.4l-6.6-6.5C35.2,43.6,28.8,49.9,28.8,49.9z M65.4,56.3l6.5-6.4l-6.3-6.3
	L59.2,50C61.3,52.2,63.4,54.2,65.4,56.3z M38,39.3l-2.3,2.3l11.9,11.6l2.2-2.3C47,48.1,38,39.3,38,39.3z M57.3,49.5L75,31.6
	c0.2-0.2,0.4-0.4,0.6-0.6c0.5-0.4,1.1-0.7,1.7-0.9c0.8-0.3,1.6-0.4,2.5-0.4c0.8,0,1.6,0.2,2.4,0.6c0.7,0.3,1.2,0.7,1.8,1.2
	c0.5,0.4,0.8,0.9,1.1,1.5c0.5,0.8,0.7,1.7,0.8,2.6c0.1,1-0.1,2-0.5,2.9c-0.2,0.5-0.4,0.9-0.7,1.3c-0.2,0.2-0.3,0.4-0.5,0.6
	c-0.2,0.2-0.3,0.3-0.5,0.5c-2,2-4,4-5.9,5.9l-0.3,0.3l2.3,2.3l6.6-6.5c0.3-0.3,0.6-0.6,0.8-0.9c0.6-0.7,1-1.5,1.3-2.4
	c0.6-1.6,0.8-3.3,0.5-5c-0.2-1.1-0.5-2.2-1.1-3.2c-0.5-0.9-1.1-1.7-1.9-2.4c-0.7-0.6-1.5-1.2-2.3-1.6c-0.9-0.4-1.9-0.7-2.9-0.9
	c-0.4-0.1-0.8-0.1-1.2-0.1c-0.1,0-0.1,0-0.2,0c-0.5,0-1.1,0.1-1.6,0.2c-1.2,0.2-2.3,0.7-3.4,1.3c-0.4,0.3-0.8,0.5-1.2,0.9
	c-0.2,0.2-0.4,0.3-0.6,0.5L55,47.2L57.3,49.5L57.3,49.5z M36.2,35.3L24.5,47l2.3,2.3l11.7-11.7C37.7,36.9,37,36.1,36.2,35.3z
	 M58.9,35.2L47.1,47l2.3,2.3l11.8-11.7L58.9,35.2z M49.9,20.6c-2.2-2.2-4.4-4.5-6.7-6.7c-0.5-0.5-1-0.9-1.6-1.3
	c-1-0.6-2.1-1.1-3.3-1.3c-0.5-0.1-0.9-0.1-1.4-0.2c-0.2,0-0.3,0-0.5,0c-0.4,0-0.9,0-1.3,0.1c-0.8,0.1-1.6,0.3-2.4,0.7
	c-0.9,0.4-1.7,0.9-2.5,1.5c-0.8,0.7-1.5,1.5-2,2.4c-0.6,1-1,2.2-1.2,3.4c-0.3,1.6-0.1,3.3,0.5,4.9c0.3,0.9,0.8,1.7,1.3,2.4
	c0.2,0.3,0.5,0.6,0.7,0.9c0.2,0.2,0.4,0.4,0.7,0.7c2,2,16.1,15.9,17.4,17.2l2.3-2.3L32,25.4c-0.1-0.1-0.2-0.2-0.2-0.2
	c-0.1-0.1-0.2-0.3-0.4-0.4c-0.3-0.4-0.5-0.8-0.7-1.3c-0.4-0.9-0.6-1.8-0.5-2.8c0-1,0.3-2,0.8-2.9c0.3-0.5,0.7-1.1,1.1-1.5
	c0.5-0.5,1.1-0.9,1.8-1.2s1.5-0.5,2.3-0.6s1.7,0.1,2.4,0.3c0.6,0.2,1.2,0.5,1.7,0.9c0.2,0.2,0.5,0.4,0.7,0.5
	c0.3,0.3,0.6,0.6,0.9,0.9c1.9,1.9,5.8,5.8,5.8,5.8L49.9,20.6z M76.9,45.2c1.1-1.1,2.2-2.2,3.3-3.3c0.9-0.9,1.8-1.8,2.7-2.7
	c0.1-0.1,0.1-0.1,0.2-0.2c0.3-0.4,0.6-0.8,0.8-1.3c0.5-1.2,0.4-2.6-0.2-3.8c-0.2-0.4-0.5-0.8-0.9-1.2S82,32,81.5,31.8
	c-0.5-0.2-1.1-0.4-1.7-0.4s-1.2,0.1-1.8,0.3c-0.4,0.2-0.8,0.4-1.2,0.7c-0.2,0.1-0.3,0.3-0.5,0.4l-5.9,6c1.1,1.1,2.2,2.1,3.2,3.2
	C74.7,43.1,75.8,44.1,76.9,45.2z M30.4,38.6c-0.9-0.9-1.8-1.8-2.8-2.8c-1.1-1-2.1-2.1-3.2-3.1c-0.1-0.1-0.1-0.1-0.2-0.1
	c-0.2-0.2-0.4-0.3-0.6-0.4c-0.4-0.2-0.8-0.4-1.2-0.5c-0.6-0.2-1.2-0.2-1.8-0.1c-0.6,0.1-1.1,0.2-1.6,0.5c-0.5,0.2-0.9,0.6-1.2,1
	c-0.3,0.3-0.6,0.7-0.7,1.1c-0.6,1.2-0.6,2.6,0,3.8c0.2,0.3,0.3,0.7,0.6,1c0.1,0.2,0.2,0.3,0.4,0.4l5.9,5.8L30.4,38.6z M44.1,34.9
	l6.3,6.3l6.5-6.5l-6.4-6.3L44.1,34.9z M53.4,24l-2.3,2.4l11.8,11.7l2.3-2.3C61.5,32.1,53.4,24,53.4,24z M42.2,34.3l17.7-17.9
	c0.1-0.1,0.2-0.2,0.2-0.2c0.2-0.1,0.3-0.3,0.5-0.4c0.4-0.3,0.8-0.5,1.3-0.7c0.8-0.4,1.8-0.5,2.7-0.5c1,0,2,0.3,2.8,0.8
	c0.5,0.3,1.1,0.7,1.5,1.1c0.5,0.5,0.9,1.1,1.2,1.7c0.3,0.7,0.5,1.5,0.6,2.3c0.1,0.9-0.1,1.7-0.3,2.5c-0.2,0.6-0.5,1.2-0.9,1.7
	c-0.2,0.2-0.4,0.4-0.6,0.7c-0.4,0.4-0.9,0.9-1.3,1.3c-1.6,1.6-5.2,5.1-5.2,5.1l2.3,2.3l6.5-6.4c0.3-0.3,0.6-0.6,0.8-0.9
	c0.6-0.8,1.1-1.6,1.4-2.5c0.6-1.6,0.8-3.3,0.5-5c-0.2-1.1-0.6-2.1-1.1-3.1c-0.5-0.9-1.1-1.7-1.9-2.4c-0.7-0.6-1.5-1.2-2.3-1.6
	c-0.9-0.4-1.8-0.7-2.7-0.8c-0.4-0.1-0.7-0.1-1.1-0.1c-0.2,0-0.3,0-0.5,0c-0.5,0-1.1,0.1-1.6,0.2c-1.2,0.2-2.4,0.7-3.4,1.3
	c-0.6,0.4-1.1,0.8-1.6,1.3L39.8,32L42.2,34.3L42.2,34.3z M45.6,23.5c-0.9-0.9-1.9-1.9-2.8-2.8c-1.1-1.1-2.1-2.1-3.2-3.1
	c-0.1-0.1-0.1-0.1-0.2-0.1c-0.2-0.2-0.4-0.3-0.6-0.4c-0.3-0.2-0.7-0.4-1.1-0.5c-0.6-0.2-1.2-0.2-1.9-0.2c-0.6,0.1-1.1,0.2-1.7,0.5
	c-0.5,0.2-0.9,0.6-1.2,1c-0.3,0.3-0.6,0.7-0.7,1.1c-0.6,1.2-0.6,2.6,0,3.8c0.2,0.3,0.3,0.7,0.6,1c0.1,0.2,0.2,0.3,0.4,0.4l6,5.9
	C39.2,30,45.6,23.5,45.6,23.5z M61.8,29.8c1.1-1,2.1-2.1,3.2-3.1c0.9-0.9,1.8-1.8,2.6-2.6c0.1-0.1,0.1-0.1,0.1-0.2
	c0.2-0.2,0.3-0.4,0.4-0.6c0.2-0.4,0.4-0.7,0.5-1.1c0.2-0.6,0.2-1.2,0.2-1.8c-0.1-0.6-0.2-1.1-0.5-1.6c-0.2-0.5-0.6-0.9-0.9-1.2
	c-0.3-0.3-0.8-0.6-1.2-0.8c-1.2-0.6-2.6-0.6-3.8,0c-0.3,0.2-0.7,0.3-1,0.6c-0.2,0.1-0.3,0.2-0.4,0.4l-5.7,5.8
	C57.5,25.6,59.7,27.7,61.8,29.8z"/>
</svg>
