<?xml version="1.0" encoding="utf-8"?>
<!-- Generator: Adobe Illustrator 22.0.1, SVG Export Plug-In . SVG Version: 6.00 Build 0)  -->
<svg version="1.1" id="Layer_1" xmlns="http://www.w3.org/2000/svg" xmlns:xlink="http://www.w3.org/1999/xlink" x="0px" y="0px"
	 viewBox="0 0 28 44" style="enable-background:new 0 0 28 44;" xml:space="preserve">
<style type="text/css">
	.st0{fill:#ED143D;}
</style>
<title>Fichier 1</title>
<g>
	<path class="st0" d="M17.9,29c-0.6-0.2-1.3-0.3-2.1-0.3c-1.5,0-3,2.3-5.4,1.8c-0.4-0.1-0.7-0.2-0.9-0.3c-1.4,2.4-2.8,4.7-3.4,5.8
		c-0.2,0.4,0,1,0.4,1.1c1.3,0.4,4.2,0.6,7.5,0.6s6.1-0.3,7.4-0.6c0.5-0.1,0.7-0.7,0.4-1.1C21.2,34.7,19.5,31.8,17.9,29z"/>
	<path class="st0" d="M25.3,29.9c-0.5-0.4-1.1-0.6-1.7-0.4c-0.2,0.1-0.3,0.3-0.3,0.6c0.1,0.2,0.3,0.4,0.5,0.3c0.3-0.1,0.6,0,0.8,0.2
		c0.3,0.2,0.4,0.5,0.4,0.8c0,0.4-0.4,0.8-0.8,0.9c-0.4,0.2-0.9,0.1-1.4-0.1c-0.9-0.4-1.8-1.4-1.6-2.5c0.1-0.5,0.4-1,0.7-1.6
		c0.4-0.6,0.8-1.2,0.8-2c0.2-1.4-0.9-2.8-2.2-3c-1.2-0.2-2.4,0.7-2.8,1.9c-0.3-0.6-0.5-1.1-0.5-1.2c0-0.5,0-7.7,0-7.7
		c0.9-0.5,1.4-1.1,1.4-1.7c0-1.3-2.1-2.3-4.6-2.3c-2.3,0-4.6,0.9-4.6,2.3c0,0.7,0.5,1.2,1.4,1.7c0,0,0,7.7,0,7.9
		c0,0.1-0.3,0.5-0.6,1.2c-0.3-1.2-1.6-2.2-2.8-2c-1.3,0.2-2.4,1.6-2.2,3c0.1,0.8,0.5,1.4,0.8,2c0.3,0.5,0.6,1,0.7,1.6
		c0.2,1.1-0.7,2.1-1.6,2.5c-0.5,0.2-1,0.2-1.4,0.1c-0.4-0.2-0.7-0.5-0.8-0.9c0-0.3,0.1-0.6,0.4-0.8c0.3-0.2,0.6-0.3,0.8-0.2
		c0.2,0.1,0.5,0,0.5-0.3c0.1-0.2,0-0.5-0.3-0.6c-0.5-0.2-1.2-0.1-1.7,0.4c-0.5,0.4-0.7,1-0.7,1.6C2,32.3,2.5,33,3.3,33.3
		c0.3,0.1,0.6,0.2,0.9,0.2c0.4,0,0.8-0.1,1.1-0.2c0.2-0.1,0.4-0.2,0.6-0.3c-0.8,1.4-1.5,2.7-1.9,3.4c-0.1,0.1-0.2,0.6,0,1
		c0.2,0.4,0.5,0.7,0.9,0.8c1.7,0.5,5.3,0.8,9.2,0.8s7.4-0.3,9.1-0.8c0.4-0.1,0.7-0.4,0.9-0.8c0.2-0.4,0.1-0.8-0.1-1.2
		c-0.4-0.7-1.1-1.9-1.9-3.3c0.1,0.1,0.3,0.2,0.5,0.2c0.4,0.1,0.8,0.2,1.1,0.2c0.3,0,0.6-0.1,0.9-0.2c0.7-0.3,1.3-0.9,1.4-1.7
		C26.1,30.9,25.8,30.3,25.3,29.9z M20.5,26.4c-0.2-0.1-0.5,0-0.6,0.2s-0.2,0.2-0.3,0.3c-0.2,0.1-0.4,0-0.6-0.1
		c-0.3-0.2-0.5-0.7-0.4-1.2c0.1-0.9,1-1.6,1.9-1.5s1.6,1.1,1.5,2c-0.1,0.6-0.4,1.1-0.7,1.6c-0.4,0.6-0.7,1.2-0.8,1.9
		c0,0.1,0,0.2,0,0.3c-0.4-0.7-0.8-1.4-1.1-2c0.2,0,0.4,0,0.6-0.1c0.4-0.1,0.7-0.4,0.9-0.8C20.9,26.7,20.8,26.5,20.5,26.4z M6,26.1
		c-0.1-0.9,0.6-1.9,1.5-2s1.8,0.6,1.9,1.5c0.1,0.5-0.1,1-0.4,1.2c-0.2,0.1-0.4,0.1-0.6,0.1c-0.1,0-0.3-0.1-0.3-0.3
		c-0.1-0.2-0.3-0.3-0.6-0.2c-0.2,0.1-0.3,0.4-0.2,0.6c0.1,0.4,0.5,0.7,0.9,0.8c0.2,0.1,0.4,0.1,0.7,0.1c-0.4,0.7-0.8,1.4-1.2,2.1
		c0-0.1,0-0.2,0-0.3c-0.1-0.7-0.5-1.3-0.8-1.9C6.4,27.1,6,26.6,6,26.1z M23.3,37.1c-0.1,0.1-0.2,0.3-0.3,0.3
		c-1.6,0.5-5.1,0.8-8.9,0.8s-7.4-0.3-9-0.8c-0.2,0-0.3-0.2-0.3-0.3s-0.1-0.3,0-0.4c0.5-0.8,6.5-11.7,6.8-12.1c0.3-0.5,0.2-0.8,0.2-1
		v-7.7c0-0.2-0.1-0.3-0.2-0.4c-0.7-0.5-1.4-0.6-1.4-1c0-0.6,1.7-1.5,3.8-1.5s3.7,0.8,3.7,1.5c0,0.3-0.3,0.7-1.2,1
		c-0.2,0.1-0.2,0.2-0.2,0.4v7.7c0,0.6,0,0.8,0.1,1s6.3,11.3,6.8,12.1l0,0C23.4,36.8,23.4,36.9,23.3,37.1z"/>
	<circle class="st0" cx="13.3" cy="27.8" r="1"/>
	<circle class="st0" cx="14.4" cy="16" r="1"/>
	<circle class="st0" cx="12.1" cy="9.2" r="2"/>
	<circle class="st0" cx="15.4" cy="24.1" r="0.5"/>
	<circle class="st0" cx="14.1" cy="20.6" r="0.5"/>
	<circle class="st0" cx="15.1" cy="6" r="1"/>
</g>
</svg>
