<?xml version="1.0" encoding="utf-8"?>
<!-- Generator: Adobe Illustrator 22.0.1, SVG Export Plug-In . SVG Version: 6.00 Build 0)  -->
<svg version="1.1" id="Layer_1" xmlns="http://www.w3.org/2000/svg" xmlns:xlink="http://www.w3.org/1999/xlink" x="0px" y="0px"
	 viewBox="0 0 64 64.3" style="enable-background:new 0 0 64 64.3;" xml:space="preserve">
<style type="text/css">
	.st0{fill:#FFFFFF;}
</style>
<g>
	<path class="st0" d="M22,48H12c-0.6,0-1,0.4-1,1v8c0,0.4,0.2,0.7,0.5,0.9c0.3,0.2,0.7,0.2,1,0l4.5-2.7l4.5,2.7
		C21.6,58,21.8,58,22,58c0.2,0,0.3,0,0.5-0.1c0.3-0.2,0.5-0.5,0.5-0.9v-8C23,48.4,22.6,48,22,48z M21,55.2l-3.5-2.1
		C17.4,53,17.2,53,17,53s-0.4,0-0.5,0.1L13,55.2V50h8V55.2z"/>
	<rect x="26" y="48" class="st0" width="18" height="2"/>
	<rect x="38" y="52" class="st0" width="18" height="2"/>
	<rect x="27" y="56" class="st0" width="22" height="2"/>
	<rect x="46" y="48" class="st0" width="2" height="2"/>
	<rect x="50" y="48" class="st0" width="2" height="2"/>
	<rect x="54" y="48" class="st0" width="2" height="2"/>
	<rect x="51" y="56" class="st0" width="2" height="2"/>
	<rect x="30" y="52" class="st0" width="4" height="2"/>
	<path class="st0" d="M27,23h5.3l0.7,2l-0.9,2.7c-0.1,0.4,0,0.8,0.2,1l3,3c0.2,0.2,0.5,0.3,0.7,0.3s0.5-0.1,0.7-0.3l3-3
		c0.3-0.3,0.4-0.7,0.2-1L39.1,25l0.7-2H45c0.6,0,1-0.4,1-1v-4v-1c0-5.5-4.5-10-10-10s-10,4.5-10,10v1v4C26,22.6,26.4,23,27,23z
		 M37.1,25.3l0.8,2.4L36,29.6l-1.9-1.9l0.8-2.4c0.1-0.2,0.1-0.4,0-0.6L34.4,23h3.2l-0.6,1.7C37,24.9,37,25.1,37.1,25.3z M44,21h-5
		h-6h-5v-2h16V21z M44,17h-7V9.1C40.9,9.6,44,12.9,44,17z M35,9.1V17h-7C28,12.9,31.1,9.6,35,9.1z"/>
	<path class="st0" d="M61,2H50H22H11c-5,0-9,4-9,9v42c0,5,4,9,9,9h50c0.6,0,1-0.4,1-1V45V34V14V3C62,2.4,61.6,2,61,2z M22.4,44
		L12,33.6V14.4L22.4,4h27.2L60,14.4v19.2L49.6,44H22.4z M12,36.4l7.6,7.6H12V36.4z M60,36.4V44h-7.6L60,36.4z M60,4v7.6L52.4,4H60z
		 M12,11.6V4h7.6L12,11.6z M4,47.3V11c0-3.5,2.6-6.4,6-6.9V14v20v10.1c-0.1,0-0.2,0-0.3,0c-0.2,0-0.4,0.1-0.6,0.1
		c-0.1,0-0.2,0.1-0.4,0.1c-0.2,0-0.4,0.1-0.6,0.2c-0.1,0-0.2,0.1-0.4,0.1c-0.2,0.1-0.4,0.1-0.5,0.2C7.1,44.9,7,44.9,6.9,45
		c-0.2,0.1-0.3,0.2-0.5,0.3c-0.1,0.1-0.2,0.1-0.3,0.2c-0.2,0.1-0.3,0.2-0.5,0.4c-0.1,0.1-0.2,0.1-0.3,0.2c-0.2,0.2-0.4,0.3-0.6,0.5
		c0,0-0.1,0.1-0.1,0.1C4.4,46.8,4.2,47.1,4,47.3C4,47.3,4,47.3,4,47.3z M60,60H11c-3.9,0-7-3.1-7-7s3.1-7,7-7h11h28h10V60z"/>
	<rect x="23" y="34" class="st0" width="6" height="2"/>
	<rect x="31" y="34" class="st0" width="11" height="2"/>
	<rect x="44" y="34" class="st0" width="5" height="2"/>
	<rect x="26" y="38" class="st0" width="20" height="2"/>
</g>
</svg>
