<?xml version="1.0" encoding="utf-8"?>
<!-- Generator: Adobe Illustrator 22.0.1, SVG Export Plug-In . SVG Version: 6.00 Build 0)  -->
<svg version="1.1" id="Layer_1" xmlns="http://www.w3.org/2000/svg" xmlns:xlink="http://www.w3.org/1999/xlink" x="0px" y="0px"
	 viewBox="0 0 100 103.2" style="enable-background:new 0 0 100 103.2;" xml:space="preserve">
<style type="text/css">
	.st0{fill:#FFFFFF;}
</style>
<g>
	<path class="st0" d="M87.8,65.3c-0.1-0.4-0.5-0.8-0.9-0.8l-1.5-0.1c-0.2-0.7-0.5-1.3-0.7-2c5.3-4.2,8.4-13.1,7.5-21.9
		c-0.8-8.1-4.8-14.4-11-17.2c-9.5-4.2-10.6-6.3-9.6-18.2c0-0.4-0.2-0.8-0.6-1c-0.3-0.2-0.8-0.1-1.1,0.2c-9.4,8.7-11.8,17.1-7.3,25
		c1.1,1.9,2.5,3.4,3.7,4.7c2.4,2.5,3.4,3.6,1.2,6c-5.2-2.7-11.1-3.5-16.8-2.1c-6.5,1.6-11.7,5.9-14.4,11.9
		c-5.9-0.1-7.2-0.6-9.3-10.3c-2.6-12-11.2-16.1-18.5-14.7c-0.4,0.1-0.7,0.4-0.8,0.8c-0.1,0.4,0.1,0.8,0.4,1
		c6.7,4.7,6.8,6.8,4.1,16.4c-0.2,0.7-0.4,1.5-0.7,2.3c-1.8,6.3-4.7,15.9,0.2,23c3,4.3,8.4,7.1,16.1,8.5c-0.2,1.2-0.5,2.9-0.9,4.4
		c-0.2,0.8,0,1.7,0.7,2.7c2.4,3.8,10.1,9,19.8,11.1c3.2,0.7,6.5,1,9.9,1c9.9,0,19.9-2.8,26-7.8c4.4-3.6,6.8-9.1,6.5-12.4
		C89.8,74.9,88.1,66.9,87.8,65.3z M84.9,59.5c-0.3,0.3-0.6,0.7-1,0.9c-2.6-6.3-6.5-13.3-12.4-17.9c-0.7-0.6-1.4-1.1-2.2-1.6
		c0,0,0.1,0,0.1-0.1c5.3,0.8,9.9,5.3,12.6,9.3C84.3,53.6,85.4,57.2,84.9,59.5z M80.3,25.2c5.5,2.5,9.1,8.2,9.8,15.6
		c0.6,5.8-0.8,11.8-3.3,16.1c-0.3-2.4-1.4-5.1-3.2-7.8c-0.1-0.1-0.2-0.2-0.2-0.3l-0.1-0.1c-0.1-0.1-0.1-0.2-0.2-0.3
		c0.8-0.9,1.4-1.9,1.9-2.8l1.9,1.5c0.1,0.1,0.2,0.1,0.2,0.1c0.1,0,0.2,0,0.3-0.1c0.1-0.2,0.1-0.4-0.1-0.5l-2-1.6
		c0.3-0.6,0.5-1.1,0.7-1.7l2.2,1.3c0.1,0,0.1,0.1,0.2,0.1c0.1,0,0.3-0.1,0.3-0.2c0.1-0.2,0-0.4-0.1-0.5l-2.3-1.4
		c0.2-0.7,0.3-1.4,0.3-2.1l2.3,1H89c0.1,0,0.3-0.1,0.3-0.2c0.1-0.2,0-0.4-0.2-0.5l-2.6-1.1c0-0.4-0.1-0.8-0.1-1.2
		c-0.6-3.3-3-6.2-6.8-8.2c-4.4-2.3-7.5-6.6-7.8-10.4C73.5,21.6,76.2,23.3,80.3,25.2z M67.7,32.6c-1.1-1.2-2.4-2.6-3.4-4.3
		c-3.7-6.5-2.1-13.3,5.1-20.7c-0.3,5.1,0,8.4,1.6,11c-0.2,4.2,3.2,9.4,8.2,12.1c3.6,1.9,5.9,4.6,6.4,7.7c0,0.3,0.1,0.5,0.1,0.8
		l-1.9-0.8c-0.2-0.1-0.4,0-0.5,0.2c-0.1,0.2,0,0.4,0.2,0.5l2.2,0.9c0,0.7-0.1,1.3-0.2,2l-1.8-1.2c-0.2-0.1-0.4,0-0.5,0.1
		c-0.1,0.2,0,0.4,0.1,0.5l2.1,1.2c-0.2,0.5-0.4,1.1-0.6,1.6l-1.9-1.5c-0.2-0.1-0.4-0.1-0.5,0.1s-0.1,0.4,0.1,0.5l2,1.6
		c-0.5,0.9-1.1,1.8-1.8,2.6c-2.8-3.8-7.2-7.6-12.2-8.7C71.3,36.4,69.5,34.5,67.7,32.6z M51.2,39.8c6.6-1.7,13.5-0.1,19,4.3
		c7.1,5.6,11.3,15,13.6,22c-0.1,1.5-0.7,3.2-2,5c-3.7,5.1-11.1,8.7-19.7,9.7c-11.8,1.3-21.1-0.4-26.1-3c3.2,0,7.7-1,10-7.5
		c1.8-5.3-0.1-12.9-2.9-16.9c-1.4-2-3-3.1-4.6-3.4C41.1,44.9,45.6,41.2,51.2,39.8z M37.4,84.1c0,0.5-0.2,0.9-0.5,1.2
		c-0.7,0.6-1.9,0.3-2.7-0.6c-0.8-0.9-0.9-2.2-0.2-2.8c0.2-0.2,0.5-0.3,0.9-0.3c0.1,0,0.2,0,0.3,0c0.5,0.1,1.1,0.4,1.5,0.9
		C37.1,82.9,37.4,83.5,37.4,84.1z M41.5,54.4C44,58,45.7,65,44.1,69.5c-2,5.6-5.8,6.2-8.6,6.1c1.5-1,3-2.6,4.3-5
		c2.3-4.4,1.8-11.5-0.1-15.9c-0.5-1.2-1.1-2.1-1.7-2.9C39.1,51.8,40.4,52.8,41.5,54.4z M13.4,67.2c-4.4-6.4-1.8-15.1,0.1-21.4
		c0.2-0.8,0.5-1.6,0.7-2.3c2.5-9.2,2.7-12.5-2.7-17C17,26.6,23.1,30,25.2,39.9c2.1,9.9,4.1,11.6,9.6,11.9v0.1
		c1.2,0.3,2.3,1.6,3.1,3.7c1.5,3.5,1.9,8.3,1,11.8c-0.9-0.1-2.9-0.2-5.4-0.6l1.1-2.8c0.1-0.2,0-0.4-0.2-0.5c-0.2-0.1-0.4,0-0.5,0.2
		l-1.2,2.8c-0.8-0.1-1.7-0.3-2.6-0.5l1-2.7c0.1-0.2,0-0.4-0.2-0.5s-0.4,0-0.5,0.2l-1.1,2.8c-0.7-0.2-1.5-0.4-2.2-0.6l1-2.8
		c0.1-0.2,0-0.4-0.2-0.5c-0.2-0.1-0.4,0-0.5,0.2l-1.1,2.8c-2.5-0.8-4.8-1.9-6.2-3.4c-2.7-2.8-2.1-11.6-1.7-18.6
		c0.4-6.2,0.6-9.5-0.6-10.1c-0.2-0.1-0.4,0-0.5,0.2c-0.1,0.2,0,0.4,0.2,0.5c0.8,0.4,0.5,5.2,0.2,9.4C17.2,50.1,16.6,59,19.6,62
		c1.5,1.6,3.9,2.7,6.5,3.6l-0.7,1.9c-0.1,0.2,0,0.4,0.2,0.5h0.1c0.2,0,0.3-0.1,0.4-0.2l0.7-1.9c0.7,0.2,1.4,0.4,2.2,0.6l-0.7,1.8
		c-0.1,0.2,0,0.4,0.2,0.5h0.1c0.2,0,0.3-0.1,0.4-0.2l0.7-1.9c0.9,0.2,1.7,0.4,2.6,0.5L31.8,69c-0.1,0.2,0,0.4,0.2,0.5h0.1
		c0.2,0,0.3-0.1,0.4-0.2l0.7-1.8c2.4,0.4,4.5,0.5,5.5,0.6c-0.2,0.6-0.4,1.2-0.7,1.7c-2.1,4-4.8,5.3-6.9,5.6
		C22.3,74.2,16.4,71.5,13.4,67.2z M85.9,71.4c-1.7,0-2.9,1.9-2.9,4.3c0,2.5,1.3,4.3,2.9,4.3c0.6,0,1.1-0.2,1.5-0.6
		c-1.1,2.5-2.7,5.2-5.2,7.2c-7.8,6.3-22.2,9-34.3,6.4c-9.7-2.1-16.7-7.2-18.5-10.2c-0.4-0.7-0.5-1-0.4-1.2c0.4-1.5,0.7-3.1,0.9-4.3
		H30c0.4,0,0.8,0,1.3-0.1c0.4,0,0.8,0.1,1.1,0.1c0.8,0.8,1.9,1.5,3.1,2.2c-1-0.1-1.9,0.1-2.6,0.7c-1.5,1.3-1.6,3.8-0.1,5.6
		c0.9,1.1,2.2,1.7,3.4,1.7c0.8,0,1.5-0.2,2.2-0.8c0.8-0.6,1.2-1.6,1.2-2.7c0-1-0.4-2-1.1-2.9c-0.2-0.2-0.4-0.4-0.6-0.6
		C42.2,82.1,48,83,54.4,83c2.6,0,5.4-0.2,8.1-0.5C75.7,81,81.6,74.7,83.6,72c1.4-1.9,2.2-3.9,2.4-5.7h0.2c0.4,1.7,0.8,3.9,1.2,5.7
		C87,71.6,86.5,71.4,85.9,71.4z M86.6,75.9c0,1.5-0.6,2.3-0.9,2.3c-0.3,0-0.9-0.9-0.9-2.3c0-1.5,0.6-2.3,0.9-2.3
		C86,73.6,86.6,74.4,86.6,75.9z"/>
	<path class="st0" d="M62.5,84c-2.7,0.7-4.4,3.1-3.9,5.4c0.3,1.1,1.1,2.1,2.3,2.6c0.7,0.3,1.4,0.5,2.2,0.5c0.5,0,1-0.1,1.4-0.2
		c1.3-0.3,2.4-1,3.1-2c0.8-1,1.1-2.2,0.8-3.4C67.8,84.6,65.2,83.3,62.5,84z M66,89c-0.5,0.6-1.2,1-2,1.3c-0.8,0.2-1.7,0.1-2.4-0.2
		c-0.6-0.3-1-0.7-1.2-1.3c-0.3-1.2,0.8-2.5,2.4-2.9c1.6-0.4,3.2,0.3,3.5,1.5C66.6,87.9,66.4,88.5,66,89z"/>
	<path class="st0" d="M48.5,83.9c-1.3-0.2-2.7-0.1-3.8,0.5c-1.2,0.6-2,1.6-2.2,2.8c-0.2,1.2,0.2,2.4,1.1,3.3
		c0.8,0.9,2.1,1.5,3.4,1.8c0.4,0.1,0.8,0.1,1.2,0.1c0.9,0,1.9-0.2,2.6-0.6c1.2-0.6,2-1.6,2.2-2.8C53.4,86.7,51.4,84.4,48.5,83.9z
		 M51,88.7c-0.1,0.7-0.8,1.1-1.1,1.3c-0.7,0.4-1.6,0.5-2.5,0.3c-0.9-0.2-1.7-0.6-2.3-1.2c-0.3-0.3-0.7-0.9-0.6-1.6
		c0.1-0.7,0.7-1.1,1.1-1.3c0.5-0.3,1.1-0.4,1.7-0.4c0.3,0,0.5,0,0.8,0.1C49.9,86.2,51.2,87.5,51,88.7z"/>
	<path class="st0" d="M74.7,80c-2.3,1.6-2.9,4.5-1.5,6.6c0.9,1.2,2.3,1.9,3.8,1.9c1,0,2-0.3,2.9-0.9c2.3-1.6,2.9-4.5,1.5-6.6
		C80,78.9,77,78.4,74.7,80z M78.8,85.9c-1.3,0.9-3.1,0.7-3.9-0.5c-0.8-1.2-0.4-2.9,1-3.8c1.3-0.9,3.1-0.7,3.9,0.5S80.2,85,78.8,85.9
		z"/>
</g>
</svg>
