<?xml version="1.0" encoding="utf-8"?>
<!-- Generator: Adobe Illustrator 22.0.1, SVG Export Plug-In . SVG Version: 6.00 Build 0)  -->
<svg version="1.1" id="Layer_1" xmlns="http://www.w3.org/2000/svg" xmlns:xlink="http://www.w3.org/1999/xlink" x="0px" y="0px"
	 viewBox="0 0 28 44" style="enable-background:new 0 0 28 44;" xml:space="preserve">
<style type="text/css">
	.st0{fill:#ED143D;}
</style>
<title>Fichier 1</title>
<g>
	<g>
		<path class="st0" d="M17.1,25.3v-9.1c0.6-0.4,1.7-1,1.7-1.9s-1-1.7-2.5-2.1c2.8-2.3,3.6-4.6,2.3-6.3c-0.4-0.5-0.9-0.8-1.5-0.9
			C16,5.1,14.9,5.6,14,6.4c-0.8-0.8-1.8-1.3-2.9-1.4c-0.7,0-1.3,0.4-1.7,0.9C8.8,6.5,8.6,7.3,8.7,8c0.2,1.5,1.6,3,2.9,4.2
			c-1.5,0.4-2.4,1.2-2.4,2.1c0,0.8,1,1.4,1.6,1.8c0,0,0.1,0,0.1,0.1v9.2C9.7,26,5,28.9,5,32.1c0,3.8,4,6.9,8.9,6.9s9.1-3.2,9.1-6.9
			C23,28.9,18.4,26,17.1,25.3z M9.7,7.9c-0.1-0.5,0.1-1.1,0.4-1.5c0.2-0.3,0.6-0.6,1-0.6c1.2-0.1,2.6,1.4,2.6,1.4L14,7.6l0.2-0.3
			c0.4-0.4,1.7-1.5,2.7-1.4c0.4,0.1,0.7,0.3,0.9,0.6c1.4,1.9-1.1,4.3-2.7,5.6c-0.4,0-0.7-0.1-1.1-0.1c-0.4,0-0.8,0-1.2,0.1
			C10.9,10.5,9.8,9.1,9.7,7.9z M13.9,38.2c-4.5,0-8.1-2.8-8.1-6.1c0-3,5.7-6.1,5.8-6.1c0.2,0,0.3-0.2,0.3-0.4V16
			c0-0.2-0.1-0.3-0.2-0.4c-0.1-0.1-0.2-0.1-0.4-0.2c-0.4-0.3-1.2-0.8-1.2-1.1c0-0.8,1.7-1.6,4-1.6s4,0.8,3.8,1.6
			c0,0.3-0.6,0.8-1.5,1.2c-0.1,0.1-0.2,0.2-0.2,0.4v9.7c0,0.2,0.1,0.3,0.2,0.4s5.7,3,5.7,6.1C22,35.5,18.4,38.2,13.9,38.2z"/>
		<path class="st0" d="M21.1,30.8c-0.4-0.6-2.3-1-4.6-1c-2,0-4.2,2-7.4,1.6c-0.7-0.1-1.3-0.3-1.9-0.6c-0.2-0.1-0.4,0-0.5,0.1
			c-0.2,0.3-0.4,0.7-0.4,1.1c0,3.2,4,5.7,7.6,5.7c3.1,0,7.6-2.5,7.6-5.6C21.6,31.6,21.4,31.1,21.1,30.8z"/>
		<path class="st0" d="M12.8,16.8c0.4,0.1,0.8,0.2,1.1,0.2c0.4,0,0.9-0.1,1.3-0.3c0.1,0,0.2-0.1,0.3-0.3l0.7-2.1v-0.1
			c0-0.6-0.7-0.9-2.2-0.9c-0.7,0-1.4,0.1-2,0.5c-0.1,0.1-0.2,0.3-0.2,0.4v0.1l0.7,2.1C12.6,16.7,12.7,16.8,12.8,16.8z M13.9,14.3
			c0.4,0,0.8,0,1.3,0.1L14.7,16c-0.5,0.2-1,0.2-1.4,0l-0.5-1.6C13.1,14.4,13.5,14.3,13.9,14.3z"/>
		<ellipse class="st0" cx="12.9" cy="28.1" rx="1.1" ry="1.1"/>
		<ellipse class="st0" cx="14.9" cy="24.6" rx="0.4" ry="0.4"/>
		<ellipse class="st0" cx="13.6" cy="21.5" rx="0.8" ry="0.9"/>
	</g>
</g>
</svg>
