<?xml version="1.0" encoding="utf-8"?>
<!-- Generator: Adobe Illustrator 22.0.1, SVG Export Plug-In . SVG Version: 6.00 Build 0)  -->
<svg version="1.1" id="Layer_1" xmlns="http://www.w3.org/2000/svg" xmlns:xlink="http://www.w3.org/1999/xlink" x="0px" y="0px"
	 viewBox="0 0 28 38.4" style="enable-background:new 0 0 28 38.4;" xml:space="preserve">
<style type="text/css">
	.st0{fill:#ED143D;}
</style>
<g>
	<path class="st0" d="M20.9,16.5c-0.3-1.1-1.3-2-2.6-2.5c-0.1,0-0.1,0-0.2-0.1l0.5-1.8c0-0.1,0-0.2,0-0.3c0-0.3-0.4-0.6-0.9-0.8
		c0.3-0.4,0.4-0.9,0.4-1.5c0-2-3.5-4.6-3.9-4.9L14,4.3l-0.3,0.3c-0.4,0.3-3.9,3-3.9,4.9c0,0.6,0.1,1.1,0.4,1.5
		c-0.5,0.2-0.9,0.4-0.9,0.8c0,0.1,0,0.2,0,0.3l0.5,1.8c-0.1,0-0.1,0-0.2,0c-1.3,0.4-2.3,1.4-2.6,2.5c-0.1,1.1,0,2.1,0.5,3.4
		c0.3,0.6,0.6,1.2,0.9,1.8C8.6,22,8.8,22.3,9,22.7c1.2,2.3,1.5,7.1,1.5,8.2c-0.9,0.5-1.7,1.3-1.7,1.8c0,0.2,0.1,0.4,0.3,0.4
		c0.1,0,2.2,1,4.9,1s4.8-0.9,4.9-1c0.2-0.1,0.3-0.2,0.3-0.4c0-0.5-0.8-1.3-1.7-1.8c0.1-1.1,0.3-5.9,1.5-8.2c0.2-0.4,0.4-0.7,0.6-1.1
		c0.3-0.6,0.7-1.2,0.9-1.8C21,18.5,21.1,17.5,20.9,16.5z M16.7,11c-0.2,0-0.5-0.1-0.7-0.1c0.4-0.7,0.7-1.4,0.9-2.3
		c0.2,0.4,0.3,0.7,0.3,1C17.2,10.1,17,10.6,16.7,11z M15.3,6.3c0.3,0.3,0.6,0.7,0.8,1c-0.1,1.3-0.5,2.6-1.2,3.5c-0.4,0-0.8,0-1,0
		s-0.4,0-0.6,0C14.3,9.7,15.1,8.1,15.3,6.3z M13.9,4.9C14,5,14.2,5.2,14.4,5.3c-0.1,2.7-1.5,4.9-3.3,5.6c-0.2-0.3-0.3-0.5-0.4-0.9
		c1.5-0.7,2.6-2.5,2.7-4.7C13.6,5.2,13.8,5,13.9,4.9z M10.7,8.9c0.2-0.8,0.9-1.6,1.6-2.4C12,7.5,11.4,8.4,10.7,8.9z M19.6,19.2
		c-0.3,0.6-0.6,1.2-0.9,1.8c-0.2,0.4-0.4,0.7-0.6,1.1c-1.4,2.7-1.6,8.5-1.6,8.8c0,0.2,0.1,0.3,0.2,0.4c0.7,0.4,1.1,0.8,1.3,1
		c-0.7,0.3-2.3,0.7-4,0.7c-1.8,0-3.3-0.4-4-0.7c0.2-0.3,0.7-0.7,1.3-1c0.1-0.1,0.2-0.2,0.2-0.4c0-0.3-0.2-6-1.6-8.8
		c-0.2-0.4-0.4-0.7-0.6-1.1c-0.3-0.6-0.7-1.1-0.9-1.8c-0.5-1-0.6-2-0.4-2.8c0.2-0.9,1-1.6,2-1.9c0.1,0,0.3-0.1,0.5-0.1
		c0.1,0,0.2-0.1,0.3-0.2s0.1-0.2,0.1-0.3l-0.6-2.2c0.3-0.2,1.6-0.5,3.7-0.5s3.4,0.3,3.7,0.5l-0.6,2.2c0,0.1,0,0.3,0.1,0.3
		s0.2,0.2,0.3,0.2c0.2,0.1,0.4,0.1,0.5,0.1c1,0.3,1.8,1.1,2,1.9C20.2,17.2,20.1,18.2,19.6,19.2z"/>
	<path class="st0" d="M10.6,20c-0.4-0.1-1-0.3-1-0.2c0,0.1,0,0.2,0.1,0.3c0.1,0.2,0.9,2.2,1,2.6c1.1,2.9,1.3,9.4,1.3,9.4
		c0.3,0.2,1.1,0.5,2,0.5c1,0,1.8-0.3,2-0.5c0,0,0.2-6.5,1.3-9.4c0.1-0.2,0.7-1.9,1-2.6c0.1-0.2,0.4-1.3,0.5-1.6
		c-0.6-0.2-1.6-0.3-2.3-0.3C14.9,18.1,13.2,20.5,10.6,20z"/>
	<ellipse class="st0" cx="12.4" cy="20.5" rx="1.2" ry="1.3"/>
	<ellipse class="st0" cx="14.7" cy="17.5" rx="0.5" ry="0.5"/>
	<ellipse class="st0" cx="13.3" cy="13.8" rx="1" ry="1"/>
</g>
</svg>
