<?xml version="1.0" encoding="utf-8"?>
<!-- Generator: Adobe Illustrator 22.0.1, SVG Export Plug-In . SVG Version: 6.00 Build 0)  -->
<svg version="1.1" id="Layer_1" xmlns="http://www.w3.org/2000/svg" xmlns:xlink="http://www.w3.org/1999/xlink" x="0px" y="0px"
	 viewBox="0 0 64 65.5" style="enable-background:new 0 0 64 65.5;" xml:space="preserve">
<style type="text/css">
	.st0{fill:#FFFFFF;}
</style>
<g>
	<path class="st0" d="M59,17H43h-1h-5v-2h0.4c1.4,0,2.6-1.2,2.6-2.6c0-0.5-0.1-0.9-0.4-1.3l-5.3-8.8C33.9,1.5,33,1,32,1
		s-1.9,0.5-2.4,1.3l-5.3,8.8C24.1,11.5,24,12,24,12.4c0,1.4,1.2,2.6,2.6,2.6H27v2h-5h-1H5c-2.2,0-4,1.8-4,4v10c0,2.2,1.8,4,4,4
		c0.7,0,1.4-0.2,2-0.6V39v1v11.2C7,52.7,8.3,54,9.8,54c1.1,0,2.2-0.7,2.6-1.8l3.2-7.9c0.1-0.4,0.7-0.4,0.9,0l3.2,8.1
		c0.4,1,1.3,1.6,2.4,1.6c1,0,1.8-0.5,2.3-1.4l2.7-5.4V63h2V44h2v7h4v12h2V51h5v-5.5c0-0.8,0.7-1.5,1.5-1.5s1.5,0.7,1.5,1.5V53h12V40
		v-1v-4.6c0.6,0.3,1.3,0.6,2,0.6c2.2,0,4-1.8,4-4V21C63,18.8,61.2,17,59,17z M44,19h11.6c-0.3,0.6-0.6,1.3-0.6,2v10v7H33v-8
		C38.8,29.5,43.5,24.8,44,19z M20.3,35.3L17.6,38h-3.2l10.4-10.4c0.6,0.5,1.3,0.9,2,1.2L21.6,34l1.4,1.4l5.9-5.9
		c0.7,0.2,1.4,0.3,2.2,0.4v0.6L23.6,38h-3.2l1.3-1.3L20.3,35.3z M8.4,19h4.1L9,22.6V21C9,20.3,8.8,19.6,8.4,19z M17,23.4L15.6,22
		L9,28.6v-3.2l6.4-6.4h3.2l-1.8,1.8l1.4,1.4l2-2c0.2,0.8,0.4,1.7,0.7,2.4L9,34.6v-3.2L17,23.4z M9,37.4l12.9-12.9
		c0.4,0.6,0.9,1.2,1.4,1.8L11.6,38H9V37.4z M31,33.4V38h-4.6L31,33.4z M41.9,19c-0.3,3.3-2.2,6.1-4.9,7.6V19H41.9z M26,12.4
		c0-0.1,0-0.2,0.1-0.3l5.3-8.8C31.5,3.1,31.7,3,32,3c0.3,0,0.5,0.1,0.7,0.4l5.3,8.8c0.1,0.1,0.1,0.2,0.1,0.3c0,0.3-0.3,0.6-0.6,0.6
		H26.6C26.3,13,26,12.7,26,12.4z M35,15v12.5c-0.9,0.3-2,0.5-3,0.5s-2.1-0.2-3-0.5V15H35z M27,26.6c-2.7-1.6-4.6-4.4-4.9-7.6H27
		V26.6z M5,33c-1.1,0-2-0.9-2-2V21c0-1.1,0.9-2,2-2s2,0.9,2,2v10C7,32.1,6.1,33,5,33z M27.4,42l-4.9,9.7c-0.2,0.4-0.8,0.4-1,0
		l-3.2-8.1C17.9,42.6,17,42,16,42s-1.9,0.6-2.3,1.6l-3.2,7.9c-0.1,0.3-0.4,0.5-0.7,0.5C9.4,52,9,51.6,9,51.2V40h22v2H27.4z M55,51
		h-8v-5.5c0-1.9-1.6-3.5-3.5-3.5S40,43.6,40,45.5V49h-7v-6v-1v-2h22V51z M61,31c0,1.1-0.9,2-2,2s-2-0.9-2-2V21c0-1.1,0.9-2,2-2
		s2,0.9,2,2V31z"/>
	<rect x="39" y="34" class="st0" width="14" height="2"/>
	<rect x="35" y="34" class="st0" width="2" height="2"/>
</g>
</svg>
