<?xml version="1.0" encoding="utf-8"?>
<!-- Generator: Adobe Illustrator 22.0.1, SVG Export Plug-In . SVG Version: 6.00 Build 0)  -->
<svg version="1.1" id="Layer_1" xmlns="http://www.w3.org/2000/svg" xmlns:xlink="http://www.w3.org/1999/xlink" x="0px" y="0px"
	 viewBox="0 0 101 94.5" style="enable-background:new 0 0 101 94.5;" xml:space="preserve">
<style type="text/css">
	.st0{fill:#ED143D;}
</style>
<path class="st0" d="M50,1.8c-25.4,0-46,20.6-46,46s20.6,46,46,46s46-20.6,46-46S75.4,1.8,50,1.8z M50,91.8c-24.3,0-44-19.7-44-44
	s19.7-44,44-44s44,19.7,44,44S74.3,91.8,50,91.8z"/>
<path class="st0" d="M50,8.4C28.3,8.4,10.7,26,10.7,47.8c0,10.8,4.4,20.6,11.5,27.8c7.1,7.1,17,11.5,27.8,11.5
	c21.7,0,39.3-17.6,39.3-39.3S71.7,8.5,50,8.4z M77.5,74.8l-4.4-4.4L74,68c0.1-0.2,0-0.4-0.2-0.5s-0.4,0-0.5,0.2l-0.8,2.1l-1.6-1.6
	l0.9-2.2c0.1-0.2,0-0.4-0.2-0.5s-0.4,0-0.5,0.2l-0.7,1.9l-5.9-5.8c3.5-3.6,5.7-8.5,5.7-14c0-5.4-2.2-10.3-5.7-14l7.6-7.6l0.4,1.9
	c0,0.2,0.2,0.3,0.4,0.3H73c0.2,0,0.4-0.3,0.3-0.5l-0.5-2.4l4.7-4.7c6.8,7,11,16.5,11,27S84.3,67.8,77.5,74.8z M31.9,47.8
	c0-10,8.1-18.1,18.1-18.1s18.1,8.1,18.1,18.1s-8.1,18-18.1,18S31.9,57.8,31.9,47.8z M76.9,20.2l-4.3,4.3l-0.4-2.2
	c0-0.2-0.2-0.4-0.5-0.3c-0.2,0-0.4,0.3-0.3,0.5l0.5,2.7l-8,8c-3.6-3.5-8.5-5.6-13.9-5.6s-10.3,2.2-14,5.7l-7.8-7.8l0.7-2.5
	c0.1-0.2-0.1-0.4-0.3-0.5c-0.2-0.1-0.4,0.1-0.5,0.3l-0.6,2.1L23,20.2c7-6.8,16.5-11,27-11S70,13.4,76.9,20.2z M22.5,20.9l4.9,4.9
	l-0.7,2.4c-0.1,0.2,0.1,0.4,0.3,0.5h0.1c0.2,0,0.3-0.1,0.4-0.3l0.5-2l7.5,7.5c-3.5,3.6-5.6,8.5-5.6,13.9S32,58,35.5,61.7l-3.7,3.7
	L30,64.2c-0.2-0.1-0.4-0.1-0.6,0.1c-0.1,0.2-0.1,0.4,0.1,0.6l1.7,1.1l-1.4,1.4l-2.3-1.5c-0.2-0.1-0.4-0.1-0.5,0.1s-0.1,0.4,0.1,0.6
	l2.1,1.4l-6.7,6.7c-6.8-6.9-11-16.4-11-26.9S15.7,27.7,22.5,20.9z M23,75.2l6.8-6.8l1.8,1.3c0.1,0,0.1,0.1,0.2,0.1s0.3-0.1,0.3-0.2
	c0.1-0.2,0.1-0.4-0.1-0.6l-1.7-1.2l1.4-1.4L34,68c0.1,0,0.1,0.1,0.2,0.1c0.1,0,0.3-0.1,0.3-0.2c0.1-0.2,0.1-0.4-0.1-0.6l-2.2-1.5
	l3.6-3.6c3.6,3.5,8.5,5.7,14,5.7c5.4,0,10.3-2.1,13.9-5.6l6,6l-1,2.5c-0.1,0.2,0,0.4,0.2,0.5H69c0.2,0,0.3-0.1,0.4-0.3l0.8-2.2
	l1.6,1.6l-0.9,2.3c-0.1,0.2,0,0.4,0.2,0.5h0.1c0.2,0,0.3-0.1,0.4-0.3l0.8-2l4.3,4.3C69.8,82,60.1,86,49.6,86
	C39.5,86.2,30,82.1,23,75.2z"/>
<path class="st0" d="M50,58.3c5.9,0,10.6-4.8,10.6-10.6c0-5.9-4.8-10.6-10.6-10.6c-5.9,0-10.6,4.8-10.6,10.6
	C39.4,53.7,44.1,58.3,50,58.3z M50,39.1c4.8,0,8.6,3.9,8.6,8.6c0,4.8-3.9,8.6-8.6,8.6c-4.8,0-8.6-3.9-8.6-8.6S45.2,39.2,50,39.1z"/>
<path class="st0" d="M50,36c1.2,0,2.2-1,2.2-2.2s-1-2.2-2.2-2.2s-2.2,1-2.2,2.2S48.8,36,50,36z M50,32.4c0.8,0,1.4,0.6,1.4,1.4
	c0,0.8-0.6,1.4-1.4,1.4c-0.8,0-1.4-0.6-1.4-1.4S49.2,32.4,50,32.4z"/>
<path class="st0" d="M50,60.2c-1.2,0-2.2,1-2.2,2.2s1,2.2,2.2,2.2s2.2-1,2.2-2.2C52.2,61.1,51.2,60.1,50,60.2z M50,63.8
	c-0.8,0-1.4-0.6-1.4-1.4c0-0.8,0.6-1.4,1.4-1.4c0.8,0,1.4,0.6,1.4,1.4S50.8,63.8,50,63.8z"/>
<path class="st0" d="M60.1,40.2c0.6,0,1.2-0.2,1.6-0.7c0.9-0.9,0.9-2.3,0-3.2c-0.8-0.8-2.3-0.8-3.2,0c-0.4,0.4-0.7,1-0.7,1.6
	s0.2,1.2,0.7,1.6C59,39.9,59.5,40.1,60.1,40.2z M59.1,37c0.3-0.3,0.6-0.4,1-0.4s0.7,0.1,1,0.4c0.6,0.6,0.6,1.5,0,2
	c-0.5,0.5-1.5,0.5-2,0c-0.3-0.3-0.4-0.6-0.4-1S58.9,37.2,59.1,37z"/>
<path class="st0" d="M41.4,56.7c-0.4-0.4-1-0.7-1.6-0.7s-1.2,0.2-1.6,0.7c-0.4,0.5-0.7,1-0.7,1.6s0.2,1.2,0.7,1.6
	c0.4,0.4,1,0.7,1.6,0.7s1.1-0.2,1.6-0.7c0.4-0.4,0.7-1,0.7-1.6S41.9,57,41.4,56.7L41.4,56.7z M40.9,59.2c-0.6,0.6-1.5,0.6-2,0
	c-0.3-0.3-0.4-0.6-0.4-1s0.1-0.7,0.4-1c0.3-0.3,0.6-0.4,1-0.4s0.7,0.1,1,0.4c0.3,0.3,0.4,0.6,0.4,1S41.1,59,40.9,59.2z"/>
<path class="st0" d="M64.3,50.3c1.2,0,2.2-1,2.2-2.2s-1-2.2-2.2-2.2c-1.2,0-2.2,1-2.2,2.2S63.1,50.3,64.3,50.3z M64.3,46.6
	c0.8,0,1.4,0.6,1.4,1.4c0,0.8-0.6,1.4-1.4,1.4c-0.8,0-1.4-0.6-1.4-1.4C62.9,47.2,63.6,46.6,64.3,46.6z"/>
<path class="st0" d="M37.9,48c0-1.2-1-2.2-2.2-2.2s-2.2,1-2.2,2.2s1,2.2,2.2,2.2S37.9,49.2,37.9,48z M35.7,49.5
	c-0.8,0-1.4-0.6-1.4-1.4c0-0.8,0.6-1.4,1.4-1.4c0.8,0,1.4,0.6,1.4,1.4C37.1,48.8,36.4,49.5,35.7,49.5z"/>
<path class="st0" d="M58.6,56.7c-0.4,0.4-0.7,1-0.7,1.6s0.2,1.2,0.7,1.6c0.4,0.4,1,0.7,1.6,0.7s1.1-0.2,1.6-0.7
	c0.9-0.9,0.9-2.3,0-3.2S59.4,55.7,58.6,56.7z M61.2,59.2c-0.6,0.6-1.5,0.6-2,0c-0.3-0.3-0.4-0.6-0.4-1s0.1-0.7,0.4-1
	c0.3-0.3,0.6-0.4,1-0.4s0.7,0.1,1,0.4C61.7,57.8,61.7,58.7,61.2,59.2z"/>
<path class="st0" d="M39.9,40.2c0.6,0,1.2-0.2,1.6-0.7c0.4-0.4,0.7-1,0.7-1.6s-0.2-1.2-0.7-1.6c-0.8-0.8-2.3-0.8-3.2,0
	c-0.4,0.4-0.7,1-0.7,1.6s0.2,1.2,0.7,1.6C38.7,40,39.3,40.2,39.9,40.2z M38.8,37c0.3-0.3,0.6-0.4,1-0.4s0.7,0.1,1,0.4
	c0.3,0.3,0.4,0.6,0.4,1s-0.1,0.7-0.4,1c-0.5,0.5-1.5,0.5-2,0c-0.3-0.3-0.4-0.6-0.4-1S38.6,37.2,38.8,37z"/>
</svg>
